M48
; DRILL file {KiCad 8.99.0-409-g72d83cd5de} date 2024-05-03T23:54:03-0500
; FORMAT={-:-/ absolute / inch / decimal}
; #@! TF.CreationDate,2024-05-03T23:54:03-05:00
; #@! TF.GenerationSoftware,Kicad,Pcbnew,8.99.0-409-g72d83cd5de
; #@! TF.FileFunction,Plated,1,4,PTH
FMAT,2
INCH
; #@! TA.AperFunction,Plated,PTH,ViaDrill
T1C0.0079
; #@! TA.AperFunction,Plated,PTH,ComponentDrill
T2C0.0079
; #@! TA.AperFunction,Plated,PTH,ComponentDrill
T3C0.0394
%
G90
G05
T1
X4.4961Y-1.6341
X4.5009Y-1.7791
X4.5601Y-1.6972
X4.5635Y-1.8683
X4.655Y-1.8162
X4.6772Y-1.691
X4.7384Y-1.8721
X4.772Y-1.6015
X4.8767Y-1.6015
X4.9777Y-1.5987
X5.0755Y-1.5987
X5.0766Y-1.6915
X5.1228Y-1.8138
X5.1684Y-1.5987
X5.2678Y-1.5979
X5.6735Y-1.9192
X5.6848Y-4.9668
X5.6965Y-2.3626
X5.6965Y-3.15
X5.6965Y-3.5433
X5.6965Y-3.9358
X5.6972Y-4.3315
X5.6996Y-4.8346
X5.7332Y-1.8998
X5.7528Y-3.1504
X5.7528Y-3.5437
X5.7528Y-3.9366
X5.7528Y-4.3319
X5.7531Y-4.811
X5.7539Y-2.3638
X5.7541Y-2.7504
X5.8294Y-1.8615
X5.8456Y-4.5885
X5.8461Y-4.3335
X5.8465Y-2.3638
X5.8476Y-3.1504
X5.8476Y-3.5437
X5.8476Y-4.8134
X5.8482Y-2.7499
X5.8496Y-3.9386
X5.853Y-4.9653
X5.9268Y-4.3335
X5.927Y-1.8771
X5.9272Y-2.3638
X5.928Y-4.8177
X5.928Y-4.681
X5.9283Y-3.1516
X5.9283Y-3.9386
X5.9285Y-4.4708
X5.9291Y-2.7462
X5.9295Y-3.5449
X5.974Y-4.8268
X5.9926Y-4.8495
X5.9978Y-4.9639
X6.0047Y-2.7446
X6.0051Y-1.8626
X6.0056Y-3.5454
X6.0056Y-3.153
X6.0056Y-3.9392
X6.0075Y-4.3319
X6.0079Y-2.365
X6.0484Y-4.8031
X6.0713Y-4.9538
X6.0896Y-2.3673
X6.09Y-3.1551
X6.09Y-3.5472
X6.0909Y-4.3345
X6.0909Y-4.5629
X6.0913Y-3.9402
X6.0914Y-2.743
X6.1123Y-1.9034
X6.1206Y-4.7352
X6.1535Y-4.9072
X6.1608Y-1.8525
X6.2091Y-4.8118
X6.2184Y-5.2515
X6.2203Y-5.4042
X6.2224Y-5.4561
X6.2334Y-2.1198
X6.2346Y-4.5614
X6.2347Y-2.3634
X6.2347Y-2.7432
X6.2347Y-3.1512
X6.2347Y-3.5109
X6.2347Y-3.8948
X6.2347Y-4.3377
X6.237Y-4.1297
X6.2603Y-1.9617
X6.2642Y-5.0365
X6.2987Y-5.4574
X6.3075Y-5.3534
X6.3151Y-4.9289
X6.3331Y-4.7412
X6.3437Y-1.8858
X6.3567Y-1.5971
X6.3571Y-5.3119
X6.3587Y-5.3731
X6.3629Y-5.1647
X6.3689Y-5.0654
X6.4256Y-5.5074
X6.4334Y-4.8449
X6.4526Y-1.5991
X6.4906Y-5.7156
X6.5092Y-4.9872
X6.5096Y-5.3012
X6.5103Y-5.1177
X6.5103Y-5.511
X6.511Y-1.8848
X6.548Y-1.5996
X6.6225Y-1.8488
X6.6487Y-1.5986
X6.6505Y-1.6912
X6.7344Y-1.8471
X6.7446Y-1.5996
X6.7465Y-1.6919
X6.8361Y-1.5996
X6.8379Y-1.6888
X6.8954Y-1.8477
X6.9463Y-1.6895
X6.9485Y-1.5996
X7.0565Y-1.8484
X7.0738Y-1.6891
X7.1005Y-1.6185
X7.1122Y-1.7802
T2
X5.6083Y-4.9952
X5.6083Y-5.007
X5.6339Y-4.9952
X5.6339Y-5.007
X5.6595Y-4.9952
X5.6595Y-5.007
X5.6851Y-4.9952
X5.6851Y-5.007
X5.7107Y-4.9952
X5.7107Y-5.007
X5.7363Y-4.9952
X5.7363Y-5.007
X5.7618Y-4.9952
X5.7618Y-5.007
X5.7874Y-4.9952
X5.7874Y-5.007
X5.813Y-4.9952
X5.813Y-5.007
X5.8386Y-4.9952
X5.8386Y-5.007
X5.8642Y-4.9952
X5.8642Y-5.007
X5.8898Y-4.9952
X5.8898Y-5.007
X5.9154Y-4.9952
X5.9154Y-5.007
X5.941Y-4.9952
X5.941Y-5.007
X5.9666Y-4.9952
X5.9666Y-5.007
X5.9922Y-4.9952
X5.9922Y-5.007
X6.0177Y-4.9952
X6.0177Y-5.007
X6.0433Y-4.9952
X6.0433Y-5.007
X6.1841Y-5.1491
X6.1841Y-5.1747
X6.1841Y-5.2003
X6.1841Y-5.2259
X6.1841Y-5.2515
X6.1841Y-5.2771
X6.1841Y-5.3026
X6.1841Y-5.3282
X6.1841Y-5.3538
X6.1841Y-5.3794
X6.1841Y-5.405
X6.1841Y-5.4306
X6.1841Y-5.4562
X6.1841Y-5.4818
X6.1841Y-5.5074
X6.1959Y-5.1491
X6.1959Y-5.1747
X6.1959Y-5.2003
X6.1959Y-5.2259
X6.1959Y-5.2515
X6.1959Y-5.2771
X6.1959Y-5.3026
X6.1959Y-5.3282
X6.1959Y-5.3538
X6.1959Y-5.3794
X6.1959Y-5.405
X6.1959Y-5.4306
X6.1959Y-5.4562
X6.1959Y-5.4818
X6.1959Y-5.5074
T3
X4.6304Y-1.6408
X4.6304Y-1.7408
X4.7288Y-1.6408
X4.7288Y-1.7408
X4.8272Y-1.6408
X4.8272Y-1.7408
X4.9256Y-1.6408
X4.9256Y-1.7408
X5.0241Y-1.6408
X5.0241Y-1.7408
X5.1225Y-1.6408
X5.1225Y-1.7408
X5.2209Y-1.6408
X5.2209Y-1.7408
X5.3193Y-1.6408
X5.3193Y-1.7408
X5.4178Y-1.6408
X5.4178Y-1.7408
X5.5162Y-1.6408
X5.5162Y-1.7408
X5.6146Y-1.6408
X5.6146Y-1.7408
X5.713Y-1.6408
X5.713Y-1.7408
X5.8115Y-1.6408
X5.8115Y-1.7408
X5.9099Y-1.6408
X5.9099Y-1.7408
X6.0083Y-1.6408
X6.0083Y-1.7408
X6.1068Y-1.6408
X6.1068Y-1.7408
X6.2052Y-1.6408
X6.2052Y-1.7408
X6.3036Y-1.6408
X6.3036Y-1.7408
X6.402Y-1.6408
X6.402Y-1.7408
X6.5005Y-1.6408
X6.5005Y-1.7408
X6.5989Y-1.6408
X6.5989Y-1.7408
X6.6973Y-1.6408
X6.6973Y-1.7408
X6.7957Y-1.6408
X6.7957Y-1.7408
X6.8942Y-1.6408
X6.8942Y-1.7408
X6.9926Y-1.6408
X6.9926Y-1.7408
M30
