%TF.GenerationSoftware,KiCad,Pcbnew,8.99.0-409-g72d83cd5de*%
%TF.CreationDate,2024-05-03T23:53:59-05:00*%
%TF.ProjectId,RCP-FLEX,5243502d-464c-4455-982e-6b696361645f,rev?*%
%TF.SameCoordinates,Original*%
%TF.FileFunction,Legend,Bot*%
%TF.FilePolarity,Positive*%
%FSLAX46Y46*%
G04 Gerber Fmt 4.6, Leading zero omitted, Abs format (unit mm)*
G04 Created by KiCad (PCBNEW 8.99.0-409-g72d83cd5de) date 2024-05-03 23:53:59*
%MOMM*%
%LPD*%
G01*
G04 APERTURE LIST*
%ADD10C,0.150000*%
%ADD11C,0.120000*%
G04 APERTURE END LIST*
D10*
X163540874Y-47027114D02*
X164112302Y-47027114D01*
X163826588Y-47027114D02*
X163826588Y-46027114D01*
X163826588Y-46027114D02*
X163921826Y-46169971D01*
X163921826Y-46169971D02*
X164017064Y-46265209D01*
X164017064Y-46265209D02*
X164112302Y-46312828D01*
X163112302Y-46931875D02*
X163064683Y-46979495D01*
X163064683Y-46979495D02*
X163112302Y-47027114D01*
X163112302Y-47027114D02*
X163159921Y-46979495D01*
X163159921Y-46979495D02*
X163112302Y-46931875D01*
X163112302Y-46931875D02*
X163112302Y-47027114D01*
X162445636Y-46027114D02*
X162350398Y-46027114D01*
X162350398Y-46027114D02*
X162255160Y-46074733D01*
X162255160Y-46074733D02*
X162207541Y-46122352D01*
X162207541Y-46122352D02*
X162159922Y-46217590D01*
X162159922Y-46217590D02*
X162112303Y-46408066D01*
X162112303Y-46408066D02*
X162112303Y-46646161D01*
X162112303Y-46646161D02*
X162159922Y-46836637D01*
X162159922Y-46836637D02*
X162207541Y-46931875D01*
X162207541Y-46931875D02*
X162255160Y-46979495D01*
X162255160Y-46979495D02*
X162350398Y-47027114D01*
X162350398Y-47027114D02*
X162445636Y-47027114D01*
X162445636Y-47027114D02*
X162540874Y-46979495D01*
X162540874Y-46979495D02*
X162588493Y-46931875D01*
X162588493Y-46931875D02*
X162636112Y-46836637D01*
X162636112Y-46836637D02*
X162683731Y-46646161D01*
X162683731Y-46646161D02*
X162683731Y-46408066D01*
X162683731Y-46408066D02*
X162636112Y-46217590D01*
X162636112Y-46217590D02*
X162588493Y-46122352D01*
X162588493Y-46122352D02*
X162540874Y-46074733D01*
X162540874Y-46074733D02*
X162445636Y-46027114D01*
X161683731Y-47027114D02*
X161683731Y-46360447D01*
X161683731Y-46455685D02*
X161636112Y-46408066D01*
X161636112Y-46408066D02*
X161540874Y-46360447D01*
X161540874Y-46360447D02*
X161398017Y-46360447D01*
X161398017Y-46360447D02*
X161302779Y-46408066D01*
X161302779Y-46408066D02*
X161255160Y-46503304D01*
X161255160Y-46503304D02*
X161255160Y-47027114D01*
X161255160Y-46503304D02*
X161207541Y-46408066D01*
X161207541Y-46408066D02*
X161112303Y-46360447D01*
X161112303Y-46360447D02*
X160969446Y-46360447D01*
X160969446Y-46360447D02*
X160874207Y-46408066D01*
X160874207Y-46408066D02*
X160826588Y-46503304D01*
X160826588Y-46503304D02*
X160826588Y-47027114D01*
X160350398Y-47027114D02*
X160350398Y-46360447D01*
X160350398Y-46455685D02*
X160302779Y-46408066D01*
X160302779Y-46408066D02*
X160207541Y-46360447D01*
X160207541Y-46360447D02*
X160064684Y-46360447D01*
X160064684Y-46360447D02*
X159969446Y-46408066D01*
X159969446Y-46408066D02*
X159921827Y-46503304D01*
X159921827Y-46503304D02*
X159921827Y-47027114D01*
X159921827Y-46503304D02*
X159874208Y-46408066D01*
X159874208Y-46408066D02*
X159778970Y-46360447D01*
X159778970Y-46360447D02*
X159636113Y-46360447D01*
X159636113Y-46360447D02*
X159540874Y-46408066D01*
X159540874Y-46408066D02*
X159493255Y-46503304D01*
X159493255Y-46503304D02*
X159493255Y-47027114D01*
X157921827Y-46503304D02*
X158255160Y-46503304D01*
X158255160Y-47027114D02*
X158255160Y-46027114D01*
X158255160Y-46027114D02*
X157778970Y-46027114D01*
X156826589Y-47027114D02*
X157159922Y-46550923D01*
X157398017Y-47027114D02*
X157398017Y-46027114D01*
X157398017Y-46027114D02*
X157017065Y-46027114D01*
X157017065Y-46027114D02*
X156921827Y-46074733D01*
X156921827Y-46074733D02*
X156874208Y-46122352D01*
X156874208Y-46122352D02*
X156826589Y-46217590D01*
X156826589Y-46217590D02*
X156826589Y-46360447D01*
X156826589Y-46360447D02*
X156874208Y-46455685D01*
X156874208Y-46455685D02*
X156921827Y-46503304D01*
X156921827Y-46503304D02*
X157017065Y-46550923D01*
X157017065Y-46550923D02*
X157398017Y-46550923D01*
X155969446Y-46360447D02*
X155969446Y-47027114D01*
X156207541Y-45979495D02*
X156445636Y-46693780D01*
X156445636Y-46693780D02*
X155826589Y-46693780D01*
X154731350Y-46979495D02*
X154588493Y-47027114D01*
X154588493Y-47027114D02*
X154350398Y-47027114D01*
X154350398Y-47027114D02*
X154255160Y-46979495D01*
X154255160Y-46979495D02*
X154207541Y-46931875D01*
X154207541Y-46931875D02*
X154159922Y-46836637D01*
X154159922Y-46836637D02*
X154159922Y-46741399D01*
X154159922Y-46741399D02*
X154207541Y-46646161D01*
X154207541Y-46646161D02*
X154255160Y-46598542D01*
X154255160Y-46598542D02*
X154350398Y-46550923D01*
X154350398Y-46550923D02*
X154540874Y-46503304D01*
X154540874Y-46503304D02*
X154636112Y-46455685D01*
X154636112Y-46455685D02*
X154683731Y-46408066D01*
X154683731Y-46408066D02*
X154731350Y-46312828D01*
X154731350Y-46312828D02*
X154731350Y-46217590D01*
X154731350Y-46217590D02*
X154683731Y-46122352D01*
X154683731Y-46122352D02*
X154636112Y-46074733D01*
X154636112Y-46074733D02*
X154540874Y-46027114D01*
X154540874Y-46027114D02*
X154302779Y-46027114D01*
X154302779Y-46027114D02*
X154159922Y-46074733D01*
X153874207Y-46360447D02*
X153493255Y-46360447D01*
X153731350Y-46027114D02*
X153731350Y-46884256D01*
X153731350Y-46884256D02*
X153683731Y-46979495D01*
X153683731Y-46979495D02*
X153588493Y-47027114D01*
X153588493Y-47027114D02*
X153493255Y-47027114D01*
X153159921Y-47027114D02*
X153159921Y-46360447D01*
X153159921Y-46027114D02*
X153207540Y-46074733D01*
X153207540Y-46074733D02*
X153159921Y-46122352D01*
X153159921Y-46122352D02*
X153112302Y-46074733D01*
X153112302Y-46074733D02*
X153159921Y-46027114D01*
X153159921Y-46027114D02*
X153159921Y-46122352D01*
X152826588Y-46360447D02*
X152445636Y-46360447D01*
X152683731Y-47027114D02*
X152683731Y-46169971D01*
X152683731Y-46169971D02*
X152636112Y-46074733D01*
X152636112Y-46074733D02*
X152540874Y-46027114D01*
X152540874Y-46027114D02*
X152445636Y-46027114D01*
X152255159Y-46360447D02*
X151874207Y-46360447D01*
X152112302Y-47027114D02*
X152112302Y-46169971D01*
X152112302Y-46169971D02*
X152064683Y-46074733D01*
X152064683Y-46074733D02*
X151969445Y-46027114D01*
X151969445Y-46027114D02*
X151874207Y-46027114D01*
X151159921Y-46979495D02*
X151255159Y-47027114D01*
X151255159Y-47027114D02*
X151445635Y-47027114D01*
X151445635Y-47027114D02*
X151540873Y-46979495D01*
X151540873Y-46979495D02*
X151588492Y-46884256D01*
X151588492Y-46884256D02*
X151588492Y-46503304D01*
X151588492Y-46503304D02*
X151540873Y-46408066D01*
X151540873Y-46408066D02*
X151445635Y-46360447D01*
X151445635Y-46360447D02*
X151255159Y-46360447D01*
X151255159Y-46360447D02*
X151159921Y-46408066D01*
X151159921Y-46408066D02*
X151112302Y-46503304D01*
X151112302Y-46503304D02*
X151112302Y-46598542D01*
X151112302Y-46598542D02*
X151588492Y-46693780D01*
X150683730Y-46360447D02*
X150683730Y-47027114D01*
X150683730Y-46455685D02*
X150636111Y-46408066D01*
X150636111Y-46408066D02*
X150540873Y-46360447D01*
X150540873Y-46360447D02*
X150398016Y-46360447D01*
X150398016Y-46360447D02*
X150302778Y-46408066D01*
X150302778Y-46408066D02*
X150255159Y-46503304D01*
X150255159Y-46503304D02*
X150255159Y-47027114D01*
X149398016Y-46979495D02*
X149493254Y-47027114D01*
X149493254Y-47027114D02*
X149683730Y-47027114D01*
X149683730Y-47027114D02*
X149778968Y-46979495D01*
X149778968Y-46979495D02*
X149826587Y-46884256D01*
X149826587Y-46884256D02*
X149826587Y-46503304D01*
X149826587Y-46503304D02*
X149778968Y-46408066D01*
X149778968Y-46408066D02*
X149683730Y-46360447D01*
X149683730Y-46360447D02*
X149493254Y-46360447D01*
X149493254Y-46360447D02*
X149398016Y-46408066D01*
X149398016Y-46408066D02*
X149350397Y-46503304D01*
X149350397Y-46503304D02*
X149350397Y-46598542D01*
X149350397Y-46598542D02*
X149826587Y-46693780D01*
X148921825Y-47027114D02*
X148921825Y-46360447D01*
X148921825Y-46550923D02*
X148874206Y-46455685D01*
X148874206Y-46455685D02*
X148826587Y-46408066D01*
X148826587Y-46408066D02*
X148731349Y-46360447D01*
X148731349Y-46360447D02*
X148636111Y-46360447D01*
X147398015Y-47027114D02*
X147493253Y-46979495D01*
X147493253Y-46979495D02*
X147540872Y-46931875D01*
X147540872Y-46931875D02*
X147588491Y-46836637D01*
X147588491Y-46836637D02*
X147588491Y-46550923D01*
X147588491Y-46550923D02*
X147540872Y-46455685D01*
X147540872Y-46455685D02*
X147493253Y-46408066D01*
X147493253Y-46408066D02*
X147398015Y-46360447D01*
X147398015Y-46360447D02*
X147255158Y-46360447D01*
X147255158Y-46360447D02*
X147159920Y-46408066D01*
X147159920Y-46408066D02*
X147112301Y-46455685D01*
X147112301Y-46455685D02*
X147064682Y-46550923D01*
X147064682Y-46550923D02*
X147064682Y-46836637D01*
X147064682Y-46836637D02*
X147112301Y-46931875D01*
X147112301Y-46931875D02*
X147159920Y-46979495D01*
X147159920Y-46979495D02*
X147255158Y-47027114D01*
X147255158Y-47027114D02*
X147398015Y-47027114D01*
X146636110Y-46360447D02*
X146636110Y-47027114D01*
X146636110Y-46455685D02*
X146588491Y-46408066D01*
X146588491Y-46408066D02*
X146493253Y-46360447D01*
X146493253Y-46360447D02*
X146350396Y-46360447D01*
X146350396Y-46360447D02*
X146255158Y-46408066D01*
X146255158Y-46408066D02*
X146207539Y-46503304D01*
X146207539Y-46503304D02*
X146207539Y-47027114D01*
X145112300Y-46360447D02*
X144731348Y-46360447D01*
X144969443Y-46027114D02*
X144969443Y-46884256D01*
X144969443Y-46884256D02*
X144921824Y-46979495D01*
X144921824Y-46979495D02*
X144826586Y-47027114D01*
X144826586Y-47027114D02*
X144731348Y-47027114D01*
X144398014Y-47027114D02*
X144398014Y-46027114D01*
X143969443Y-47027114D02*
X143969443Y-46503304D01*
X143969443Y-46503304D02*
X144017062Y-46408066D01*
X144017062Y-46408066D02*
X144112300Y-46360447D01*
X144112300Y-46360447D02*
X144255157Y-46360447D01*
X144255157Y-46360447D02*
X144350395Y-46408066D01*
X144350395Y-46408066D02*
X144398014Y-46455685D01*
X143493252Y-47027114D02*
X143493252Y-46360447D01*
X143493252Y-46027114D02*
X143540871Y-46074733D01*
X143540871Y-46074733D02*
X143493252Y-46122352D01*
X143493252Y-46122352D02*
X143445633Y-46074733D01*
X143445633Y-46074733D02*
X143493252Y-46027114D01*
X143493252Y-46027114D02*
X143493252Y-46122352D01*
X143064681Y-46979495D02*
X142969443Y-47027114D01*
X142969443Y-47027114D02*
X142778967Y-47027114D01*
X142778967Y-47027114D02*
X142683729Y-46979495D01*
X142683729Y-46979495D02*
X142636110Y-46884256D01*
X142636110Y-46884256D02*
X142636110Y-46836637D01*
X142636110Y-46836637D02*
X142683729Y-46741399D01*
X142683729Y-46741399D02*
X142778967Y-46693780D01*
X142778967Y-46693780D02*
X142921824Y-46693780D01*
X142921824Y-46693780D02*
X143017062Y-46646161D01*
X143017062Y-46646161D02*
X143064681Y-46550923D01*
X143064681Y-46550923D02*
X143064681Y-46503304D01*
X143064681Y-46503304D02*
X143017062Y-46408066D01*
X143017062Y-46408066D02*
X142921824Y-46360447D01*
X142921824Y-46360447D02*
X142778967Y-46360447D01*
X142778967Y-46360447D02*
X142683729Y-46408066D01*
X141493252Y-46979495D02*
X141398014Y-47027114D01*
X141398014Y-47027114D02*
X141207538Y-47027114D01*
X141207538Y-47027114D02*
X141112300Y-46979495D01*
X141112300Y-46979495D02*
X141064681Y-46884256D01*
X141064681Y-46884256D02*
X141064681Y-46836637D01*
X141064681Y-46836637D02*
X141112300Y-46741399D01*
X141112300Y-46741399D02*
X141207538Y-46693780D01*
X141207538Y-46693780D02*
X141350395Y-46693780D01*
X141350395Y-46693780D02*
X141445633Y-46646161D01*
X141445633Y-46646161D02*
X141493252Y-46550923D01*
X141493252Y-46550923D02*
X141493252Y-46503304D01*
X141493252Y-46503304D02*
X141445633Y-46408066D01*
X141445633Y-46408066D02*
X141350395Y-46360447D01*
X141350395Y-46360447D02*
X141207538Y-46360447D01*
X141207538Y-46360447D02*
X141112300Y-46408066D01*
X140636109Y-47027114D02*
X140636109Y-46360447D01*
X140636109Y-46027114D02*
X140683728Y-46074733D01*
X140683728Y-46074733D02*
X140636109Y-46122352D01*
X140636109Y-46122352D02*
X140588490Y-46074733D01*
X140588490Y-46074733D02*
X140636109Y-46027114D01*
X140636109Y-46027114D02*
X140636109Y-46122352D01*
X139731348Y-47027114D02*
X139731348Y-46027114D01*
X139731348Y-46979495D02*
X139826586Y-47027114D01*
X139826586Y-47027114D02*
X140017062Y-47027114D01*
X140017062Y-47027114D02*
X140112300Y-46979495D01*
X140112300Y-46979495D02*
X140159919Y-46931875D01*
X140159919Y-46931875D02*
X140207538Y-46836637D01*
X140207538Y-46836637D02*
X140207538Y-46550923D01*
X140207538Y-46550923D02*
X140159919Y-46455685D01*
X140159919Y-46455685D02*
X140112300Y-46408066D01*
X140112300Y-46408066D02*
X140017062Y-46360447D01*
X140017062Y-46360447D02*
X139826586Y-46360447D01*
X139826586Y-46360447D02*
X139731348Y-46408066D01*
X138874205Y-46979495D02*
X138969443Y-47027114D01*
X138969443Y-47027114D02*
X139159919Y-47027114D01*
X139159919Y-47027114D02*
X139255157Y-46979495D01*
X139255157Y-46979495D02*
X139302776Y-46884256D01*
X139302776Y-46884256D02*
X139302776Y-46503304D01*
X139302776Y-46503304D02*
X139255157Y-46408066D01*
X139255157Y-46408066D02*
X139159919Y-46360447D01*
X139159919Y-46360447D02*
X138969443Y-46360447D01*
X138969443Y-46360447D02*
X138874205Y-46408066D01*
X138874205Y-46408066D02*
X138826586Y-46503304D01*
X138826586Y-46503304D02*
X138826586Y-46598542D01*
X138826586Y-46598542D02*
X139302776Y-46693780D01*
D11*
%TO.C,J1*%
X116111463Y-40927295D02*
X116111463Y-44927295D01*
X116861463Y-40177295D02*
X116111463Y-40927295D01*
X116861463Y-45677295D02*
X116111463Y-44927295D01*
X178361463Y-40177295D02*
X116861463Y-40177295D01*
X178361463Y-45677295D02*
X116861463Y-45677295D01*
X179111463Y-40927295D02*
X178361463Y-40177295D01*
X179111463Y-40927295D02*
X179111463Y-44927295D01*
X179111463Y-44927295D02*
X178361463Y-45677295D01*
%TD*%
M02*
