%TF.GenerationSoftware,KiCad,Pcbnew,8.99.0-409-g72d83cd5de*%
%TF.CreationDate,2024-05-03T23:53:59-05:00*%
%TF.ProjectId,RCP-FLEX,5243502d-464c-4455-982e-6b696361645f,rev?*%
%TF.SameCoordinates,Original*%
%TF.FileFunction,Legend,Top*%
%TF.FilePolarity,Positive*%
%FSLAX46Y46*%
G04 Gerber Fmt 4.6, Leading zero omitted, Abs format (unit mm)*
G04 Created by KiCad (PCBNEW 8.99.0-409-g72d83cd5de) date 2024-05-03 23:53:59*
%MOMM*%
%LPD*%
G01*
G04 APERTURE LIST*
%ADD10C,0.150000*%
%ADD11C,0.305868*%
%ADD12C,0.100000*%
%ADD13C,0.120000*%
G04 APERTURE END LIST*
D10*
X160450000Y-136910000D02*
X165070000Y-136910000D01*
X165070000Y-139120000D01*
X160450000Y-139120000D01*
X160450000Y-136910000D01*
X163485828Y-140577295D02*
X163585828Y-140577295D01*
X161485828Y-144077295D02*
X158785828Y-144077295D01*
X163590000Y-140600000D02*
X163590000Y-142600000D01*
X158085828Y-144077295D02*
X158085828Y-140577295D01*
X163585828Y-142677295D02*
X163585828Y-142777295D01*
D11*
X116294397Y-40727295D02*
G75*
G02*
X115988529Y-40727295I-152934J0D01*
G01*
X115988529Y-40727295D02*
G75*
G02*
X116294397Y-40727295I152934J0D01*
G01*
D10*
X158085828Y-140577295D02*
X163485828Y-140577295D01*
X163585828Y-142577295D02*
X163585828Y-142677295D01*
X161485828Y-142777295D02*
X161485828Y-144077295D01*
X163585828Y-142777295D02*
X161485828Y-142777295D01*
X158785828Y-144077295D02*
X158085828Y-144077295D01*
D12*
X162681537Y-144220095D02*
X162767252Y-144248666D01*
X162767252Y-144248666D02*
X162910109Y-144248666D01*
X162910109Y-144248666D02*
X162967252Y-144220095D01*
X162967252Y-144220095D02*
X162995823Y-144191523D01*
X162995823Y-144191523D02*
X163024394Y-144134380D01*
X163024394Y-144134380D02*
X163024394Y-144077237D01*
X163024394Y-144077237D02*
X162995823Y-144020095D01*
X162995823Y-144020095D02*
X162967252Y-143991523D01*
X162967252Y-143991523D02*
X162910109Y-143962952D01*
X162910109Y-143962952D02*
X162795823Y-143934380D01*
X162795823Y-143934380D02*
X162738680Y-143905809D01*
X162738680Y-143905809D02*
X162710109Y-143877237D01*
X162710109Y-143877237D02*
X162681537Y-143820095D01*
X162681537Y-143820095D02*
X162681537Y-143762952D01*
X162681537Y-143762952D02*
X162710109Y-143705809D01*
X162710109Y-143705809D02*
X162738680Y-143677237D01*
X162738680Y-143677237D02*
X162795823Y-143648666D01*
X162795823Y-143648666D02*
X162938680Y-143648666D01*
X162938680Y-143648666D02*
X163024394Y-143677237D01*
X162462966Y-138141371D02*
X162862966Y-138141371D01*
X162862966Y-138141371D02*
X162605823Y-138741371D01*
X161434394Y-138698666D02*
X161091537Y-138698666D01*
X161262966Y-138698666D02*
X161262966Y-138098666D01*
X161262966Y-138098666D02*
X161205823Y-138184380D01*
X161205823Y-138184380D02*
X161148680Y-138241523D01*
X161148680Y-138241523D02*
X161091537Y-138270095D01*
X161405823Y-137148666D02*
X161120109Y-137148666D01*
X161120109Y-137148666D02*
X161091537Y-137434380D01*
X161091537Y-137434380D02*
X161120109Y-137405809D01*
X161120109Y-137405809D02*
X161177252Y-137377237D01*
X161177252Y-137377237D02*
X161320109Y-137377237D01*
X161320109Y-137377237D02*
X161377252Y-137405809D01*
X161377252Y-137405809D02*
X161405823Y-137434380D01*
X161405823Y-137434380D02*
X161434394Y-137491523D01*
X161434394Y-137491523D02*
X161434394Y-137634380D01*
X161434394Y-137634380D02*
X161405823Y-137691523D01*
X161405823Y-137691523D02*
X161377252Y-137720095D01*
X161377252Y-137720095D02*
X161320109Y-137748666D01*
X161320109Y-137748666D02*
X161177252Y-137748666D01*
X161177252Y-137748666D02*
X161120109Y-137720095D01*
X161120109Y-137720095D02*
X161091537Y-137691523D01*
X164105823Y-137198666D02*
X163820109Y-137198666D01*
X163820109Y-137198666D02*
X163791537Y-137484380D01*
X163791537Y-137484380D02*
X163820109Y-137455809D01*
X163820109Y-137455809D02*
X163877252Y-137427237D01*
X163877252Y-137427237D02*
X164020109Y-137427237D01*
X164020109Y-137427237D02*
X164077252Y-137455809D01*
X164077252Y-137455809D02*
X164105823Y-137484380D01*
X164105823Y-137484380D02*
X164134394Y-137541523D01*
X164134394Y-137541523D02*
X164134394Y-137684380D01*
X164134394Y-137684380D02*
X164105823Y-137741523D01*
X164105823Y-137741523D02*
X164077252Y-137770095D01*
X164077252Y-137770095D02*
X164020109Y-137798666D01*
X164020109Y-137798666D02*
X163877252Y-137798666D01*
X163877252Y-137798666D02*
X163820109Y-137770095D01*
X163820109Y-137770095D02*
X163791537Y-137741523D01*
X164334395Y-137198666D02*
X164734395Y-137198666D01*
X164734395Y-137198666D02*
X164477252Y-137798666D01*
D10*
X160022607Y-140347114D02*
X160022607Y-139347114D01*
X160022607Y-139347114D02*
X160403559Y-139347114D01*
X160403559Y-139347114D02*
X160498797Y-139394733D01*
X160498797Y-139394733D02*
X160546416Y-139442352D01*
X160546416Y-139442352D02*
X160594035Y-139537590D01*
X160594035Y-139537590D02*
X160594035Y-139680447D01*
X160594035Y-139680447D02*
X160546416Y-139775685D01*
X160546416Y-139775685D02*
X160498797Y-139823304D01*
X160498797Y-139823304D02*
X160403559Y-139870923D01*
X160403559Y-139870923D02*
X160022607Y-139870923D01*
X161022607Y-140347114D02*
X161022607Y-139347114D01*
X161832130Y-139823304D02*
X161498797Y-139823304D01*
X161498797Y-140347114D02*
X161498797Y-139347114D01*
X161498797Y-139347114D02*
X161974987Y-139347114D01*
D12*
X158891537Y-145055809D02*
X158920109Y-145027237D01*
X158920109Y-145027237D02*
X158977252Y-144998666D01*
X158977252Y-144998666D02*
X159120109Y-144998666D01*
X159120109Y-144998666D02*
X159177252Y-145027237D01*
X159177252Y-145027237D02*
X159205823Y-145055809D01*
X159205823Y-145055809D02*
X159234394Y-145112952D01*
X159234394Y-145112952D02*
X159234394Y-145170095D01*
X159234394Y-145170095D02*
X159205823Y-145255809D01*
X159205823Y-145255809D02*
X158862966Y-145598666D01*
X158862966Y-145598666D02*
X159234394Y-145598666D01*
X159434395Y-144998666D02*
X159805823Y-144998666D01*
X159805823Y-144998666D02*
X159605823Y-145227237D01*
X159605823Y-145227237D02*
X159691538Y-145227237D01*
X159691538Y-145227237D02*
X159748681Y-145255809D01*
X159748681Y-145255809D02*
X159777252Y-145284380D01*
X159777252Y-145284380D02*
X159805823Y-145341523D01*
X159805823Y-145341523D02*
X159805823Y-145484380D01*
X159805823Y-145484380D02*
X159777252Y-145541523D01*
X159777252Y-145541523D02*
X159748681Y-145570095D01*
X159748681Y-145570095D02*
X159691538Y-145598666D01*
X159691538Y-145598666D02*
X159520109Y-145598666D01*
X159520109Y-145598666D02*
X159462966Y-145570095D01*
X159462966Y-145570095D02*
X159434395Y-145541523D01*
X162531503Y-137161371D02*
X162902931Y-137161371D01*
X162902931Y-137161371D02*
X162702931Y-137389942D01*
X162702931Y-137389942D02*
X162788646Y-137389942D01*
X162788646Y-137389942D02*
X162845789Y-137418514D01*
X162845789Y-137418514D02*
X162874360Y-137447085D01*
X162874360Y-137447085D02*
X162902931Y-137504228D01*
X162902931Y-137504228D02*
X162902931Y-137647085D01*
X162902931Y-137647085D02*
X162874360Y-137704228D01*
X162874360Y-137704228D02*
X162845789Y-137732800D01*
X162845789Y-137732800D02*
X162788646Y-137761371D01*
X162788646Y-137761371D02*
X162617217Y-137761371D01*
X162617217Y-137761371D02*
X162560074Y-137732800D01*
X162560074Y-137732800D02*
X162531503Y-137704228D01*
D13*
%TO.C,TP38*%
X161511463Y-145327295D02*
G75*
G02*
X160111463Y-145327295I-700000J0D01*
G01*
X160111463Y-145327295D02*
G75*
G02*
X161511463Y-145327295I700000J0D01*
G01*
%TO.C,TP37*%
X161511463Y-143427295D02*
G75*
G02*
X160111463Y-143427295I-700000J0D01*
G01*
X160111463Y-143427295D02*
G75*
G02*
X161511463Y-143427295I700000J0D01*
G01*
%TO.C,TP34*%
X159511463Y-143362295D02*
G75*
G02*
X158111463Y-143362295I-700000J0D01*
G01*
X158111463Y-143362295D02*
G75*
G02*
X159511463Y-143362295I700000J0D01*
G01*
%TO.C,TP35*%
X161536463Y-141350495D02*
G75*
G02*
X160136463Y-141350495I-700000J0D01*
G01*
X160136463Y-141350495D02*
G75*
G02*
X161536463Y-141350495I700000J0D01*
G01*
%TO.C,TP40*%
X163485828Y-145377295D02*
G75*
G02*
X162085828Y-145377295I-700000J0D01*
G01*
X162085828Y-145377295D02*
G75*
G02*
X163485828Y-145377295I700000J0D01*
G01*
%TO.C,TP39*%
X163611463Y-141327295D02*
G75*
G02*
X162211463Y-141327295I-700000J0D01*
G01*
X162211463Y-141327295D02*
G75*
G02*
X163611463Y-141327295I700000J0D01*
G01*
%TO.C,TP36*%
X159511463Y-141330295D02*
G75*
G02*
X158111463Y-141330295I-700000J0D01*
G01*
X158111463Y-141330295D02*
G75*
G02*
X159511463Y-141330295I700000J0D01*
G01*
%TD*%
M02*
