%TF.GenerationSoftware,KiCad,Pcbnew,8.99.0-409-g72d83cd5de*%
%TF.CreationDate,2024-05-03T23:53:59-05:00*%
%TF.ProjectId,RCP-FLEX,5243502d-464c-4455-982e-6b696361645f,rev?*%
%TF.SameCoordinates,Original*%
%TF.FileFunction,Copper,L4,Bot*%
%TF.FilePolarity,Positive*%
%FSLAX46Y46*%
G04 Gerber Fmt 4.6, Leading zero omitted, Abs format (unit mm)*
G04 Created by KiCad (PCBNEW 8.99.0-409-g72d83cd5de) date 2024-05-03 23:53:59*
%MOMM*%
%LPD*%
G01*
G04 APERTURE LIST*
G04 Aperture macros list*
%AMRoundRect*
0 Rectangle with rounded corners*
0 $1 Rounding radius*
0 $2 $3 $4 $5 $6 $7 $8 $9 X,Y pos of 4 corners*
0 Add a 4 corners polygon primitive as box body*
4,1,4,$2,$3,$4,$5,$6,$7,$8,$9,$2,$3,0*
0 Add four circle primitives for the rounded corners*
1,1,$1+$1,$2,$3*
1,1,$1+$1,$4,$5*
1,1,$1+$1,$6,$7*
1,1,$1+$1,$8,$9*
0 Add four rect primitives between the rounded corners*
20,1,$1+$1,$2,$3,$4,$5,0*
20,1,$1+$1,$4,$5,$6,$7,0*
20,1,$1+$1,$6,$7,$8,$9,0*
20,1,$1+$1,$8,$9,$2,$3,0*%
G04 Aperture macros list end*
%TA.AperFunction,ComponentPad*%
%ADD10O,0.400000X0.400000*%
%TD*%
%TA.AperFunction,ComponentPad*%
%ADD11O,0.400000X1.000000*%
%TD*%
%TA.AperFunction,ComponentPad*%
%ADD12O,1.000000X0.400000*%
%TD*%
%TA.AperFunction,ComponentPad*%
%ADD13RoundRect,0.250000X-0.600000X0.600000X-0.600000X-0.600000X0.600000X-0.600000X0.600000X0.600000X0*%
%TD*%
%TA.AperFunction,ComponentPad*%
%ADD14C,1.700000*%
%TD*%
%TA.AperFunction,ViaPad*%
%ADD15C,0.400000*%
%TD*%
%TA.AperFunction,Conductor*%
%ADD16C,0.400000*%
%TD*%
%TA.AperFunction,Conductor*%
%ADD17C,0.100000*%
%TD*%
%TA.AperFunction,Conductor*%
%ADD18C,0.200000*%
%TD*%
%TA.AperFunction,Conductor*%
%ADD19C,0.250000*%
%TD*%
G04 APERTURE END LIST*
D10*
%TO.P,TP2,1,1*%
%TO.N,RCP-57*%
X143100828Y-126877295D03*
D11*
X143100828Y-127177295D03*
%TD*%
D10*
%TO.P,TP9,1,1*%
%TO.N,RCP-50*%
X147650828Y-126877295D03*
D11*
X147650828Y-127177295D03*
%TD*%
D10*
%TO.P,TP31,1,1*%
%TO.N,GND*%
X157375828Y-138587295D03*
D12*
X157075828Y-138587295D03*
%TD*%
D10*
%TO.P,TP5,1,1*%
%TO.N,RCP-54*%
X145050828Y-126877295D03*
D11*
X145050828Y-127177295D03*
%TD*%
D10*
%TO.P,TP24,1,1*%
%TO.N,RCP-35*%
X157375828Y-134037295D03*
D12*
X157075828Y-134037295D03*
%TD*%
D10*
%TO.P,TP1,1,1*%
%TO.N,RCP-58*%
X142450828Y-126877295D03*
D11*
X142450828Y-127177295D03*
%TD*%
D10*
%TO.P,TP6,1,1*%
%TO.N,RCP-53*%
X145700828Y-126877295D03*
D11*
X145700828Y-127177295D03*
%TD*%
D10*
%TO.P,TP23,1,1*%
%TO.N,GND*%
X157375828Y-133387295D03*
D12*
X157075828Y-133387295D03*
%TD*%
D10*
%TO.P,TP14,1,1*%
%TO.N,RCP-45*%
X150900828Y-126877295D03*
D11*
X150900828Y-127177295D03*
%TD*%
D10*
%TO.P,TP11,1,1*%
%TO.N,GND*%
X148950828Y-126877295D03*
D11*
X148950828Y-127177295D03*
%TD*%
D10*
%TO.P,TP18,1,1*%
%TO.N,RCP-41*%
X153500828Y-126877295D03*
D11*
X153500828Y-127177295D03*
%TD*%
D10*
%TO.P,TP17,1,1*%
%TO.N,GND*%
X152850828Y-126877295D03*
D11*
X152850828Y-127177295D03*
%TD*%
D10*
%TO.P,TP4,1,1*%
%TO.N,GND*%
X144400828Y-126877295D03*
D11*
X144400828Y-127177295D03*
%TD*%
D10*
%TO.P,TP10,1,1*%
%TO.N,+3.3V*%
X148300828Y-126877295D03*
D11*
X148300828Y-127177295D03*
%TD*%
D10*
%TO.P,TP29,1,1*%
%TO.N,GND*%
X157375828Y-137287295D03*
D12*
X157075828Y-137287295D03*
%TD*%
D10*
%TO.P,TP27,1,1*%
%TO.N,RCP-32*%
X157375828Y-135987295D03*
D12*
X157075828Y-135987295D03*
%TD*%
D10*
%TO.P,TP15,1,1*%
%TO.N,RCP-44*%
X151550828Y-126877295D03*
D11*
X151550828Y-127177295D03*
%TD*%
D10*
%TO.P,TP12,1,1*%
%TO.N,RCP-47*%
X149600828Y-126877295D03*
D11*
X149600828Y-127177295D03*
%TD*%
D10*
%TO.P,TP7,1,1*%
%TO.N,RCP-52*%
X146350828Y-126877295D03*
D11*
X146350828Y-127177295D03*
%TD*%
D10*
%TO.P,TP8,1,1*%
%TO.N,RCP-51*%
X147000828Y-126877295D03*
D11*
X147000828Y-127177295D03*
%TD*%
D10*
%TO.P,TP16,1,1*%
%TO.N,+3.3V*%
X152200828Y-126877295D03*
D11*
X152200828Y-127177295D03*
%TD*%
D10*
%TO.P,TP20,1,1*%
%TO.N,RCP-39*%
X157375828Y-131437295D03*
D12*
X157075828Y-131437295D03*
%TD*%
D10*
%TO.P,TP25,1,1*%
%TO.N,RCP-34*%
X157375828Y-134687295D03*
D12*
X157075828Y-134687295D03*
%TD*%
D10*
%TO.P,TP21,1,1*%
%TO.N,RCP-38*%
X157375828Y-132087295D03*
D12*
X157075828Y-132087295D03*
%TD*%
D10*
%TO.P,TP22,1,1*%
%TO.N,+3.3V*%
X157375828Y-132737295D03*
D12*
X157075828Y-132737295D03*
%TD*%
D10*
%TO.P,TP3,1,1*%
%TO.N,+3.3V*%
X143750828Y-126877295D03*
D11*
X143750828Y-127177295D03*
%TD*%
D10*
%TO.P,TP30,1,1*%
%TO.N,+3.3V*%
X157375828Y-137937295D03*
D12*
X157075828Y-137937295D03*
%TD*%
D10*
%TO.P,TP19,1,1*%
%TO.N,RCP-40*%
X157375828Y-130787295D03*
D12*
X157075828Y-130787295D03*
%TD*%
D10*
%TO.P,TP33,1,1*%
%TO.N,RCP-26*%
X157375828Y-139887295D03*
D12*
X157075828Y-139887295D03*
%TD*%
D10*
%TO.P,TP28,1,1*%
%TO.N,RCP-31*%
X157375828Y-136637295D03*
D12*
X157075828Y-136637295D03*
%TD*%
D10*
%TO.P,TP26,1,1*%
%TO.N,RCP-33*%
X157375828Y-135337295D03*
D12*
X157075828Y-135337295D03*
%TD*%
D10*
%TO.P,TP32,1,1*%
%TO.N,+3.3V*%
X157375828Y-139237295D03*
D12*
X157075828Y-139237295D03*
%TD*%
D10*
%TO.P,TP13,1,1*%
%TO.N,RCP-46*%
X150250828Y-126877295D03*
D11*
X150250828Y-127177295D03*
%TD*%
D13*
%TO.P,J1,1,Pin_1*%
%TO.N,GND*%
X117611463Y-41677295D03*
D14*
%TO.P,J1,2,Pin_2*%
X117611463Y-44217295D03*
%TO.P,J1,3,Pin_3*%
X120111463Y-41677295D03*
%TO.P,J1,4,Pin_4*%
X120111463Y-44217295D03*
%TO.P,J1,5,Pin_5*%
%TO.N,RCP-58*%
X122611463Y-41677295D03*
%TO.P,J1,6,Pin_6*%
%TO.N,RCP-57*%
X122611463Y-44217295D03*
%TO.P,J1,7,Pin_7*%
%TO.N,RCP-54*%
X125111463Y-41677295D03*
%TO.P,J1,8,Pin_8*%
%TO.N,RCP-53*%
X125111463Y-44217295D03*
%TO.P,J1,9,Pin_9*%
%TO.N,RCP-52*%
X127611463Y-41677295D03*
%TO.P,J1,10,Pin_10*%
%TO.N,RCP-51*%
X127611463Y-44217295D03*
%TO.P,J1,11,Pin_11*%
%TO.N,GND*%
X130111463Y-41677295D03*
%TO.P,J1,12,Pin_12*%
X130111463Y-44217295D03*
%TO.P,J1,13,Pin_13*%
%TO.N,RCP-50*%
X132611463Y-41677295D03*
%TO.P,J1,14,Pin_14*%
%TO.N,RCP-47*%
X132611463Y-44217295D03*
%TO.P,J1,15,Pin_15*%
%TO.N,RCP-46*%
X135111463Y-41677295D03*
%TO.P,J1,16,Pin_16*%
%TO.N,RCP-45*%
X135111463Y-44217295D03*
%TO.P,J1,17,Pin_17*%
%TO.N,+3.3V*%
X137611463Y-41677295D03*
%TO.P,J1,18,Pin_18*%
X137611463Y-44217295D03*
%TO.P,J1,19,Pin_19*%
%TO.N,RCP-44*%
X140111463Y-41677295D03*
%TO.P,J1,20,Pin_20*%
%TO.N,RCP-41*%
X140111463Y-44217295D03*
%TO.P,J1,21,Pin_21*%
%TO.N,RCP-40*%
X142611463Y-41677295D03*
%TO.P,J1,22,Pin_22*%
%TO.N,RCP-39*%
X142611463Y-44217295D03*
%TO.P,J1,23,Pin_23*%
%TO.N,RCP-38*%
X145111463Y-41677295D03*
%TO.P,J1,24,Pin_24*%
%TO.N,RCP-35*%
X145111463Y-44217295D03*
%TO.P,J1,25,Pin_25*%
%TO.N,unconnected-(J1-Pin_25-Pad25)*%
X147611463Y-41677295D03*
%TO.P,J1,26,Pin_26*%
%TO.N,unconnected-(J1-Pin_26-Pad26)*%
X147611463Y-44217295D03*
%TO.P,J1,27,Pin_27*%
%TO.N,unconnected-(J1-Pin_27-Pad27)*%
X150111463Y-41677295D03*
%TO.P,J1,28,Pin_28*%
%TO.N,unconnected-(J1-Pin_28-Pad28)*%
X150111463Y-44217295D03*
%TO.P,J1,29,Pin_29*%
%TO.N,RCP-34*%
X152611463Y-41677295D03*
%TO.P,J1,30,Pin_30*%
%TO.N,RCP-33*%
X152611463Y-44217295D03*
%TO.P,J1,31,Pin_31*%
%TO.N,RCP-32*%
X155111463Y-41677295D03*
%TO.P,J1,32,Pin_32*%
%TO.N,RCP-31*%
X155111463Y-44217295D03*
%TO.P,J1,33,Pin_33*%
%TO.N,+3.3V*%
X157611463Y-41677295D03*
%TO.P,J1,34,Pin_34*%
X157611463Y-44217295D03*
%TO.P,J1,35,Pin_35*%
%TO.N,PIF-5*%
X160111463Y-41677295D03*
%TO.P,J1,36,Pin_36*%
%TO.N,PIF-3*%
X160111463Y-44217295D03*
%TO.P,J1,37,Pin_37*%
%TO.N,PIF-1*%
X162611463Y-41677295D03*
%TO.P,J1,38,Pin_38*%
%TO.N,CPU-57*%
X162611463Y-44217295D03*
%TO.P,J1,39,Pin_39*%
%TO.N,RCP-26*%
X165111463Y-41677295D03*
%TO.P,J1,40,Pin_40*%
%TO.N,PIF-7*%
X165111463Y-44217295D03*
%TO.P,J1,41,Pin_41*%
%TO.N,PIF-23*%
X167611463Y-41677295D03*
%TO.P,J1,42,Pin_42*%
%TO.N,SYNC*%
X167611463Y-44217295D03*
%TO.P,J1,43,Pin_43*%
%TO.N,GND*%
X170111463Y-41677295D03*
%TO.P,J1,44,Pin_44*%
X170111463Y-44217295D03*
%TO.P,J1,45,Pin_45*%
X172611463Y-41677295D03*
%TO.P,J1,46,Pin_46*%
X172611463Y-44217295D03*
%TO.P,J1,47,Pin_47*%
%TO.N,unconnected-(J1-Pin_47-Pad47)*%
X175111463Y-41677295D03*
%TO.P,J1,48,Pin_48*%
%TO.N,unconnected-(J1-Pin_48-Pad48)*%
X175111463Y-44217295D03*
%TO.P,J1,49,Pin_49*%
%TO.N,GND*%
X177611463Y-41677295D03*
%TO.P,J1,50,Pin_50*%
X177611463Y-44217295D03*
%TD*%
D15*
%TO.N,GND*%
X165333953Y-126673892D03*
X157995493Y-137265952D03*
X150580000Y-80050000D03*
X158361463Y-89177295D03*
X150584613Y-113559366D03*
X148545261Y-69846993D03*
X179234246Y-46950424D03*
X121209923Y-40678562D03*
X156483614Y-47053407D03*
X157710000Y-122220000D03*
X176490982Y-40630091D03*
X155252458Y-48346743D03*
X150546506Y-47677295D03*
X173683019Y-42894774D03*
X171052565Y-46915234D03*
X146120000Y-80020000D03*
X154708832Y-115897665D03*
X180650645Y-45217315D03*
X158359058Y-115860741D03*
X158048685Y-138585111D03*
X158361463Y-98927295D03*
X168877199Y-40605370D03*
X152590000Y-110030000D03*
X168210970Y-46959222D03*
X133802497Y-40586571D03*
X159985875Y-138618382D03*
X148477443Y-116547716D03*
X159111463Y-127927295D03*
X161128977Y-47900555D03*
X120355211Y-47552083D03*
X146130000Y-122200000D03*
X148067480Y-47283160D03*
X152542416Y-100056482D03*
X171312127Y-40630091D03*
X148500000Y-60040000D03*
X171360478Y-42973951D03*
X118801105Y-42950952D03*
X151739548Y-122600183D03*
X130120378Y-46071400D03*
X126432979Y-40607013D03*
X154687061Y-90098769D03*
X168923568Y-42956356D03*
X160211463Y-135977295D03*
X175143406Y-46932829D03*
X114199974Y-41506980D03*
X154676175Y-60130685D03*
X164861463Y-145177295D03*
X148666402Y-126117386D03*
X154722757Y-69672411D03*
X115827502Y-43110034D03*
X146120000Y-99990000D03*
X161770000Y-128660000D03*
X180351530Y-41108880D03*
X165378173Y-47874162D03*
X153630000Y-122000000D03*
X150570000Y-122370000D03*
X152211463Y-123177295D03*
X146120000Y-110030000D03*
X148580000Y-100040000D03*
X158361463Y-69677295D03*
X150580000Y-100040000D03*
X154687061Y-80138436D03*
X152520345Y-69712699D03*
X146154839Y-69860422D03*
X152541212Y-80086181D03*
X161511463Y-136477295D03*
X163896105Y-40617730D03*
X115913161Y-47454187D03*
X161617745Y-131183464D03*
X146150000Y-60040000D03*
X155463533Y-120274987D03*
X158361463Y-60030000D03*
X148530000Y-122260000D03*
X148530000Y-90010000D03*
X144394661Y-126156760D03*
X165361463Y-129990000D03*
X154708832Y-110095635D03*
X158328680Y-53842973D03*
X179674122Y-42903571D03*
X150550000Y-60040000D03*
X131277849Y-40607013D03*
X152344024Y-126083087D03*
X163407752Y-123060905D03*
X146120000Y-90010000D03*
X154719718Y-100080873D03*
X176436639Y-42912369D03*
X148530000Y-80020000D03*
X161470669Y-134922821D03*
X152600000Y-60070000D03*
X154211463Y-125827295D03*
X152529713Y-47309323D03*
X158361463Y-110177295D03*
X160404184Y-125193873D03*
X156299421Y-124641848D03*
X158361463Y-80040000D03*
X118238201Y-46132585D03*
X128916742Y-40607013D03*
X128945621Y-42963189D03*
X152541043Y-90052665D03*
X165361463Y-139980000D03*
X157946841Y-133387140D03*
X166318672Y-40630091D03*
X173635813Y-40630091D03*
X150570938Y-118897142D03*
X160861463Y-120427295D03*
X150540000Y-110070000D03*
X165344836Y-134650759D03*
X161461185Y-40566128D03*
X123867447Y-40678562D03*
X158419815Y-104894092D03*
X148490000Y-110070000D03*
X145623776Y-48255864D03*
X159011463Y-49827295D03*
X114322344Y-45190332D03*
X150610000Y-90040000D03*
X150599950Y-69752987D03*
%TO.N,RCP-26*%
X163211463Y-139887295D03*
%TO.N,+3.3V*%
X144710000Y-110020000D03*
X144106612Y-48747357D03*
X144690000Y-60010000D03*
X144690000Y-80010000D03*
X144690000Y-90000000D03*
X144690000Y-99970000D03*
X144770000Y-122800000D03*
%TD*%
D16*
%TO.N,GND*%
X148666402Y-126117386D02*
X148950856Y-126401840D01*
X144394661Y-126156760D02*
X144394661Y-126819999D01*
X157427986Y-138585111D02*
X157427986Y-138587245D01*
X158048685Y-138585111D02*
X157427986Y-138585111D01*
X157995493Y-137265952D02*
X157974150Y-137287295D01*
X144394661Y-126819999D02*
X144400857Y-126820002D01*
X148950856Y-126401840D02*
X148950856Y-126822325D01*
X157946841Y-133387140D02*
X157427252Y-133387140D01*
X152850855Y-126589918D02*
X152850855Y-126824317D01*
X159111463Y-127927295D02*
X159611463Y-127927295D01*
X157974150Y-137287295D02*
X157427803Y-137287295D01*
X152344024Y-126083087D02*
X152850855Y-126589918D01*
D17*
%TO.N,RCP-26*%
X163211463Y-139887295D02*
X157375828Y-139887295D01*
D18*
%TO.N,+3.3V*%
X143750828Y-127177295D02*
X143750828Y-126820188D01*
X157075828Y-137937295D02*
X157432935Y-137937295D01*
D19*
X143750828Y-127177295D02*
X143750828Y-126784833D01*
%TD*%
%TA.AperFunction,Conductor*%
%TO.N,GND*%
G36*
X180976570Y-40280196D02*
G01*
X181006604Y-40280195D01*
X181016303Y-40280670D01*
X181167037Y-40295511D01*
X181186061Y-40299294D01*
X181326321Y-40341838D01*
X181344248Y-40349264D01*
X181473513Y-40418353D01*
X181489648Y-40429133D01*
X181589839Y-40511354D01*
X181602942Y-40522107D01*
X181616665Y-40535829D01*
X181709650Y-40649127D01*
X181720430Y-40665261D01*
X181789521Y-40794515D01*
X181796949Y-40812446D01*
X181839497Y-40952702D01*
X181843283Y-40971737D01*
X181858086Y-41122026D01*
X181858563Y-41131730D01*
X181858563Y-47404529D01*
X181857339Y-47420048D01*
X181834269Y-47565403D01*
X181829778Y-47583034D01*
X181780244Y-47722423D01*
X181772602Y-47738935D01*
X181698396Y-47866904D01*
X181687861Y-47881739D01*
X181591487Y-47993969D01*
X181578415Y-48006625D01*
X181463129Y-48099323D01*
X181447968Y-48109368D01*
X181335958Y-48169572D01*
X181317667Y-48179403D01*
X181300917Y-48186507D01*
X181160002Y-48231511D01*
X181142234Y-48235431D01*
X180993567Y-48254124D01*
X180981221Y-48254897D01*
X161769854Y-48255852D01*
X161760000Y-48255852D01*
X161759986Y-48255852D01*
X161720262Y-48255854D01*
X161719915Y-48255888D01*
X161607628Y-48255901D01*
X161607623Y-48255901D01*
X161305108Y-48292707D01*
X161305100Y-48292709D01*
X161009249Y-48365779D01*
X161009248Y-48365779D01*
X160724379Y-48474047D01*
X160724377Y-48474048D01*
X160454679Y-48615923D01*
X160204072Y-48789344D01*
X159976253Y-48991755D01*
X159774547Y-49220199D01*
X159774546Y-49220200D01*
X159601909Y-49471327D01*
X159601901Y-49471340D01*
X159460861Y-49741473D01*
X159353472Y-50026677D01*
X159353472Y-50026678D01*
X159281314Y-50322757D01*
X159245444Y-50625389D01*
X159245895Y-50777430D01*
X159245895Y-118040676D01*
X159269171Y-118096872D01*
X165878932Y-124706632D01*
X165906709Y-124761149D01*
X165907928Y-124776636D01*
X165907928Y-146483395D01*
X165889021Y-146541586D01*
X165839521Y-146577550D01*
X165808928Y-146582395D01*
X159421769Y-146582395D01*
X159363578Y-146563488D01*
X159351765Y-146553399D01*
X157746748Y-144948381D01*
X157718971Y-144893864D01*
X157717752Y-144878362D01*
X157718717Y-140828118D01*
X157718728Y-140828023D01*
X157718728Y-140786301D01*
X157718728Y-140786294D01*
X157718735Y-140756918D01*
X157718732Y-140756912D01*
X157718728Y-140756889D01*
X157718728Y-140756882D01*
X157706849Y-140728204D01*
X157695471Y-140700715D01*
X157695468Y-140700712D01*
X157695468Y-140700711D01*
X157695451Y-140700685D01*
X157673882Y-140679115D01*
X157673882Y-140679114D01*
X157673866Y-140679100D01*
X157646460Y-140651681D01*
X157646383Y-140651616D01*
X157437013Y-140442246D01*
X157409236Y-140387729D01*
X157418807Y-140327297D01*
X157462072Y-140284032D01*
X157491525Y-140274462D01*
X157501132Y-140272941D01*
X157510866Y-140267980D01*
X157530199Y-140260560D01*
X157530228Y-140260551D01*
X157530415Y-140260502D01*
X157530947Y-140260194D01*
X157554038Y-140250517D01*
X157555975Y-140249981D01*
X157556009Y-140249964D01*
X157623084Y-140216194D01*
X157625839Y-140214695D01*
X157634462Y-140210009D01*
X157635742Y-140209260D01*
X157646837Y-140202283D01*
X157697540Y-140168095D01*
X157725900Y-140154931D01*
X157734321Y-140152545D01*
X157738944Y-140151236D01*
X157750530Y-140148693D01*
X157794023Y-140141855D01*
X157794029Y-140141852D01*
X157797813Y-140140949D01*
X157797973Y-140141620D01*
X157822191Y-140137795D01*
X162772207Y-140137795D01*
X162800029Y-140141785D01*
X162803958Y-140142936D01*
X162833819Y-140145586D01*
X162878469Y-140160838D01*
X162887742Y-140166779D01*
X162889679Y-140168052D01*
X162940430Y-140202269D01*
X162940451Y-140202283D01*
X162951546Y-140209260D01*
X162952826Y-140210009D01*
X162962643Y-140215345D01*
X162964214Y-140216199D01*
X163031279Y-140249964D01*
X163032424Y-140250516D01*
X163037562Y-140252995D01*
X163038296Y-140253334D01*
X163042655Y-140254302D01*
X163066133Y-140262738D01*
X163086152Y-140272938D01*
X163086154Y-140272938D01*
X163086159Y-140272941D01*
X163211463Y-140292787D01*
X163336767Y-140272941D01*
X163449805Y-140215345D01*
X163539513Y-140125637D01*
X163597109Y-140012599D01*
X163616955Y-139887295D01*
X163597109Y-139761991D01*
X163539513Y-139648953D01*
X163449805Y-139559245D01*
X163445869Y-139557239D01*
X163336770Y-139501650D01*
X163336767Y-139501649D01*
X163211463Y-139481803D01*
X163086163Y-139501648D01*
X163086161Y-139501648D01*
X163086159Y-139501649D01*
X163086155Y-139501650D01*
X163086152Y-139501652D01*
X163061645Y-139514138D01*
X163043120Y-139521338D01*
X163031321Y-139524604D01*
X163031318Y-139524605D01*
X162964177Y-139558408D01*
X162952803Y-139564591D01*
X162951576Y-139565309D01*
X162946680Y-139568388D01*
X162940464Y-139572297D01*
X162940454Y-139572303D01*
X162940452Y-139572305D01*
X162889682Y-139606535D01*
X162887735Y-139607815D01*
X162878461Y-139613755D01*
X162833822Y-139629001D01*
X162815033Y-139630669D01*
X162803955Y-139631653D01*
X162797474Y-139633396D01*
X162771758Y-139636795D01*
X159603268Y-139636795D01*
X159545077Y-139617888D01*
X159509113Y-139568388D01*
X159509113Y-139507202D01*
X159511804Y-139499910D01*
X159534582Y-139444918D01*
X159534583Y-139444914D01*
X159534590Y-139444898D01*
X159543231Y-139419439D01*
X159546166Y-139408484D01*
X159546167Y-139408475D01*
X159546170Y-139408467D01*
X159551403Y-139382157D01*
X159551409Y-139382128D01*
X159564833Y-139280169D01*
X159566150Y-139266793D01*
X159566522Y-139261121D01*
X159566963Y-139247672D01*
X159566963Y-128264192D01*
X159561285Y-128216217D01*
X159556549Y-128196491D01*
X159544772Y-128161584D01*
X159490189Y-128088203D01*
X159464901Y-128066605D01*
X159464900Y-128066604D01*
X159430523Y-128046065D01*
X159405801Y-128031294D01*
X159405799Y-128031293D01*
X159405798Y-128031293D01*
X159364068Y-128025162D01*
X159309244Y-127997997D01*
X159280857Y-127943795D01*
X159289752Y-127883259D01*
X159332529Y-127839513D01*
X159361870Y-127829614D01*
X159396653Y-127823705D01*
X159427377Y-127810979D01*
X159485672Y-127774349D01*
X159538595Y-127699761D01*
X159551321Y-127669037D01*
X159566963Y-127590397D01*
X159566963Y-127343646D01*
X159566716Y-127333574D01*
X159566507Y-127329315D01*
X159565764Y-127319244D01*
X159547177Y-127130532D01*
X159547176Y-127130523D01*
X159547176Y-127130521D01*
X159544221Y-127110604D01*
X159544217Y-127110577D01*
X159542555Y-127102223D01*
X159542550Y-127102206D01*
X159542549Y-127102197D01*
X159537659Y-127082679D01*
X159537649Y-127082643D01*
X159483239Y-126903276D01*
X159483234Y-126903262D01*
X159480775Y-126896389D01*
X159476437Y-126884264D01*
X159475862Y-126882876D01*
X159473181Y-126876404D01*
X159473174Y-126876389D01*
X159470735Y-126871232D01*
X159464559Y-126858176D01*
X159376185Y-126692840D01*
X159376181Y-126692834D01*
X159376178Y-126692827D01*
X159365832Y-126675567D01*
X159365826Y-126675558D01*
X159365817Y-126675543D01*
X159361085Y-126668461D01*
X159358850Y-126665447D01*
X159349070Y-126652260D01*
X159228768Y-126505673D01*
X159222243Y-126498107D01*
X159222230Y-126498093D01*
X159222220Y-126498081D01*
X159219357Y-126494921D01*
X159212376Y-126487588D01*
X156777007Y-124052219D01*
X156770242Y-124045754D01*
X156767328Y-124043094D01*
X156767314Y-124043081D01*
X156760331Y-124036991D01*
X156625505Y-123924675D01*
X156625502Y-123924673D01*
X156625494Y-123924666D01*
X156617295Y-123918443D01*
X156610672Y-123913417D01*
X156610662Y-123913410D01*
X156610641Y-123913394D01*
X156604153Y-123908919D01*
X156604149Y-123908916D01*
X156604144Y-123908913D01*
X156588319Y-123899028D01*
X156544581Y-123874395D01*
X156437140Y-123813886D01*
X156437124Y-123813878D01*
X156437111Y-123813871D01*
X156420501Y-123805486D01*
X156420483Y-123805477D01*
X156420481Y-123805476D01*
X156420471Y-123805471D01*
X156413286Y-123802245D01*
X156395946Y-123795387D01*
X156395932Y-123795382D01*
X156395924Y-123795379D01*
X156231898Y-123738968D01*
X156231867Y-123738957D01*
X156214023Y-123733713D01*
X156213968Y-123733698D01*
X156206334Y-123731826D01*
X156188010Y-123728207D01*
X156014496Y-123702057D01*
X156005221Y-123700873D01*
X156001375Y-123700471D01*
X155992008Y-123699706D01*
X148829187Y-123278364D01*
X148819887Y-123277375D01*
X148676123Y-123255168D01*
X148658011Y-123250586D01*
X148534604Y-123206618D01*
X148517675Y-123198714D01*
X148404738Y-123132350D01*
X148389602Y-123121412D01*
X148291126Y-123034995D01*
X148278313Y-123021405D01*
X148197836Y-122918039D01*
X148187800Y-122902278D01*
X148128183Y-122785640D01*
X148121287Y-122768276D01*
X148084638Y-122642489D01*
X148081128Y-122624137D01*
X148067405Y-122479339D01*
X148066963Y-122469998D01*
X148066963Y-50451317D01*
X148067733Y-50438991D01*
X148091612Y-50248699D01*
X148097702Y-50224814D01*
X148167859Y-50046323D01*
X148173075Y-50035155D01*
X149307070Y-47956165D01*
X149312808Y-47946902D01*
X149410205Y-47807519D01*
X149424609Y-47791111D01*
X149537673Y-47687921D01*
X149555319Y-47675075D01*
X149688270Y-47599190D01*
X149708305Y-47590528D01*
X149870869Y-47540679D01*
X149881472Y-47538059D01*
X157833451Y-46033631D01*
X157843400Y-46031492D01*
X157847574Y-46030486D01*
X157857364Y-46027870D01*
X158040518Y-45974047D01*
X158059691Y-45967367D01*
X158067640Y-45964149D01*
X158067645Y-45964146D01*
X158067667Y-45964137D01*
X158086025Y-45955627D01*
X158086043Y-45955617D01*
X158086062Y-45955609D01*
X158203523Y-45893931D01*
X158253165Y-45867866D01*
X158253170Y-45867863D01*
X158253168Y-45867863D01*
X158253174Y-45867861D01*
X158270666Y-45857543D01*
X158277827Y-45852827D01*
X158294208Y-45840838D01*
X158440836Y-45721975D01*
X158455958Y-45708426D01*
X158462055Y-45702394D01*
X158475766Y-45687417D01*
X158596186Y-45542078D01*
X158608350Y-45525826D01*
X158613143Y-45518715D01*
X158623648Y-45501335D01*
X158713180Y-45335172D01*
X158721915Y-45316845D01*
X158725218Y-45308931D01*
X158732104Y-45289828D01*
X158787258Y-45109315D01*
X158792225Y-45089624D01*
X158793909Y-45081216D01*
X158796908Y-45061139D01*
X158815748Y-44871162D01*
X158816500Y-44861030D01*
X158816712Y-44856742D01*
X158816963Y-44846594D01*
X158816963Y-44217298D01*
X159055880Y-44217298D01*
X159076161Y-44423224D01*
X159076162Y-44423229D01*
X159136231Y-44621249D01*
X159233779Y-44803747D01*
X159280790Y-44861030D01*
X159365053Y-44963705D01*
X159365058Y-44963709D01*
X159525010Y-45094978D01*
X159525011Y-45094978D01*
X159525013Y-45094980D01*
X159707509Y-45192527D01*
X159845460Y-45234373D01*
X159905528Y-45252595D01*
X159905533Y-45252596D01*
X160111460Y-45272878D01*
X160111463Y-45272878D01*
X160111466Y-45272878D01*
X160317392Y-45252596D01*
X160317397Y-45252595D01*
X160515417Y-45192527D01*
X160697913Y-45094980D01*
X160857873Y-44963705D01*
X160989148Y-44803745D01*
X161086695Y-44621249D01*
X161146763Y-44423229D01*
X161146764Y-44423224D01*
X161167046Y-44217298D01*
X161555880Y-44217298D01*
X161576161Y-44423224D01*
X161576162Y-44423229D01*
X161636231Y-44621249D01*
X161733779Y-44803747D01*
X161780790Y-44861030D01*
X161865053Y-44963705D01*
X161865058Y-44963709D01*
X162025010Y-45094978D01*
X162025011Y-45094978D01*
X162025013Y-45094980D01*
X162207509Y-45192527D01*
X162345460Y-45234373D01*
X162405528Y-45252595D01*
X162405533Y-45252596D01*
X162611460Y-45272878D01*
X162611463Y-45272878D01*
X162611466Y-45272878D01*
X162817392Y-45252596D01*
X162817397Y-45252595D01*
X163015417Y-45192527D01*
X163197913Y-45094980D01*
X163357873Y-44963705D01*
X163489148Y-44803745D01*
X163586695Y-44621249D01*
X163646763Y-44423229D01*
X163646764Y-44423224D01*
X163667046Y-44217298D01*
X164055880Y-44217298D01*
X164076161Y-44423224D01*
X164076162Y-44423229D01*
X164136231Y-44621249D01*
X164233779Y-44803747D01*
X164280790Y-44861030D01*
X164365053Y-44963705D01*
X164365058Y-44963709D01*
X164525010Y-45094978D01*
X164525011Y-45094978D01*
X164525013Y-45094980D01*
X164707509Y-45192527D01*
X164845460Y-45234373D01*
X164905528Y-45252595D01*
X164905533Y-45252596D01*
X165111460Y-45272878D01*
X165111463Y-45272878D01*
X165111466Y-45272878D01*
X165317392Y-45252596D01*
X165317397Y-45252595D01*
X165515417Y-45192527D01*
X165697913Y-45094980D01*
X165857873Y-44963705D01*
X165989148Y-44803745D01*
X166086695Y-44621249D01*
X166146763Y-44423229D01*
X166146764Y-44423224D01*
X166167046Y-44217298D01*
X166555880Y-44217298D01*
X166576161Y-44423224D01*
X166576162Y-44423229D01*
X166636231Y-44621249D01*
X166733779Y-44803747D01*
X166780790Y-44861030D01*
X166865053Y-44963705D01*
X166865058Y-44963709D01*
X167025010Y-45094978D01*
X167025011Y-45094978D01*
X167025013Y-45094980D01*
X167207509Y-45192527D01*
X167345460Y-45234373D01*
X167405528Y-45252595D01*
X167405533Y-45252596D01*
X167611460Y-45272878D01*
X167611463Y-45272878D01*
X167611466Y-45272878D01*
X167817392Y-45252596D01*
X167817397Y-45252595D01*
X168015417Y-45192527D01*
X168197913Y-45094980D01*
X168357873Y-44963705D01*
X168489148Y-44803745D01*
X168586695Y-44621249D01*
X168646763Y-44423229D01*
X168646764Y-44423224D01*
X168667046Y-44217298D01*
X174055880Y-44217298D01*
X174076161Y-44423224D01*
X174076162Y-44423229D01*
X174136231Y-44621249D01*
X174233779Y-44803747D01*
X174280790Y-44861030D01*
X174365053Y-44963705D01*
X174365058Y-44963709D01*
X174525010Y-45094978D01*
X174525011Y-45094978D01*
X174525013Y-45094980D01*
X174707509Y-45192527D01*
X174845460Y-45234373D01*
X174905528Y-45252595D01*
X174905533Y-45252596D01*
X175111460Y-45272878D01*
X175111463Y-45272878D01*
X175111466Y-45272878D01*
X175317392Y-45252596D01*
X175317397Y-45252595D01*
X175515417Y-45192527D01*
X175697913Y-45094980D01*
X175857873Y-44963705D01*
X175989148Y-44803745D01*
X176086695Y-44621249D01*
X176146763Y-44423229D01*
X176146764Y-44423224D01*
X176167046Y-44217298D01*
X176167046Y-44217291D01*
X176146764Y-44011365D01*
X176146763Y-44011360D01*
X176128541Y-43951292D01*
X176086695Y-43813341D01*
X175989148Y-43630845D01*
X175857873Y-43470885D01*
X175857867Y-43470880D01*
X175697915Y-43339611D01*
X175515417Y-43242063D01*
X175317397Y-43181994D01*
X175317392Y-43181993D01*
X175111466Y-43161712D01*
X175111460Y-43161712D01*
X174905533Y-43181993D01*
X174905528Y-43181994D01*
X174707508Y-43242063D01*
X174525010Y-43339611D01*
X174365058Y-43470880D01*
X174365048Y-43470890D01*
X174233779Y-43630842D01*
X174136231Y-43813340D01*
X174076162Y-44011360D01*
X174076161Y-44011365D01*
X174055880Y-44217291D01*
X174055880Y-44217298D01*
X168667046Y-44217298D01*
X168667046Y-44217291D01*
X168646764Y-44011365D01*
X168646763Y-44011360D01*
X168628541Y-43951292D01*
X168586695Y-43813341D01*
X168489148Y-43630845D01*
X168357873Y-43470885D01*
X168357867Y-43470880D01*
X168197915Y-43339611D01*
X168015417Y-43242063D01*
X167817397Y-43181994D01*
X167817392Y-43181993D01*
X167611466Y-43161712D01*
X167611460Y-43161712D01*
X167405533Y-43181993D01*
X167405528Y-43181994D01*
X167207508Y-43242063D01*
X167025010Y-43339611D01*
X166865058Y-43470880D01*
X166865048Y-43470890D01*
X166733779Y-43630842D01*
X166636231Y-43813340D01*
X166576162Y-44011360D01*
X166576161Y-44011365D01*
X166555880Y-44217291D01*
X166555880Y-44217298D01*
X166167046Y-44217298D01*
X166167046Y-44217291D01*
X166146764Y-44011365D01*
X166146763Y-44011360D01*
X166128541Y-43951292D01*
X166086695Y-43813341D01*
X165989148Y-43630845D01*
X165857873Y-43470885D01*
X165857867Y-43470880D01*
X165697915Y-43339611D01*
X165515417Y-43242063D01*
X165317397Y-43181994D01*
X165317392Y-43181993D01*
X165111466Y-43161712D01*
X165111460Y-43161712D01*
X164905533Y-43181993D01*
X164905528Y-43181994D01*
X164707508Y-43242063D01*
X164525010Y-43339611D01*
X164365058Y-43470880D01*
X164365048Y-43470890D01*
X164233779Y-43630842D01*
X164136231Y-43813340D01*
X164076162Y-44011360D01*
X164076161Y-44011365D01*
X164055880Y-44217291D01*
X164055880Y-44217298D01*
X163667046Y-44217298D01*
X163667046Y-44217291D01*
X163646764Y-44011365D01*
X163646763Y-44011360D01*
X163628541Y-43951292D01*
X163586695Y-43813341D01*
X163489148Y-43630845D01*
X163357873Y-43470885D01*
X163357867Y-43470880D01*
X163197915Y-43339611D01*
X163015417Y-43242063D01*
X162817397Y-43181994D01*
X162817392Y-43181993D01*
X162611466Y-43161712D01*
X162611460Y-43161712D01*
X162405533Y-43181993D01*
X162405528Y-43181994D01*
X162207508Y-43242063D01*
X162025010Y-43339611D01*
X161865058Y-43470880D01*
X161865048Y-43470890D01*
X161733779Y-43630842D01*
X161636231Y-43813340D01*
X161576162Y-44011360D01*
X161576161Y-44011365D01*
X161555880Y-44217291D01*
X161555880Y-44217298D01*
X161167046Y-44217298D01*
X161167046Y-44217291D01*
X161146764Y-44011365D01*
X161146763Y-44011360D01*
X161128541Y-43951292D01*
X161086695Y-43813341D01*
X160989148Y-43630845D01*
X160857873Y-43470885D01*
X160857867Y-43470880D01*
X160697915Y-43339611D01*
X160515417Y-43242063D01*
X160317397Y-43181994D01*
X160317392Y-43181993D01*
X160111466Y-43161712D01*
X160111460Y-43161712D01*
X159905533Y-43181993D01*
X159905528Y-43181994D01*
X159707508Y-43242063D01*
X159525010Y-43339611D01*
X159365058Y-43470880D01*
X159365048Y-43470890D01*
X159233779Y-43630842D01*
X159136231Y-43813340D01*
X159076162Y-44011360D01*
X159076161Y-44011365D01*
X159055880Y-44217291D01*
X159055880Y-44217298D01*
X158816963Y-44217298D01*
X158816963Y-41677298D01*
X159055880Y-41677298D01*
X159076161Y-41883224D01*
X159076162Y-41883229D01*
X159136231Y-42081249D01*
X159233779Y-42263747D01*
X159365048Y-42423699D01*
X159365053Y-42423705D01*
X159365058Y-42423709D01*
X159525010Y-42554978D01*
X159525011Y-42554978D01*
X159525013Y-42554980D01*
X159707509Y-42652527D01*
X159845460Y-42694373D01*
X159905528Y-42712595D01*
X159905533Y-42712596D01*
X160111460Y-42732878D01*
X160111463Y-42732878D01*
X160111466Y-42732878D01*
X160317392Y-42712596D01*
X160317397Y-42712595D01*
X160515417Y-42652527D01*
X160697913Y-42554980D01*
X160857873Y-42423705D01*
X160989148Y-42263745D01*
X161086695Y-42081249D01*
X161146763Y-41883229D01*
X161146764Y-41883224D01*
X161167046Y-41677298D01*
X161555880Y-41677298D01*
X161576161Y-41883224D01*
X161576162Y-41883229D01*
X161636231Y-42081249D01*
X161733779Y-42263747D01*
X161865048Y-42423699D01*
X161865053Y-42423705D01*
X161865058Y-42423709D01*
X162025010Y-42554978D01*
X162025011Y-42554978D01*
X162025013Y-42554980D01*
X162207509Y-42652527D01*
X162345460Y-42694373D01*
X162405528Y-42712595D01*
X162405533Y-42712596D01*
X162611460Y-42732878D01*
X162611463Y-42732878D01*
X162611466Y-42732878D01*
X162817392Y-42712596D01*
X162817397Y-42712595D01*
X163015417Y-42652527D01*
X163197913Y-42554980D01*
X163357873Y-42423705D01*
X163489148Y-42263745D01*
X163586695Y-42081249D01*
X163646763Y-41883229D01*
X163646764Y-41883224D01*
X163667046Y-41677298D01*
X164055880Y-41677298D01*
X164076161Y-41883224D01*
X164076162Y-41883229D01*
X164136231Y-42081249D01*
X164233779Y-42263747D01*
X164365048Y-42423699D01*
X164365053Y-42423705D01*
X164365058Y-42423709D01*
X164525010Y-42554978D01*
X164525011Y-42554978D01*
X164525013Y-42554980D01*
X164707509Y-42652527D01*
X164845460Y-42694373D01*
X164905528Y-42712595D01*
X164905533Y-42712596D01*
X165111460Y-42732878D01*
X165111463Y-42732878D01*
X165111466Y-42732878D01*
X165317392Y-42712596D01*
X165317397Y-42712595D01*
X165515417Y-42652527D01*
X165697913Y-42554980D01*
X165857873Y-42423705D01*
X165989148Y-42263745D01*
X166086695Y-42081249D01*
X166146763Y-41883229D01*
X166146764Y-41883224D01*
X166167046Y-41677298D01*
X166555880Y-41677298D01*
X166576161Y-41883224D01*
X166576162Y-41883229D01*
X166636231Y-42081249D01*
X166733779Y-42263747D01*
X166865048Y-42423699D01*
X166865053Y-42423705D01*
X166865058Y-42423709D01*
X167025010Y-42554978D01*
X167025011Y-42554978D01*
X167025013Y-42554980D01*
X167207509Y-42652527D01*
X167345460Y-42694373D01*
X167405528Y-42712595D01*
X167405533Y-42712596D01*
X167611460Y-42732878D01*
X167611463Y-42732878D01*
X167611466Y-42732878D01*
X167817392Y-42712596D01*
X167817397Y-42712595D01*
X168015417Y-42652527D01*
X168197913Y-42554980D01*
X168357873Y-42423705D01*
X168489148Y-42263745D01*
X168586695Y-42081249D01*
X168646763Y-41883229D01*
X168646764Y-41883224D01*
X168667046Y-41677298D01*
X174055880Y-41677298D01*
X174076161Y-41883224D01*
X174076162Y-41883229D01*
X174136231Y-42081249D01*
X174233779Y-42263747D01*
X174365048Y-42423699D01*
X174365053Y-42423705D01*
X174365058Y-42423709D01*
X174525010Y-42554978D01*
X174525011Y-42554978D01*
X174525013Y-42554980D01*
X174707509Y-42652527D01*
X174845460Y-42694373D01*
X174905528Y-42712595D01*
X174905533Y-42712596D01*
X175111460Y-42732878D01*
X175111463Y-42732878D01*
X175111466Y-42732878D01*
X175317392Y-42712596D01*
X175317397Y-42712595D01*
X175515417Y-42652527D01*
X175697913Y-42554980D01*
X175857873Y-42423705D01*
X175989148Y-42263745D01*
X176086695Y-42081249D01*
X176146763Y-41883229D01*
X176146764Y-41883224D01*
X176167046Y-41677298D01*
X176167046Y-41677291D01*
X176146764Y-41471365D01*
X176146763Y-41471360D01*
X176128541Y-41411292D01*
X176086695Y-41273341D01*
X175989148Y-41090845D01*
X175857873Y-40930885D01*
X175842740Y-40918466D01*
X175697915Y-40799611D01*
X175515417Y-40702063D01*
X175317397Y-40641994D01*
X175317392Y-40641993D01*
X175111466Y-40621712D01*
X175111460Y-40621712D01*
X174905533Y-40641993D01*
X174905528Y-40641994D01*
X174707508Y-40702063D01*
X174525010Y-40799611D01*
X174365058Y-40930880D01*
X174365048Y-40930890D01*
X174233779Y-41090842D01*
X174136231Y-41273340D01*
X174076162Y-41471360D01*
X174076161Y-41471365D01*
X174055880Y-41677291D01*
X174055880Y-41677298D01*
X168667046Y-41677298D01*
X168667046Y-41677291D01*
X168646764Y-41471365D01*
X168646763Y-41471360D01*
X168628541Y-41411292D01*
X168586695Y-41273341D01*
X168489148Y-41090845D01*
X168357873Y-40930885D01*
X168342740Y-40918466D01*
X168197915Y-40799611D01*
X168015417Y-40702063D01*
X167817397Y-40641994D01*
X167817392Y-40641993D01*
X167611466Y-40621712D01*
X167611460Y-40621712D01*
X167405533Y-40641993D01*
X167405528Y-40641994D01*
X167207508Y-40702063D01*
X167025010Y-40799611D01*
X166865058Y-40930880D01*
X166865048Y-40930890D01*
X166733779Y-41090842D01*
X166636231Y-41273340D01*
X166576162Y-41471360D01*
X166576161Y-41471365D01*
X166555880Y-41677291D01*
X166555880Y-41677298D01*
X166167046Y-41677298D01*
X166167046Y-41677291D01*
X166146764Y-41471365D01*
X166146763Y-41471360D01*
X166128541Y-41411292D01*
X166086695Y-41273341D01*
X165989148Y-41090845D01*
X165857873Y-40930885D01*
X165842740Y-40918466D01*
X165697915Y-40799611D01*
X165515417Y-40702063D01*
X165317397Y-40641994D01*
X165317392Y-40641993D01*
X165111466Y-40621712D01*
X165111460Y-40621712D01*
X164905533Y-40641993D01*
X164905528Y-40641994D01*
X164707508Y-40702063D01*
X164525010Y-40799611D01*
X164365058Y-40930880D01*
X164365048Y-40930890D01*
X164233779Y-41090842D01*
X164136231Y-41273340D01*
X164076162Y-41471360D01*
X164076161Y-41471365D01*
X164055880Y-41677291D01*
X164055880Y-41677298D01*
X163667046Y-41677298D01*
X163667046Y-41677291D01*
X163646764Y-41471365D01*
X163646763Y-41471360D01*
X163628541Y-41411292D01*
X163586695Y-41273341D01*
X163489148Y-41090845D01*
X163357873Y-40930885D01*
X163342740Y-40918466D01*
X163197915Y-40799611D01*
X163015417Y-40702063D01*
X162817397Y-40641994D01*
X162817392Y-40641993D01*
X162611466Y-40621712D01*
X162611460Y-40621712D01*
X162405533Y-40641993D01*
X162405528Y-40641994D01*
X162207508Y-40702063D01*
X162025010Y-40799611D01*
X161865058Y-40930880D01*
X161865048Y-40930890D01*
X161733779Y-41090842D01*
X161636231Y-41273340D01*
X161576162Y-41471360D01*
X161576161Y-41471365D01*
X161555880Y-41677291D01*
X161555880Y-41677298D01*
X161167046Y-41677298D01*
X161167046Y-41677291D01*
X161146764Y-41471365D01*
X161146763Y-41471360D01*
X161128541Y-41411292D01*
X161086695Y-41273341D01*
X160989148Y-41090845D01*
X160857873Y-40930885D01*
X160842740Y-40918466D01*
X160697915Y-40799611D01*
X160515417Y-40702063D01*
X160317397Y-40641994D01*
X160317392Y-40641993D01*
X160111466Y-40621712D01*
X160111460Y-40621712D01*
X159905533Y-40641993D01*
X159905528Y-40641994D01*
X159707508Y-40702063D01*
X159525010Y-40799611D01*
X159365058Y-40930880D01*
X159365048Y-40930890D01*
X159233779Y-41090842D01*
X159136231Y-41273340D01*
X159076162Y-41471360D01*
X159076161Y-41471365D01*
X159055880Y-41677291D01*
X159055880Y-41677298D01*
X158816963Y-41677298D01*
X158816963Y-41179432D01*
X158816716Y-41169360D01*
X158816507Y-41165101D01*
X158815764Y-41155030D01*
X158797177Y-40966319D01*
X158797176Y-40966310D01*
X158797176Y-40966308D01*
X158794221Y-40946391D01*
X158794220Y-40946384D01*
X158794217Y-40946364D01*
X158792555Y-40938010D01*
X158792550Y-40937993D01*
X158792549Y-40937984D01*
X158787659Y-40918466D01*
X158787649Y-40918430D01*
X158733239Y-40739063D01*
X158733234Y-40739049D01*
X158733232Y-40739044D01*
X158726437Y-40720051D01*
X158723177Y-40712182D01*
X158714559Y-40693963D01*
X158626185Y-40528627D01*
X158626178Y-40528615D01*
X158626178Y-40528614D01*
X158615832Y-40511354D01*
X158615826Y-40511345D01*
X158615817Y-40511330D01*
X158611085Y-40504248D01*
X158599071Y-40488049D01*
X158599070Y-40488047D01*
X158561280Y-40442000D01*
X158538980Y-40385023D01*
X158554429Y-40325820D01*
X158601725Y-40287005D01*
X158637808Y-40280195D01*
X180976568Y-40280195D01*
X180976570Y-40280196D01*
G37*
%TD.AperFunction*%
%TA.AperFunction,Conductor*%
G36*
X152922741Y-126649686D02*
G01*
X152938032Y-126685787D01*
X152938639Y-126685601D01*
X152940470Y-126691544D01*
X152940528Y-126691680D01*
X152940547Y-126691793D01*
X152940550Y-126691803D01*
X152978650Y-126774936D01*
X152978654Y-126774942D01*
X152998688Y-126801071D01*
X152998888Y-126801331D01*
X153046574Y-126845612D01*
X153053819Y-126852339D01*
X153083595Y-126905790D01*
X153076266Y-126966535D01*
X153034632Y-127011371D01*
X152986404Y-127023885D01*
X152810769Y-127023796D01*
X152752588Y-127004859D01*
X152716649Y-126955341D01*
X152712031Y-126931270D01*
X152711014Y-126915741D01*
X152710478Y-126913742D01*
X152709201Y-126908974D01*
X152705828Y-126883351D01*
X152705828Y-126871232D01*
X152709200Y-126845612D01*
X152716504Y-126818350D01*
X152720657Y-126806118D01*
X152731466Y-126780026D01*
X152737286Y-126758303D01*
X152743964Y-126716645D01*
X152743962Y-126716638D01*
X152743926Y-126708724D01*
X152762558Y-126650444D01*
X152811887Y-126614246D01*
X152873071Y-126613957D01*
X152922741Y-126649686D01*
G37*
%TD.AperFunction*%
%TA.AperFunction,Conductor*%
G36*
X136643307Y-40299102D02*
G01*
X136679271Y-40348602D01*
X136679271Y-40409788D01*
X136661644Y-40442000D01*
X136623861Y-40488038D01*
X136611831Y-40504258D01*
X136607121Y-40511305D01*
X136596747Y-40528615D01*
X136596729Y-40528647D01*
X136508375Y-40693946D01*
X136508367Y-40693962D01*
X136499754Y-40712167D01*
X136496510Y-40719996D01*
X136496495Y-40720033D01*
X136489691Y-40739046D01*
X136489687Y-40739059D01*
X136435278Y-40918423D01*
X136435271Y-40918448D01*
X136430366Y-40938023D01*
X136428712Y-40946339D01*
X136428704Y-40946384D01*
X136425749Y-40966301D01*
X136425749Y-40966303D01*
X136407164Y-41155004D01*
X136407164Y-41155006D01*
X136407162Y-41155031D01*
X136406419Y-41165101D01*
X136406418Y-41165120D01*
X136406418Y-41165123D01*
X136406210Y-41169359D01*
X136405963Y-41179427D01*
X136405963Y-45123036D01*
X136406199Y-45132880D01*
X136406201Y-45132913D01*
X136406403Y-45137103D01*
X136406980Y-45145058D01*
X136407123Y-45147027D01*
X136414842Y-45226706D01*
X136425113Y-45332713D01*
X136425114Y-45332718D01*
X136427979Y-45352356D01*
X136427979Y-45352359D01*
X136429586Y-45360570D01*
X136429589Y-45360583D01*
X136434326Y-45379820D01*
X136434327Y-45379825D01*
X136487027Y-45556596D01*
X136487028Y-45556600D01*
X136493601Y-45575296D01*
X136493601Y-45575297D01*
X136496755Y-45583052D01*
X136505105Y-45601039D01*
X136505109Y-45601047D01*
X136505112Y-45601053D01*
X136590761Y-45764411D01*
X136597679Y-45776186D01*
X136600810Y-45781516D01*
X136600814Y-45781522D01*
X136605398Y-45788527D01*
X136605408Y-45788541D01*
X136617039Y-45804569D01*
X136617042Y-45804572D01*
X136617050Y-45804583D01*
X136667814Y-45867866D01*
X136732456Y-45948451D01*
X136732460Y-45948456D01*
X136732463Y-45948459D01*
X136745611Y-45963318D01*
X136751457Y-45969315D01*
X136765975Y-45982836D01*
X136765986Y-45982845D01*
X136765990Y-45982849D01*
X136826089Y-46033631D01*
X136906864Y-46101884D01*
X136906872Y-46101890D01*
X136906878Y-46101895D01*
X136922593Y-46113925D01*
X136922595Y-46113926D01*
X136922611Y-46113938D01*
X136929497Y-46118700D01*
X136946348Y-46129188D01*
X136946366Y-46129198D01*
X137107430Y-46218955D01*
X137107459Y-46218970D01*
X137107462Y-46218972D01*
X137125225Y-46227776D01*
X137132902Y-46231130D01*
X137132919Y-46231136D01*
X137132932Y-46231142D01*
X137151420Y-46238176D01*
X137151449Y-46238186D01*
X137151459Y-46238190D01*
X137151469Y-46238193D01*
X137151491Y-46238201D01*
X137328807Y-46296027D01*
X137328814Y-46296029D01*
X137328826Y-46296033D01*
X137338354Y-46298887D01*
X137342400Y-46299993D01*
X137352008Y-46302372D01*
X141765554Y-47283160D01*
X142668281Y-47483766D01*
X142668280Y-47483766D01*
X142692238Y-47489089D01*
X142733402Y-47498236D01*
X142743433Y-47501027D01*
X142897103Y-47552640D01*
X142916035Y-47561309D01*
X143041595Y-47635681D01*
X143058295Y-47648118D01*
X143093391Y-47680518D01*
X143165515Y-47747104D01*
X143179244Y-47762759D01*
X143263396Y-47881992D01*
X143273547Y-47900173D01*
X143337237Y-48049205D01*
X143340824Y-48058995D01*
X143362468Y-48129338D01*
X143401395Y-48255852D01*
X143401399Y-48255863D01*
X143401399Y-48255864D01*
X143417816Y-48309220D01*
X143417817Y-48309225D01*
X143481123Y-48514970D01*
X143480165Y-48576147D01*
X143443430Y-48625078D01*
X143384951Y-48643072D01*
X143331989Y-48626724D01*
X143270887Y-48586419D01*
X143051161Y-48476237D01*
X143008044Y-48454616D01*
X143008041Y-48454614D01*
X142731478Y-48354756D01*
X142648237Y-48335425D01*
X142445052Y-48288239D01*
X142445048Y-48288238D01*
X142445046Y-48288238D01*
X142318268Y-48274251D01*
X142152783Y-48255995D01*
X142152779Y-48255995D01*
X142006955Y-48257240D01*
X142006109Y-48257244D01*
X114778833Y-48257100D01*
X114773098Y-48256496D01*
X114734971Y-48257060D01*
X114727417Y-48256883D01*
X114533006Y-48244897D01*
X114518043Y-48242820D01*
X114331430Y-48202202D01*
X114316957Y-48197872D01*
X114138705Y-48129338D01*
X114125060Y-48122857D01*
X113959301Y-48027995D01*
X113946800Y-48019513D01*
X113797407Y-47900539D01*
X113786350Y-47890262D01*
X113656784Y-47749929D01*
X113647429Y-47738099D01*
X113540728Y-47579695D01*
X113533271Y-47566561D01*
X113451915Y-47393771D01*
X113446544Y-47379661D01*
X113392422Y-47196499D01*
X113389262Y-47181738D01*
X113363796Y-46993643D01*
X113362902Y-46980353D01*
X113363591Y-44217298D01*
X121555880Y-44217298D01*
X121576161Y-44423224D01*
X121576162Y-44423229D01*
X121636231Y-44621249D01*
X121733779Y-44803747D01*
X121780790Y-44861030D01*
X121865053Y-44963705D01*
X121865058Y-44963709D01*
X122025010Y-45094978D01*
X122025011Y-45094978D01*
X122025013Y-45094980D01*
X122207509Y-45192527D01*
X122345460Y-45234373D01*
X122405528Y-45252595D01*
X122405533Y-45252596D01*
X122611460Y-45272878D01*
X122611463Y-45272878D01*
X122611466Y-45272878D01*
X122817392Y-45252596D01*
X122817397Y-45252595D01*
X123015417Y-45192527D01*
X123197913Y-45094980D01*
X123357873Y-44963705D01*
X123489148Y-44803745D01*
X123586695Y-44621249D01*
X123646763Y-44423229D01*
X123646764Y-44423224D01*
X123667046Y-44217298D01*
X124055880Y-44217298D01*
X124076161Y-44423224D01*
X124076162Y-44423229D01*
X124136231Y-44621249D01*
X124233779Y-44803747D01*
X124280790Y-44861030D01*
X124365053Y-44963705D01*
X124365058Y-44963709D01*
X124525010Y-45094978D01*
X124525011Y-45094978D01*
X124525013Y-45094980D01*
X124707509Y-45192527D01*
X124845460Y-45234373D01*
X124905528Y-45252595D01*
X124905533Y-45252596D01*
X125111460Y-45272878D01*
X125111463Y-45272878D01*
X125111466Y-45272878D01*
X125317392Y-45252596D01*
X125317397Y-45252595D01*
X125515417Y-45192527D01*
X125697913Y-45094980D01*
X125857873Y-44963705D01*
X125989148Y-44803745D01*
X126086695Y-44621249D01*
X126146763Y-44423229D01*
X126146764Y-44423224D01*
X126167046Y-44217298D01*
X126555880Y-44217298D01*
X126576161Y-44423224D01*
X126576162Y-44423229D01*
X126636231Y-44621249D01*
X126733779Y-44803747D01*
X126780790Y-44861030D01*
X126865053Y-44963705D01*
X126865058Y-44963709D01*
X127025010Y-45094978D01*
X127025011Y-45094978D01*
X127025013Y-45094980D01*
X127207509Y-45192527D01*
X127345460Y-45234373D01*
X127405528Y-45252595D01*
X127405533Y-45252596D01*
X127611460Y-45272878D01*
X127611463Y-45272878D01*
X127611466Y-45272878D01*
X127817392Y-45252596D01*
X127817397Y-45252595D01*
X128015417Y-45192527D01*
X128197913Y-45094980D01*
X128357873Y-44963705D01*
X128489148Y-44803745D01*
X128586695Y-44621249D01*
X128646763Y-44423229D01*
X128646764Y-44423224D01*
X128667046Y-44217298D01*
X131555880Y-44217298D01*
X131576161Y-44423224D01*
X131576162Y-44423229D01*
X131636231Y-44621249D01*
X131733779Y-44803747D01*
X131780790Y-44861030D01*
X131865053Y-44963705D01*
X131865058Y-44963709D01*
X132025010Y-45094978D01*
X132025011Y-45094978D01*
X132025013Y-45094980D01*
X132207509Y-45192527D01*
X132345460Y-45234373D01*
X132405528Y-45252595D01*
X132405533Y-45252596D01*
X132611460Y-45272878D01*
X132611463Y-45272878D01*
X132611466Y-45272878D01*
X132817392Y-45252596D01*
X132817397Y-45252595D01*
X133015417Y-45192527D01*
X133197913Y-45094980D01*
X133357873Y-44963705D01*
X133489148Y-44803745D01*
X133586695Y-44621249D01*
X133646763Y-44423229D01*
X133646764Y-44423224D01*
X133667046Y-44217298D01*
X134055880Y-44217298D01*
X134076161Y-44423224D01*
X134076162Y-44423229D01*
X134136231Y-44621249D01*
X134233779Y-44803747D01*
X134280790Y-44861030D01*
X134365053Y-44963705D01*
X134365058Y-44963709D01*
X134525010Y-45094978D01*
X134525011Y-45094978D01*
X134525013Y-45094980D01*
X134707509Y-45192527D01*
X134845460Y-45234373D01*
X134905528Y-45252595D01*
X134905533Y-45252596D01*
X135111460Y-45272878D01*
X135111463Y-45272878D01*
X135111466Y-45272878D01*
X135317392Y-45252596D01*
X135317397Y-45252595D01*
X135515417Y-45192527D01*
X135697913Y-45094980D01*
X135857873Y-44963705D01*
X135989148Y-44803745D01*
X136086695Y-44621249D01*
X136146763Y-44423229D01*
X136146764Y-44423224D01*
X136167046Y-44217298D01*
X136167046Y-44217291D01*
X136146764Y-44011365D01*
X136146763Y-44011360D01*
X136128541Y-43951292D01*
X136086695Y-43813341D01*
X135989148Y-43630845D01*
X135857873Y-43470885D01*
X135857867Y-43470880D01*
X135697915Y-43339611D01*
X135515417Y-43242063D01*
X135317397Y-43181994D01*
X135317392Y-43181993D01*
X135111466Y-43161712D01*
X135111460Y-43161712D01*
X134905533Y-43181993D01*
X134905528Y-43181994D01*
X134707508Y-43242063D01*
X134525010Y-43339611D01*
X134365058Y-43470880D01*
X134365048Y-43470890D01*
X134233779Y-43630842D01*
X134136231Y-43813340D01*
X134076162Y-44011360D01*
X134076161Y-44011365D01*
X134055880Y-44217291D01*
X134055880Y-44217298D01*
X133667046Y-44217298D01*
X133667046Y-44217291D01*
X133646764Y-44011365D01*
X133646763Y-44011360D01*
X133628541Y-43951292D01*
X133586695Y-43813341D01*
X133489148Y-43630845D01*
X133357873Y-43470885D01*
X133357867Y-43470880D01*
X133197915Y-43339611D01*
X133015417Y-43242063D01*
X132817397Y-43181994D01*
X132817392Y-43181993D01*
X132611466Y-43161712D01*
X132611460Y-43161712D01*
X132405533Y-43181993D01*
X132405528Y-43181994D01*
X132207508Y-43242063D01*
X132025010Y-43339611D01*
X131865058Y-43470880D01*
X131865048Y-43470890D01*
X131733779Y-43630842D01*
X131636231Y-43813340D01*
X131576162Y-44011360D01*
X131576161Y-44011365D01*
X131555880Y-44217291D01*
X131555880Y-44217298D01*
X128667046Y-44217298D01*
X128667046Y-44217291D01*
X128646764Y-44011365D01*
X128646763Y-44011360D01*
X128628541Y-43951292D01*
X128586695Y-43813341D01*
X128489148Y-43630845D01*
X128357873Y-43470885D01*
X128357867Y-43470880D01*
X128197915Y-43339611D01*
X128015417Y-43242063D01*
X127817397Y-43181994D01*
X127817392Y-43181993D01*
X127611466Y-43161712D01*
X127611460Y-43161712D01*
X127405533Y-43181993D01*
X127405528Y-43181994D01*
X127207508Y-43242063D01*
X127025010Y-43339611D01*
X126865058Y-43470880D01*
X126865048Y-43470890D01*
X126733779Y-43630842D01*
X126636231Y-43813340D01*
X126576162Y-44011360D01*
X126576161Y-44011365D01*
X126555880Y-44217291D01*
X126555880Y-44217298D01*
X126167046Y-44217298D01*
X126167046Y-44217291D01*
X126146764Y-44011365D01*
X126146763Y-44011360D01*
X126128541Y-43951292D01*
X126086695Y-43813341D01*
X125989148Y-43630845D01*
X125857873Y-43470885D01*
X125857867Y-43470880D01*
X125697915Y-43339611D01*
X125515417Y-43242063D01*
X125317397Y-43181994D01*
X125317392Y-43181993D01*
X125111466Y-43161712D01*
X125111460Y-43161712D01*
X124905533Y-43181993D01*
X124905528Y-43181994D01*
X124707508Y-43242063D01*
X124525010Y-43339611D01*
X124365058Y-43470880D01*
X124365048Y-43470890D01*
X124233779Y-43630842D01*
X124136231Y-43813340D01*
X124076162Y-44011360D01*
X124076161Y-44011365D01*
X124055880Y-44217291D01*
X124055880Y-44217298D01*
X123667046Y-44217298D01*
X123667046Y-44217291D01*
X123646764Y-44011365D01*
X123646763Y-44011360D01*
X123628541Y-43951292D01*
X123586695Y-43813341D01*
X123489148Y-43630845D01*
X123357873Y-43470885D01*
X123357867Y-43470880D01*
X123197915Y-43339611D01*
X123015417Y-43242063D01*
X122817397Y-43181994D01*
X122817392Y-43181993D01*
X122611466Y-43161712D01*
X122611460Y-43161712D01*
X122405533Y-43181993D01*
X122405528Y-43181994D01*
X122207508Y-43242063D01*
X122025010Y-43339611D01*
X121865058Y-43470880D01*
X121865048Y-43470890D01*
X121733779Y-43630842D01*
X121636231Y-43813340D01*
X121576162Y-44011360D01*
X121576161Y-44011365D01*
X121555880Y-44217291D01*
X121555880Y-44217298D01*
X113363591Y-44217298D01*
X113364225Y-41677298D01*
X121555880Y-41677298D01*
X121576161Y-41883224D01*
X121576162Y-41883229D01*
X121636231Y-42081249D01*
X121733779Y-42263747D01*
X121865048Y-42423699D01*
X121865053Y-42423705D01*
X121865058Y-42423709D01*
X122025010Y-42554978D01*
X122025011Y-42554978D01*
X122025013Y-42554980D01*
X122207509Y-42652527D01*
X122345460Y-42694373D01*
X122405528Y-42712595D01*
X122405533Y-42712596D01*
X122611460Y-42732878D01*
X122611463Y-42732878D01*
X122611466Y-42732878D01*
X122817392Y-42712596D01*
X122817397Y-42712595D01*
X123015417Y-42652527D01*
X123197913Y-42554980D01*
X123357873Y-42423705D01*
X123489148Y-42263745D01*
X123586695Y-42081249D01*
X123646763Y-41883229D01*
X123646764Y-41883224D01*
X123667046Y-41677298D01*
X124055880Y-41677298D01*
X124076161Y-41883224D01*
X124076162Y-41883229D01*
X124136231Y-42081249D01*
X124233779Y-42263747D01*
X124365048Y-42423699D01*
X124365053Y-42423705D01*
X124365058Y-42423709D01*
X124525010Y-42554978D01*
X124525011Y-42554978D01*
X124525013Y-42554980D01*
X124707509Y-42652527D01*
X124845460Y-42694373D01*
X124905528Y-42712595D01*
X124905533Y-42712596D01*
X125111460Y-42732878D01*
X125111463Y-42732878D01*
X125111466Y-42732878D01*
X125317392Y-42712596D01*
X125317397Y-42712595D01*
X125515417Y-42652527D01*
X125697913Y-42554980D01*
X125857873Y-42423705D01*
X125989148Y-42263745D01*
X126086695Y-42081249D01*
X126146763Y-41883229D01*
X126146764Y-41883224D01*
X126167046Y-41677298D01*
X126555880Y-41677298D01*
X126576161Y-41883224D01*
X126576162Y-41883229D01*
X126636231Y-42081249D01*
X126733779Y-42263747D01*
X126865048Y-42423699D01*
X126865053Y-42423705D01*
X126865058Y-42423709D01*
X127025010Y-42554978D01*
X127025011Y-42554978D01*
X127025013Y-42554980D01*
X127207509Y-42652527D01*
X127345460Y-42694373D01*
X127405528Y-42712595D01*
X127405533Y-42712596D01*
X127611460Y-42732878D01*
X127611463Y-42732878D01*
X127611466Y-42732878D01*
X127817392Y-42712596D01*
X127817397Y-42712595D01*
X128015417Y-42652527D01*
X128197913Y-42554980D01*
X128357873Y-42423705D01*
X128489148Y-42263745D01*
X128586695Y-42081249D01*
X128646763Y-41883229D01*
X128646764Y-41883224D01*
X128667046Y-41677298D01*
X131555880Y-41677298D01*
X131576161Y-41883224D01*
X131576162Y-41883229D01*
X131636231Y-42081249D01*
X131733779Y-42263747D01*
X131865048Y-42423699D01*
X131865053Y-42423705D01*
X131865058Y-42423709D01*
X132025010Y-42554978D01*
X132025011Y-42554978D01*
X132025013Y-42554980D01*
X132207509Y-42652527D01*
X132345460Y-42694373D01*
X132405528Y-42712595D01*
X132405533Y-42712596D01*
X132611460Y-42732878D01*
X132611463Y-42732878D01*
X132611466Y-42732878D01*
X132817392Y-42712596D01*
X132817397Y-42712595D01*
X133015417Y-42652527D01*
X133197913Y-42554980D01*
X133357873Y-42423705D01*
X133489148Y-42263745D01*
X133586695Y-42081249D01*
X133646763Y-41883229D01*
X133646764Y-41883224D01*
X133667046Y-41677298D01*
X134055880Y-41677298D01*
X134076161Y-41883224D01*
X134076162Y-41883229D01*
X134136231Y-42081249D01*
X134233779Y-42263747D01*
X134365048Y-42423699D01*
X134365053Y-42423705D01*
X134365058Y-42423709D01*
X134525010Y-42554978D01*
X134525011Y-42554978D01*
X134525013Y-42554980D01*
X134707509Y-42652527D01*
X134845460Y-42694373D01*
X134905528Y-42712595D01*
X134905533Y-42712596D01*
X135111460Y-42732878D01*
X135111463Y-42732878D01*
X135111466Y-42732878D01*
X135317392Y-42712596D01*
X135317397Y-42712595D01*
X135515417Y-42652527D01*
X135697913Y-42554980D01*
X135857873Y-42423705D01*
X135989148Y-42263745D01*
X136086695Y-42081249D01*
X136146763Y-41883229D01*
X136146764Y-41883224D01*
X136167046Y-41677298D01*
X136167046Y-41677291D01*
X136146764Y-41471365D01*
X136146763Y-41471360D01*
X136128541Y-41411292D01*
X136086695Y-41273341D01*
X135989148Y-41090845D01*
X135857873Y-40930885D01*
X135842740Y-40918466D01*
X135697915Y-40799611D01*
X135515417Y-40702063D01*
X135317397Y-40641994D01*
X135317392Y-40641993D01*
X135111466Y-40621712D01*
X135111460Y-40621712D01*
X134905533Y-40641993D01*
X134905528Y-40641994D01*
X134707508Y-40702063D01*
X134525010Y-40799611D01*
X134365058Y-40930880D01*
X134365048Y-40930890D01*
X134233779Y-41090842D01*
X134136231Y-41273340D01*
X134076162Y-41471360D01*
X134076161Y-41471365D01*
X134055880Y-41677291D01*
X134055880Y-41677298D01*
X133667046Y-41677298D01*
X133667046Y-41677291D01*
X133646764Y-41471365D01*
X133646763Y-41471360D01*
X133628541Y-41411292D01*
X133586695Y-41273341D01*
X133489148Y-41090845D01*
X133357873Y-40930885D01*
X133342740Y-40918466D01*
X133197915Y-40799611D01*
X133015417Y-40702063D01*
X132817397Y-40641994D01*
X132817392Y-40641993D01*
X132611466Y-40621712D01*
X132611460Y-40621712D01*
X132405533Y-40641993D01*
X132405528Y-40641994D01*
X132207508Y-40702063D01*
X132025010Y-40799611D01*
X131865058Y-40930880D01*
X131865048Y-40930890D01*
X131733779Y-41090842D01*
X131636231Y-41273340D01*
X131576162Y-41471360D01*
X131576161Y-41471365D01*
X131555880Y-41677291D01*
X131555880Y-41677298D01*
X128667046Y-41677298D01*
X128667046Y-41677291D01*
X128646764Y-41471365D01*
X128646763Y-41471360D01*
X128628541Y-41411292D01*
X128586695Y-41273341D01*
X128489148Y-41090845D01*
X128357873Y-40930885D01*
X128342740Y-40918466D01*
X128197915Y-40799611D01*
X128015417Y-40702063D01*
X127817397Y-40641994D01*
X127817392Y-40641993D01*
X127611466Y-40621712D01*
X127611460Y-40621712D01*
X127405533Y-40641993D01*
X127405528Y-40641994D01*
X127207508Y-40702063D01*
X127025010Y-40799611D01*
X126865058Y-40930880D01*
X126865048Y-40930890D01*
X126733779Y-41090842D01*
X126636231Y-41273340D01*
X126576162Y-41471360D01*
X126576161Y-41471365D01*
X126555880Y-41677291D01*
X126555880Y-41677298D01*
X126167046Y-41677298D01*
X126167046Y-41677291D01*
X126146764Y-41471365D01*
X126146763Y-41471360D01*
X126128541Y-41411292D01*
X126086695Y-41273341D01*
X125989148Y-41090845D01*
X125857873Y-40930885D01*
X125842740Y-40918466D01*
X125697915Y-40799611D01*
X125515417Y-40702063D01*
X125317397Y-40641994D01*
X125317392Y-40641993D01*
X125111466Y-40621712D01*
X125111460Y-40621712D01*
X124905533Y-40641993D01*
X124905528Y-40641994D01*
X124707508Y-40702063D01*
X124525010Y-40799611D01*
X124365058Y-40930880D01*
X124365048Y-40930890D01*
X124233779Y-41090842D01*
X124136231Y-41273340D01*
X124076162Y-41471360D01*
X124076161Y-41471365D01*
X124055880Y-41677291D01*
X124055880Y-41677298D01*
X123667046Y-41677298D01*
X123667046Y-41677291D01*
X123646764Y-41471365D01*
X123646763Y-41471360D01*
X123628541Y-41411292D01*
X123586695Y-41273341D01*
X123489148Y-41090845D01*
X123357873Y-40930885D01*
X123342740Y-40918466D01*
X123197915Y-40799611D01*
X123015417Y-40702063D01*
X122817397Y-40641994D01*
X122817392Y-40641993D01*
X122611466Y-40621712D01*
X122611460Y-40621712D01*
X122405533Y-40641993D01*
X122405528Y-40641994D01*
X122207508Y-40702063D01*
X122025010Y-40799611D01*
X121865058Y-40930880D01*
X121865048Y-40930890D01*
X121733779Y-41090842D01*
X121636231Y-41273340D01*
X121576162Y-41471360D01*
X121576161Y-41471365D01*
X121555880Y-41677291D01*
X121555880Y-41677298D01*
X113364225Y-41677298D01*
X113364350Y-41174320D01*
X113364363Y-41174230D01*
X113364363Y-41132156D01*
X113364840Y-41122453D01*
X113367953Y-41090842D01*
X113379684Y-40971733D01*
X113383470Y-40952702D01*
X113426016Y-40812445D01*
X113433438Y-40794525D01*
X113502533Y-40665255D01*
X113513306Y-40649132D01*
X113606291Y-40535826D01*
X113620011Y-40522107D01*
X113733308Y-40429122D01*
X113749436Y-40418346D01*
X113878699Y-40349250D01*
X113896619Y-40341826D01*
X114036874Y-40299276D01*
X114055906Y-40295490D01*
X114206303Y-40280672D01*
X114216010Y-40280195D01*
X136585116Y-40280195D01*
X136643307Y-40299102D01*
G37*
%TD.AperFunction*%
%TD*%
%TA.AperFunction,Conductor*%
%TO.N,+3.3V*%
G36*
X158053844Y-40285324D02*
G01*
X158163267Y-40343812D01*
X158170340Y-40348539D01*
X158315261Y-40467473D01*
X158321284Y-40473496D01*
X158440218Y-40618417D01*
X158444950Y-40625499D01*
X158533324Y-40790835D01*
X158536584Y-40798704D01*
X158591005Y-40978108D01*
X158592667Y-40986462D01*
X158611254Y-41175173D01*
X158611463Y-41179432D01*
X158611463Y-44846594D01*
X158611251Y-44850882D01*
X158592411Y-45040859D01*
X158590727Y-45049267D01*
X158535573Y-45229780D01*
X158532270Y-45237694D01*
X158442738Y-45403857D01*
X158437945Y-45410968D01*
X158317525Y-45556307D01*
X158311428Y-45562339D01*
X158164800Y-45681202D01*
X158157639Y-45685918D01*
X157990527Y-45773666D01*
X157982578Y-45776884D01*
X157799424Y-45830707D01*
X157795250Y-45831713D01*
X157409593Y-45904675D01*
X156745516Y-46030311D01*
X153399765Y-46663291D01*
X151640831Y-46996063D01*
X149826717Y-47339274D01*
X149615751Y-47403965D01*
X149424105Y-47513353D01*
X149261113Y-47662112D01*
X149134722Y-47842988D01*
X149134720Y-47842990D01*
X148725426Y-48593363D01*
X148026851Y-49874084D01*
X147983566Y-49953439D01*
X147983564Y-49953443D01*
X147892469Y-50185201D01*
X147861463Y-50432283D01*
X147861463Y-122484391D01*
X147879270Y-122672268D01*
X147932062Y-122853463D01*
X148017951Y-123021500D01*
X148017957Y-123021510D01*
X148133893Y-123170423D01*
X148275737Y-123294899D01*
X148275741Y-123294902D01*
X148438448Y-123390512D01*
X148438449Y-123390512D01*
X148438452Y-123390514D01*
X148616229Y-123453854D01*
X148802741Y-123482664D01*
X155979963Y-123904853D01*
X155983853Y-123905260D01*
X156157392Y-123931414D01*
X156165047Y-123933291D01*
X156329113Y-123989716D01*
X156336298Y-123992942D01*
X156487475Y-124078083D01*
X156493963Y-124082558D01*
X156628783Y-124194869D01*
X156631697Y-124197529D01*
X159067066Y-126632898D01*
X159069929Y-126636058D01*
X159190218Y-126782630D01*
X159194950Y-126789712D01*
X159283324Y-126955048D01*
X159286584Y-126962917D01*
X159341005Y-127142321D01*
X159342667Y-127150675D01*
X159361254Y-127339387D01*
X159361463Y-127343646D01*
X159361463Y-127590397D01*
X159348737Y-127621121D01*
X159318013Y-127633847D01*
X159298287Y-127629111D01*
X159221125Y-127589795D01*
X159111464Y-127572426D01*
X159111462Y-127572426D01*
X159001801Y-127589795D01*
X159001800Y-127589795D01*
X158902877Y-127640198D01*
X158824366Y-127718709D01*
X158773963Y-127817632D01*
X158773963Y-127817633D01*
X158756594Y-127927294D01*
X158756594Y-127927295D01*
X158773963Y-128036956D01*
X158773963Y-128036957D01*
X158824366Y-128135880D01*
X158902877Y-128214391D01*
X159001800Y-128264794D01*
X159001802Y-128264795D01*
X159090824Y-128278895D01*
X159111462Y-128282164D01*
X159111463Y-128282164D01*
X159111464Y-128282164D01*
X159126457Y-128279788D01*
X159221124Y-128264795D01*
X159298288Y-128225477D01*
X159331439Y-128222868D01*
X159356727Y-128244466D01*
X159361463Y-128264192D01*
X159361463Y-139247672D01*
X159361091Y-139253344D01*
X159347667Y-139355303D01*
X159344732Y-139366258D01*
X159306475Y-139458621D01*
X159300803Y-139468445D01*
X159239945Y-139547757D01*
X159231925Y-139555777D01*
X159152613Y-139616635D01*
X159142789Y-139622307D01*
X159050426Y-139660564D01*
X159039471Y-139663499D01*
X158955125Y-139674604D01*
X158937510Y-139676923D01*
X158931841Y-139677295D01*
X157933311Y-139677295D01*
X157931770Y-139677268D01*
X157863175Y-139674833D01*
X157860100Y-139674614D01*
X157791873Y-139667325D01*
X157790344Y-139667134D01*
X157642521Y-139646017D01*
X157617943Y-139633728D01*
X157591042Y-139606828D01*
X157591040Y-139606826D01*
X157591037Y-139606824D01*
X157591034Y-139606822D01*
X157511116Y-139560681D01*
X157511116Y-139560680D01*
X157421978Y-139536795D01*
X157421972Y-139536795D01*
X157329684Y-139536795D01*
X157329682Y-139536795D01*
X157305483Y-139543279D01*
X157272512Y-139538937D01*
X157270793Y-139537890D01*
X157248594Y-139523645D01*
X157229611Y-139496342D01*
X157228612Y-139487090D01*
X157228539Y-138967322D01*
X157241261Y-138936599D01*
X157271983Y-138923868D01*
X157283235Y-138925349D01*
X157329677Y-138937794D01*
X157329684Y-138937795D01*
X157421972Y-138937795D01*
X157421978Y-138937794D01*
X157511116Y-138913909D01*
X157569272Y-138880332D01*
X157590997Y-138874511D01*
X157834191Y-138874511D01*
X157853916Y-138879246D01*
X157939024Y-138922611D01*
X158027339Y-138936599D01*
X158048684Y-138939980D01*
X158048685Y-138939980D01*
X158048686Y-138939980D01*
X158070031Y-138936599D01*
X158158346Y-138922611D01*
X158257272Y-138872206D01*
X158335780Y-138793698D01*
X158386185Y-138694772D01*
X158403554Y-138585111D01*
X158386185Y-138475450D01*
X158386184Y-138475448D01*
X158335781Y-138376525D01*
X158257270Y-138298014D01*
X158158347Y-138247611D01*
X158048686Y-138230242D01*
X158048684Y-138230242D01*
X157939023Y-138247611D01*
X157939022Y-138247611D01*
X157853917Y-138290975D01*
X157834191Y-138295711D01*
X157583432Y-138295711D01*
X157561707Y-138289890D01*
X157511116Y-138260681D01*
X157511116Y-138260680D01*
X157421978Y-138236795D01*
X157421972Y-138236795D01*
X157329684Y-138236795D01*
X157329677Y-138236795D01*
X157283128Y-138249269D01*
X157250157Y-138244929D01*
X157229913Y-138218546D01*
X157228432Y-138207306D01*
X157228355Y-137667273D01*
X157241077Y-137636550D01*
X157271799Y-137623819D01*
X157283051Y-137625300D01*
X157329677Y-137637794D01*
X157329684Y-137637795D01*
X157421972Y-137637795D01*
X157421978Y-137637794D01*
X157511116Y-137613909D01*
X157565489Y-137582516D01*
X157587214Y-137576695D01*
X157822887Y-137576695D01*
X157842612Y-137581430D01*
X157885832Y-137603452D01*
X157974854Y-137617552D01*
X157995492Y-137620821D01*
X157995493Y-137620821D01*
X157995494Y-137620821D01*
X158010487Y-137618445D01*
X158105154Y-137603452D01*
X158204080Y-137553047D01*
X158282588Y-137474539D01*
X158332993Y-137375613D01*
X158350362Y-137265952D01*
X158332993Y-137156291D01*
X158332992Y-137156289D01*
X158282589Y-137057366D01*
X158204078Y-136978855D01*
X158105155Y-136928452D01*
X157995494Y-136911083D01*
X157995492Y-136911083D01*
X157885831Y-136928452D01*
X157885830Y-136928452D01*
X157786907Y-136978855D01*
X157780594Y-136985169D01*
X157749870Y-136997895D01*
X157614407Y-136997895D01*
X157583683Y-136985169D01*
X157570957Y-136954445D01*
X157583683Y-136923721D01*
X157588928Y-136919695D01*
X157588778Y-136919499D01*
X157591030Y-136917769D01*
X157591040Y-136917764D01*
X157656297Y-136852507D01*
X157702442Y-136772583D01*
X157726327Y-136683445D01*
X157726328Y-136683438D01*
X157726328Y-136591151D01*
X157726327Y-136591144D01*
X157702442Y-136502006D01*
X157656300Y-136422088D01*
X157656299Y-136422087D01*
X157656297Y-136422083D01*
X157591040Y-136356826D01*
X157579084Y-136349923D01*
X157558841Y-136323541D01*
X157563181Y-136290570D01*
X157579084Y-136274666D01*
X157591040Y-136267764D01*
X157656297Y-136202507D01*
X157702442Y-136122583D01*
X157726327Y-136033445D01*
X157726328Y-136033438D01*
X157726328Y-135941151D01*
X157726327Y-135941144D01*
X157702442Y-135852006D01*
X157656300Y-135772088D01*
X157656299Y-135772087D01*
X157656297Y-135772083D01*
X157591040Y-135706826D01*
X157579084Y-135699923D01*
X157558841Y-135673541D01*
X157563181Y-135640570D01*
X157579084Y-135624666D01*
X157591040Y-135617764D01*
X157656297Y-135552507D01*
X157702442Y-135472583D01*
X157726327Y-135383445D01*
X157726328Y-135383438D01*
X157726328Y-135291151D01*
X157726327Y-135291144D01*
X157702442Y-135202006D01*
X157656300Y-135122088D01*
X157656299Y-135122087D01*
X157656297Y-135122083D01*
X157591040Y-135056826D01*
X157579084Y-135049923D01*
X157558841Y-135023541D01*
X157563181Y-134990570D01*
X157579084Y-134974666D01*
X157591040Y-134967764D01*
X157656297Y-134902507D01*
X157702442Y-134822583D01*
X157726327Y-134733445D01*
X157726328Y-134733438D01*
X157726328Y-134641151D01*
X157726327Y-134641144D01*
X157702442Y-134552006D01*
X157656300Y-134472088D01*
X157656299Y-134472087D01*
X157656297Y-134472083D01*
X157591040Y-134406826D01*
X157579084Y-134399923D01*
X157558841Y-134373541D01*
X157563181Y-134340570D01*
X157579084Y-134324666D01*
X157591040Y-134317764D01*
X157656297Y-134252507D01*
X157702442Y-134172583D01*
X157726327Y-134083445D01*
X157726328Y-134083438D01*
X157726328Y-133991151D01*
X157726327Y-133991144D01*
X157702442Y-133902006D01*
X157656300Y-133822088D01*
X157656299Y-133822087D01*
X157656297Y-133822083D01*
X157591040Y-133756826D01*
X157591035Y-133756823D01*
X157588778Y-133755091D01*
X157589626Y-133753985D01*
X157572169Y-133731237D01*
X157576509Y-133698266D01*
X157602891Y-133678021D01*
X157614138Y-133676540D01*
X157732347Y-133676540D01*
X157752072Y-133681275D01*
X157837180Y-133724640D01*
X157926202Y-133738740D01*
X157946840Y-133742009D01*
X157946841Y-133742009D01*
X157946842Y-133742009D01*
X157961835Y-133739633D01*
X158056502Y-133724640D01*
X158155428Y-133674235D01*
X158233936Y-133595727D01*
X158284341Y-133496801D01*
X158301710Y-133387140D01*
X158284341Y-133277479D01*
X158233936Y-133178553D01*
X158155428Y-133100045D01*
X158155426Y-133100043D01*
X158056503Y-133049640D01*
X157946842Y-133032271D01*
X157946840Y-133032271D01*
X157837179Y-133049640D01*
X157837178Y-133049640D01*
X157752073Y-133093004D01*
X157732347Y-133097740D01*
X157586946Y-133097740D01*
X157565221Y-133091919D01*
X157511116Y-133060681D01*
X157511116Y-133060680D01*
X157421978Y-133036795D01*
X157421972Y-133036795D01*
X157329684Y-133036795D01*
X157329682Y-133036795D01*
X157282392Y-133049466D01*
X157249421Y-133045125D01*
X157229177Y-133018741D01*
X157227697Y-133007502D01*
X157227621Y-132467076D01*
X157240343Y-132436353D01*
X157271065Y-132423622D01*
X157282317Y-132425103D01*
X157329677Y-132437794D01*
X157329684Y-132437795D01*
X157421972Y-132437795D01*
X157421978Y-132437794D01*
X157511116Y-132413909D01*
X157591040Y-132367764D01*
X157656297Y-132302507D01*
X157702442Y-132222583D01*
X157726327Y-132133445D01*
X157726328Y-132133438D01*
X157726328Y-132041151D01*
X157726327Y-132041144D01*
X157702442Y-131952006D01*
X157656300Y-131872088D01*
X157656299Y-131872087D01*
X157656297Y-131872083D01*
X157591040Y-131806826D01*
X157579084Y-131799923D01*
X157558841Y-131773541D01*
X157563181Y-131740570D01*
X157579084Y-131724666D01*
X157591040Y-131717764D01*
X157656297Y-131652507D01*
X157702442Y-131572583D01*
X157726327Y-131483445D01*
X157726328Y-131483438D01*
X157726328Y-131391151D01*
X157726327Y-131391144D01*
X157702442Y-131302006D01*
X157656300Y-131222088D01*
X157656299Y-131222087D01*
X157656297Y-131222083D01*
X157591040Y-131156826D01*
X157579084Y-131149923D01*
X157558841Y-131123541D01*
X157563181Y-131090570D01*
X157579084Y-131074666D01*
X157591040Y-131067764D01*
X157656297Y-131002507D01*
X157702442Y-130922583D01*
X157726327Y-130833445D01*
X157726328Y-130833438D01*
X157726328Y-130741151D01*
X157726327Y-130741144D01*
X157702442Y-130652006D01*
X157656300Y-130572088D01*
X157656299Y-130572087D01*
X157656297Y-130572083D01*
X157591040Y-130506826D01*
X157591037Y-130506824D01*
X157591034Y-130506822D01*
X157511116Y-130460681D01*
X157511116Y-130460680D01*
X157421978Y-130436795D01*
X157421972Y-130436795D01*
X157346454Y-130436795D01*
X157315730Y-130424069D01*
X157303004Y-130393345D01*
X157315729Y-130362621D01*
X157321716Y-130356654D01*
X157378045Y-130300492D01*
X157629238Y-130050043D01*
X157629629Y-130049725D01*
X157632435Y-130046918D01*
X157632439Y-130046917D01*
X157653773Y-130025582D01*
X157675322Y-130004098D01*
X157675324Y-130004091D01*
X157675350Y-130004054D01*
X157675444Y-130003911D01*
X157675450Y-130003906D01*
X157687055Y-129975888D01*
X157687066Y-129975892D01*
X157687078Y-129975830D01*
X157698682Y-129947936D01*
X157698682Y-129947932D01*
X157698728Y-129947707D01*
X157698728Y-129917188D01*
X157698773Y-129887109D01*
X157698772Y-129887107D01*
X157698778Y-129883187D01*
X157698728Y-129882665D01*
X157698728Y-127946612D01*
X157698747Y-127916979D01*
X157698727Y-127916878D01*
X157687133Y-127888889D01*
X157687121Y-127888861D01*
X157675507Y-127860769D01*
X157675451Y-127860685D01*
X157654395Y-127839629D01*
X156427466Y-126611130D01*
X156427329Y-126610963D01*
X156403414Y-126587048D01*
X156402634Y-126586267D01*
X156381521Y-126565126D01*
X156381442Y-126565073D01*
X156353128Y-126553345D01*
X156353129Y-126553340D01*
X156353103Y-126553335D01*
X156325319Y-126541806D01*
X156325262Y-126541795D01*
X156325242Y-126541795D01*
X156294146Y-126541795D01*
X156260376Y-126541773D01*
X156260153Y-126541795D01*
X154435612Y-126541795D01*
X154379563Y-126565011D01*
X154379564Y-126565012D01*
X154379417Y-126565072D01*
X154379416Y-126565073D01*
X153932861Y-127011627D01*
X153902137Y-127024353D01*
X153902114Y-127024353D01*
X153880893Y-127024342D01*
X153850176Y-127011600D01*
X153837466Y-126980869D01*
X153838947Y-126969646D01*
X153851327Y-126923445D01*
X153851328Y-126923438D01*
X153851328Y-126831151D01*
X153851327Y-126831144D01*
X153827442Y-126742006D01*
X153781300Y-126662088D01*
X153781299Y-126662087D01*
X153781297Y-126662083D01*
X153716040Y-126596826D01*
X153716037Y-126596824D01*
X153716034Y-126596822D01*
X153636116Y-126550681D01*
X153636116Y-126550680D01*
X153546978Y-126526795D01*
X153546972Y-126526795D01*
X153454684Y-126526795D01*
X153454677Y-126526795D01*
X153365539Y-126550680D01*
X153365539Y-126550681D01*
X153285621Y-126596822D01*
X153285617Y-126596825D01*
X153220358Y-126662084D01*
X153218621Y-126664348D01*
X153217403Y-126663413D01*
X153194935Y-126680642D01*
X153161966Y-126676288D01*
X153141731Y-126649898D01*
X153140255Y-126638668D01*
X153140255Y-126551818D01*
X153140254Y-126551811D01*
X153130001Y-126513546D01*
X153125266Y-126495879D01*
X153120533Y-126478213D01*
X153082432Y-126412222D01*
X152698636Y-126028426D01*
X152686445Y-126004499D01*
X152681524Y-125973427D01*
X152681522Y-125973421D01*
X152631120Y-125874501D01*
X152583914Y-125827295D01*
X153856594Y-125827295D01*
X153873963Y-125936956D01*
X153873963Y-125936957D01*
X153924366Y-126035880D01*
X154002877Y-126114391D01*
X154086030Y-126156759D01*
X154101802Y-126164795D01*
X154190824Y-126178895D01*
X154211462Y-126182164D01*
X154211463Y-126182164D01*
X154211464Y-126182164D01*
X154226457Y-126179788D01*
X154321124Y-126164795D01*
X154420050Y-126114390D01*
X154498558Y-126035882D01*
X154548963Y-125936956D01*
X154566332Y-125827295D01*
X154548963Y-125717634D01*
X154498558Y-125618708D01*
X154420050Y-125540200D01*
X154420048Y-125540198D01*
X154321125Y-125489795D01*
X154211464Y-125472426D01*
X154211462Y-125472426D01*
X154101801Y-125489795D01*
X154101800Y-125489795D01*
X154002877Y-125540198D01*
X153924366Y-125618709D01*
X153873963Y-125717632D01*
X153873963Y-125717633D01*
X153856594Y-125827294D01*
X153856594Y-125827295D01*
X152583914Y-125827295D01*
X152552609Y-125795990D01*
X152453686Y-125745587D01*
X152344025Y-125728218D01*
X152344023Y-125728218D01*
X152234362Y-125745587D01*
X152234361Y-125745587D01*
X152135438Y-125795990D01*
X152056927Y-125874501D01*
X152006524Y-125973424D01*
X152006524Y-125973425D01*
X151989155Y-126083086D01*
X151989155Y-126083087D01*
X152006524Y-126192748D01*
X152006524Y-126192749D01*
X152056927Y-126291672D01*
X152135438Y-126370183D01*
X152234358Y-126420585D01*
X152234361Y-126420586D01*
X152234363Y-126420587D01*
X152265437Y-126425508D01*
X152289363Y-126437699D01*
X152526061Y-126674397D01*
X152538787Y-126705121D01*
X152532967Y-126726844D01*
X152524214Y-126742004D01*
X152500328Y-126831144D01*
X152500328Y-126923440D01*
X152512516Y-126968927D01*
X152508175Y-127001897D01*
X152481791Y-127022142D01*
X152470524Y-127023622D01*
X151931161Y-127023346D01*
X151900443Y-127010604D01*
X151887733Y-126979874D01*
X151889214Y-126968650D01*
X151901327Y-126923445D01*
X151901328Y-126923438D01*
X151901328Y-126831151D01*
X151901327Y-126831144D01*
X151877442Y-126742006D01*
X151831300Y-126662088D01*
X151831299Y-126662087D01*
X151831297Y-126662083D01*
X151766040Y-126596826D01*
X151766037Y-126596824D01*
X151766034Y-126596822D01*
X151686116Y-126550681D01*
X151686116Y-126550680D01*
X151596978Y-126526795D01*
X151596972Y-126526795D01*
X151504684Y-126526795D01*
X151504677Y-126526795D01*
X151415539Y-126550680D01*
X151415539Y-126550681D01*
X151335621Y-126596822D01*
X151335617Y-126596825D01*
X151270358Y-126662084D01*
X151270353Y-126662090D01*
X151263456Y-126674037D01*
X151237072Y-126694281D01*
X151204102Y-126689939D01*
X151188200Y-126674037D01*
X151181302Y-126662090D01*
X151181298Y-126662086D01*
X151181297Y-126662083D01*
X151116040Y-126596826D01*
X151116037Y-126596824D01*
X151116034Y-126596822D01*
X151036116Y-126550681D01*
X151036116Y-126550680D01*
X150946978Y-126526795D01*
X150946972Y-126526795D01*
X150854684Y-126526795D01*
X150854677Y-126526795D01*
X150765539Y-126550680D01*
X150765539Y-126550681D01*
X150685621Y-126596822D01*
X150685617Y-126596825D01*
X150620358Y-126662084D01*
X150620353Y-126662090D01*
X150613456Y-126674037D01*
X150587072Y-126694281D01*
X150554102Y-126689939D01*
X150538200Y-126674037D01*
X150531302Y-126662090D01*
X150531298Y-126662086D01*
X150531297Y-126662083D01*
X150466040Y-126596826D01*
X150466037Y-126596824D01*
X150466034Y-126596822D01*
X150386116Y-126550681D01*
X150386116Y-126550680D01*
X150296978Y-126526795D01*
X150296972Y-126526795D01*
X150204684Y-126526795D01*
X150204677Y-126526795D01*
X150115539Y-126550680D01*
X150115539Y-126550681D01*
X150035621Y-126596822D01*
X150035617Y-126596825D01*
X149970358Y-126662084D01*
X149970353Y-126662090D01*
X149963456Y-126674037D01*
X149937072Y-126694281D01*
X149904102Y-126689939D01*
X149888200Y-126674037D01*
X149881302Y-126662090D01*
X149881298Y-126662086D01*
X149881297Y-126662083D01*
X149816040Y-126596826D01*
X149816037Y-126596824D01*
X149816034Y-126596822D01*
X149736116Y-126550681D01*
X149736116Y-126550680D01*
X149646978Y-126526795D01*
X149646972Y-126526795D01*
X149554684Y-126526795D01*
X149554677Y-126526795D01*
X149465539Y-126550680D01*
X149465539Y-126550681D01*
X149385621Y-126596822D01*
X149385617Y-126596825D01*
X149320358Y-126662084D01*
X149318621Y-126664348D01*
X149317404Y-126663414D01*
X149294929Y-126680641D01*
X149261961Y-126676283D01*
X149241731Y-126649889D01*
X149240256Y-126638666D01*
X149240256Y-126363740D01*
X149240255Y-126363733D01*
X149220946Y-126291674D01*
X149220534Y-126290136D01*
X149201557Y-126257267D01*
X149182434Y-126224144D01*
X149021014Y-126062724D01*
X149008823Y-126038797D01*
X149003902Y-126007725D01*
X149002258Y-126004499D01*
X148953498Y-125908800D01*
X148874987Y-125830289D01*
X148776064Y-125779886D01*
X148666403Y-125762517D01*
X148666401Y-125762517D01*
X148556740Y-125779886D01*
X148556739Y-125779886D01*
X148457816Y-125830289D01*
X148379305Y-125908800D01*
X148328902Y-126007723D01*
X148328902Y-126007724D01*
X148311533Y-126117385D01*
X148311533Y-126117386D01*
X148328902Y-126227047D01*
X148328902Y-126227048D01*
X148379305Y-126325971D01*
X148457816Y-126404482D01*
X148523009Y-126437699D01*
X148556741Y-126454886D01*
X148587813Y-126459807D01*
X148611739Y-126471998D01*
X148648729Y-126508987D01*
X148661456Y-126539710D01*
X148661456Y-126665860D01*
X148655635Y-126687585D01*
X148624214Y-126742006D01*
X148624213Y-126742006D01*
X148600328Y-126831144D01*
X148600328Y-126923445D01*
X148611982Y-126966934D01*
X148607642Y-126999905D01*
X148581259Y-127020149D01*
X148569991Y-127021630D01*
X148031694Y-127021355D01*
X148000977Y-127008613D01*
X147988266Y-126977883D01*
X147989746Y-126966661D01*
X148001328Y-126923439D01*
X148001328Y-126831151D01*
X148001327Y-126831144D01*
X147977442Y-126742006D01*
X147931300Y-126662088D01*
X147931299Y-126662087D01*
X147931297Y-126662083D01*
X147866040Y-126596826D01*
X147866037Y-126596824D01*
X147866034Y-126596822D01*
X147786116Y-126550681D01*
X147786116Y-126550680D01*
X147696978Y-126526795D01*
X147696972Y-126526795D01*
X147604684Y-126526795D01*
X147604677Y-126526795D01*
X147515539Y-126550680D01*
X147515539Y-126550681D01*
X147435621Y-126596822D01*
X147435617Y-126596825D01*
X147370358Y-126662084D01*
X147370353Y-126662090D01*
X147363456Y-126674037D01*
X147337072Y-126694281D01*
X147304102Y-126689939D01*
X147288200Y-126674037D01*
X147281302Y-126662090D01*
X147281298Y-126662086D01*
X147281297Y-126662083D01*
X147216040Y-126596826D01*
X147216037Y-126596824D01*
X147216034Y-126596822D01*
X147136116Y-126550681D01*
X147136116Y-126550680D01*
X147046978Y-126526795D01*
X147046972Y-126526795D01*
X146954684Y-126526795D01*
X146954677Y-126526795D01*
X146865539Y-126550680D01*
X146865539Y-126550681D01*
X146785621Y-126596822D01*
X146785617Y-126596825D01*
X146720358Y-126662084D01*
X146720353Y-126662090D01*
X146713456Y-126674037D01*
X146687072Y-126694281D01*
X146654102Y-126689939D01*
X146638200Y-126674037D01*
X146631302Y-126662090D01*
X146631298Y-126662086D01*
X146631297Y-126662083D01*
X146566040Y-126596826D01*
X146566037Y-126596824D01*
X146566034Y-126596822D01*
X146486116Y-126550681D01*
X146486116Y-126550680D01*
X146396978Y-126526795D01*
X146396972Y-126526795D01*
X146304684Y-126526795D01*
X146304677Y-126526795D01*
X146215539Y-126550680D01*
X146215539Y-126550681D01*
X146135621Y-126596822D01*
X146135617Y-126596825D01*
X146070358Y-126662084D01*
X146070353Y-126662090D01*
X146063456Y-126674037D01*
X146037072Y-126694281D01*
X146004102Y-126689939D01*
X145988200Y-126674037D01*
X145981302Y-126662090D01*
X145981298Y-126662086D01*
X145981297Y-126662083D01*
X145916040Y-126596826D01*
X145916037Y-126596824D01*
X145916034Y-126596822D01*
X145836116Y-126550681D01*
X145836116Y-126550680D01*
X145746978Y-126526795D01*
X145746972Y-126526795D01*
X145654684Y-126526795D01*
X145654677Y-126526795D01*
X145565539Y-126550680D01*
X145565539Y-126550681D01*
X145485621Y-126596822D01*
X145485617Y-126596825D01*
X145420358Y-126662084D01*
X145420353Y-126662090D01*
X145413456Y-126674037D01*
X145387072Y-126694281D01*
X145354102Y-126689939D01*
X145338200Y-126674037D01*
X145331302Y-126662090D01*
X145331298Y-126662086D01*
X145331297Y-126662083D01*
X145266040Y-126596826D01*
X145266037Y-126596824D01*
X145266034Y-126596822D01*
X145186116Y-126550681D01*
X145186116Y-126550680D01*
X145096978Y-126526795D01*
X145096972Y-126526795D01*
X145004684Y-126526795D01*
X145004677Y-126526795D01*
X144915539Y-126550680D01*
X144915539Y-126550681D01*
X144835621Y-126596822D01*
X144835617Y-126596825D01*
X144770358Y-126662084D01*
X144770353Y-126662090D01*
X144765139Y-126671122D01*
X144738755Y-126691366D01*
X144705785Y-126687024D01*
X144685541Y-126660640D01*
X144684061Y-126649396D01*
X144684061Y-126371254D01*
X144688797Y-126351528D01*
X144719295Y-126291672D01*
X144732161Y-126266421D01*
X144749530Y-126156760D01*
X144732161Y-126047099D01*
X144712098Y-126007723D01*
X144681757Y-125948174D01*
X144603246Y-125869663D01*
X144504323Y-125819260D01*
X144394662Y-125801891D01*
X144394660Y-125801891D01*
X144284999Y-125819260D01*
X144284998Y-125819260D01*
X144186075Y-125869663D01*
X144107564Y-125948174D01*
X144057161Y-126047097D01*
X144057161Y-126047098D01*
X144039792Y-126156759D01*
X144039792Y-126156760D01*
X144057161Y-126266421D01*
X144057161Y-126266422D01*
X144100525Y-126351528D01*
X144105261Y-126371254D01*
X144105261Y-126676590D01*
X144099440Y-126698315D01*
X144074214Y-126742006D01*
X144074213Y-126742006D01*
X144050328Y-126831144D01*
X144050328Y-126923438D01*
X144050327Y-126923438D01*
X144061360Y-126964611D01*
X144057019Y-126997582D01*
X144030636Y-127017827D01*
X144019368Y-127019307D01*
X143482316Y-127019032D01*
X143451598Y-127006290D01*
X143438888Y-126975560D01*
X143440368Y-126964342D01*
X143451328Y-126923439D01*
X143451328Y-126831151D01*
X143451327Y-126831144D01*
X143427442Y-126742006D01*
X143381300Y-126662088D01*
X143381299Y-126662087D01*
X143381297Y-126662083D01*
X143316040Y-126596826D01*
X143316037Y-126596824D01*
X143316034Y-126596822D01*
X143236116Y-126550681D01*
X143236116Y-126550680D01*
X143146978Y-126526795D01*
X143146972Y-126526795D01*
X143054684Y-126526795D01*
X143054677Y-126526795D01*
X142965539Y-126550680D01*
X142965539Y-126550681D01*
X142885621Y-126596822D01*
X142885617Y-126596825D01*
X142820358Y-126662084D01*
X142820353Y-126662090D01*
X142813456Y-126674037D01*
X142787072Y-126694281D01*
X142754102Y-126689939D01*
X142738200Y-126674037D01*
X142731302Y-126662090D01*
X142731298Y-126662086D01*
X142731297Y-126662083D01*
X142666040Y-126596826D01*
X142666037Y-126596824D01*
X142666034Y-126596822D01*
X142586116Y-126550681D01*
X142586116Y-126550680D01*
X142496978Y-126526795D01*
X142496972Y-126526795D01*
X142404684Y-126526795D01*
X142404677Y-126526795D01*
X142315539Y-126550680D01*
X142315539Y-126550681D01*
X142253903Y-126586267D01*
X142220932Y-126590607D01*
X142194549Y-126570363D01*
X142188728Y-126548638D01*
X142188728Y-125885503D01*
X142201454Y-125854779D01*
X143304724Y-124751509D01*
X143414385Y-124641848D01*
X155944552Y-124641848D01*
X155961921Y-124751509D01*
X155961921Y-124751510D01*
X156012324Y-124850433D01*
X156090835Y-124928944D01*
X156189758Y-124979347D01*
X156189760Y-124979348D01*
X156278782Y-124993448D01*
X156299420Y-124996717D01*
X156299421Y-124996717D01*
X156299422Y-124996717D01*
X156314415Y-124994341D01*
X156409082Y-124979348D01*
X156508008Y-124928943D01*
X156586516Y-124850435D01*
X156636921Y-124751509D01*
X156654290Y-124641848D01*
X156636921Y-124532187D01*
X156586516Y-124433261D01*
X156508008Y-124354753D01*
X156508006Y-124354751D01*
X156409083Y-124304348D01*
X156299422Y-124286979D01*
X156299420Y-124286979D01*
X156189759Y-124304348D01*
X156189758Y-124304348D01*
X156090835Y-124354751D01*
X156012324Y-124433262D01*
X155961921Y-124532185D01*
X155961921Y-124532186D01*
X155944552Y-124641847D01*
X155944552Y-124641848D01*
X143414385Y-124641848D01*
X144457719Y-123598514D01*
X144457721Y-123598512D01*
X144480998Y-123542314D01*
X144480973Y-122200000D01*
X145775131Y-122200000D01*
X145792500Y-122309661D01*
X145792500Y-122309662D01*
X145842903Y-122408585D01*
X145921414Y-122487096D01*
X145960665Y-122507095D01*
X146020339Y-122537500D01*
X146109361Y-122551600D01*
X146129999Y-122554869D01*
X146130000Y-122554869D01*
X146130001Y-122554869D01*
X146144994Y-122552493D01*
X146239661Y-122537500D01*
X146338587Y-122487095D01*
X146417095Y-122408587D01*
X146467500Y-122309661D01*
X146484869Y-122200000D01*
X146467500Y-122090339D01*
X146463712Y-122082905D01*
X146417096Y-121991414D01*
X146338585Y-121912903D01*
X146239662Y-121862500D01*
X146130001Y-121845131D01*
X146129999Y-121845131D01*
X146020338Y-121862500D01*
X146020337Y-121862500D01*
X145921414Y-121912903D01*
X145842903Y-121991414D01*
X145792500Y-122090337D01*
X145792500Y-122090338D01*
X145775131Y-122199999D01*
X145775131Y-122200000D01*
X144480973Y-122200000D01*
X144480742Y-110030000D01*
X145765131Y-110030000D01*
X145782500Y-110139661D01*
X145782500Y-110139662D01*
X145832903Y-110238585D01*
X145911414Y-110317096D01*
X145989918Y-110357095D01*
X146010339Y-110367500D01*
X146099361Y-110381600D01*
X146119999Y-110384869D01*
X146120000Y-110384869D01*
X146120001Y-110384869D01*
X146134994Y-110382493D01*
X146229661Y-110367500D01*
X146328587Y-110317095D01*
X146407095Y-110238587D01*
X146457500Y-110139661D01*
X146474869Y-110030000D01*
X146457500Y-109920339D01*
X146442144Y-109890200D01*
X146407096Y-109821414D01*
X146328585Y-109742903D01*
X146229662Y-109692500D01*
X146120001Y-109675131D01*
X146119999Y-109675131D01*
X146010338Y-109692500D01*
X146010337Y-109692500D01*
X145911414Y-109742903D01*
X145832903Y-109821414D01*
X145782500Y-109920337D01*
X145782500Y-109920338D01*
X145765131Y-110029999D01*
X145765131Y-110030000D01*
X144480742Y-110030000D01*
X144480551Y-99990000D01*
X145765131Y-99990000D01*
X145782500Y-100099661D01*
X145782500Y-100099662D01*
X145832903Y-100198585D01*
X145911414Y-100277096D01*
X146009544Y-100327095D01*
X146010339Y-100327500D01*
X146099361Y-100341600D01*
X146119999Y-100344869D01*
X146120000Y-100344869D01*
X146120001Y-100344869D01*
X146134994Y-100342493D01*
X146229661Y-100327500D01*
X146328587Y-100277095D01*
X146407095Y-100198587D01*
X146457500Y-100099661D01*
X146474869Y-99990000D01*
X146457500Y-99880339D01*
X146432571Y-99831413D01*
X146407096Y-99781414D01*
X146328585Y-99702903D01*
X146229662Y-99652500D01*
X146120001Y-99635131D01*
X146119999Y-99635131D01*
X146010338Y-99652500D01*
X146010337Y-99652500D01*
X145911414Y-99702903D01*
X145832903Y-99781414D01*
X145782500Y-99880337D01*
X145782500Y-99880338D01*
X145765131Y-99989999D01*
X145765131Y-99990000D01*
X144480551Y-99990000D01*
X144480362Y-90010000D01*
X145765131Y-90010000D01*
X145782500Y-90119661D01*
X145782500Y-90119662D01*
X145832903Y-90218585D01*
X145911414Y-90297096D01*
X145995148Y-90339760D01*
X146010339Y-90347500D01*
X146099361Y-90361600D01*
X146119999Y-90364869D01*
X146120000Y-90364869D01*
X146120001Y-90364869D01*
X146134994Y-90362493D01*
X146229661Y-90347500D01*
X146328587Y-90297095D01*
X146407095Y-90218587D01*
X146457500Y-90119661D01*
X146474869Y-90010000D01*
X146457500Y-89900339D01*
X146422381Y-89831413D01*
X146407096Y-89801414D01*
X146328585Y-89722903D01*
X146229662Y-89672500D01*
X146120001Y-89655131D01*
X146119999Y-89655131D01*
X146010338Y-89672500D01*
X146010337Y-89672500D01*
X145911414Y-89722903D01*
X145832903Y-89801414D01*
X145782500Y-89900337D01*
X145782500Y-89900338D01*
X145765131Y-90009999D01*
X145765131Y-90010000D01*
X144480362Y-90010000D01*
X144480172Y-80020000D01*
X145765131Y-80020000D01*
X145782500Y-80129661D01*
X145782500Y-80129662D01*
X145832903Y-80228585D01*
X145911414Y-80307096D01*
X146010337Y-80357499D01*
X146010339Y-80357500D01*
X146099361Y-80371600D01*
X146119999Y-80374869D01*
X146120000Y-80374869D01*
X146120001Y-80374869D01*
X146134994Y-80372493D01*
X146229661Y-80357500D01*
X146328587Y-80307095D01*
X146407095Y-80228587D01*
X146457500Y-80129661D01*
X146474869Y-80020000D01*
X146457500Y-79910339D01*
X146440816Y-79877594D01*
X146407096Y-79811414D01*
X146328585Y-79732903D01*
X146229662Y-79682500D01*
X146120001Y-79665131D01*
X146119999Y-79665131D01*
X146010338Y-79682500D01*
X146010337Y-79682500D01*
X145911414Y-79732903D01*
X145832903Y-79811414D01*
X145782500Y-79910337D01*
X145782500Y-79910338D01*
X145765131Y-80019999D01*
X145765131Y-80020000D01*
X144480172Y-80020000D01*
X144479979Y-69860422D01*
X145799970Y-69860422D01*
X145817339Y-69970083D01*
X145817339Y-69970084D01*
X145867742Y-70069007D01*
X145946253Y-70147518D01*
X146018822Y-70184493D01*
X146045178Y-70197922D01*
X146134200Y-70212022D01*
X146154838Y-70215291D01*
X146154839Y-70215291D01*
X146154840Y-70215291D01*
X146169833Y-70212915D01*
X146264500Y-70197922D01*
X146363426Y-70147517D01*
X146441934Y-70069009D01*
X146492339Y-69970083D01*
X146509708Y-69860422D01*
X146492339Y-69750761D01*
X146472946Y-69712699D01*
X146441935Y-69651836D01*
X146363424Y-69573325D01*
X146264501Y-69522922D01*
X146154840Y-69505553D01*
X146154838Y-69505553D01*
X146045177Y-69522922D01*
X146045176Y-69522922D01*
X145946253Y-69573325D01*
X145867742Y-69651836D01*
X145817339Y-69750759D01*
X145817339Y-69750760D01*
X145799970Y-69860421D01*
X145799970Y-69860422D01*
X144479979Y-69860422D01*
X144479793Y-60040000D01*
X145795131Y-60040000D01*
X145812500Y-60149661D01*
X145812500Y-60149662D01*
X145862903Y-60248585D01*
X145941414Y-60327096D01*
X146020713Y-60367500D01*
X146040339Y-60377500D01*
X146129361Y-60391600D01*
X146149999Y-60394869D01*
X146150000Y-60394869D01*
X146150001Y-60394869D01*
X146164994Y-60392493D01*
X146259661Y-60377500D01*
X146358587Y-60327095D01*
X146437095Y-60248587D01*
X146487500Y-60149661D01*
X146504869Y-60040000D01*
X146487500Y-59930339D01*
X146452381Y-59861413D01*
X146437096Y-59831414D01*
X146358585Y-59752903D01*
X146259662Y-59702500D01*
X146150001Y-59685131D01*
X146149999Y-59685131D01*
X146040338Y-59702500D01*
X146040337Y-59702500D01*
X145941414Y-59752903D01*
X145862903Y-59831414D01*
X145812500Y-59930337D01*
X145812500Y-59930338D01*
X145795131Y-60039999D01*
X145795131Y-60040000D01*
X144479793Y-60040000D01*
X144479610Y-50398195D01*
X144481416Y-50385797D01*
X144481484Y-50385568D01*
X144483213Y-50379762D01*
X144480162Y-50360798D01*
X144479610Y-50353896D01*
X144479610Y-50339175D01*
X144476700Y-50332152D01*
X144473942Y-50322416D01*
X144454289Y-50200157D01*
X144454289Y-50200156D01*
X144444204Y-50164795D01*
X144373646Y-49917388D01*
X144260191Y-49646115D01*
X144260190Y-49646112D01*
X144260188Y-49646110D01*
X144244700Y-49618708D01*
X144115509Y-49390130D01*
X144055549Y-49308367D01*
X143941620Y-49153009D01*
X143910002Y-49119142D01*
X143875104Y-49081761D01*
X143865340Y-49064897D01*
X143616407Y-48255864D01*
X145268907Y-48255864D01*
X145286276Y-48365525D01*
X145286276Y-48365526D01*
X145336679Y-48464449D01*
X145415190Y-48542960D01*
X145514113Y-48593363D01*
X145514115Y-48593364D01*
X145603137Y-48607464D01*
X145623775Y-48610733D01*
X145623776Y-48610733D01*
X145623777Y-48610733D01*
X145638770Y-48608357D01*
X145733437Y-48593364D01*
X145832363Y-48542959D01*
X145910871Y-48464451D01*
X145961276Y-48365525D01*
X145978645Y-48255864D01*
X145961276Y-48146203D01*
X145957176Y-48138156D01*
X145910872Y-48047278D01*
X145832361Y-47968767D01*
X145733438Y-47918364D01*
X145623777Y-47900995D01*
X145623775Y-47900995D01*
X145514114Y-47918364D01*
X145514113Y-47918364D01*
X145415190Y-47968767D01*
X145336679Y-48047278D01*
X145286276Y-48146201D01*
X145286276Y-48146202D01*
X145268907Y-48255863D01*
X145268907Y-48255864D01*
X143616407Y-48255864D01*
X143532517Y-47983220D01*
X143449860Y-47789805D01*
X143389218Y-47703881D01*
X143328577Y-47617959D01*
X143328572Y-47617954D01*
X143174032Y-47475283D01*
X142993062Y-47368089D01*
X142993060Y-47368088D01*
X142993058Y-47368087D01*
X142793670Y-47301118D01*
X142793658Y-47301115D01*
X142793657Y-47301115D01*
X142712860Y-47283160D01*
X147712611Y-47283160D01*
X147729980Y-47392821D01*
X147729980Y-47392822D01*
X147780383Y-47491745D01*
X147858894Y-47570256D01*
X147910241Y-47596418D01*
X147957819Y-47620660D01*
X148046841Y-47634760D01*
X148067479Y-47638029D01*
X148067480Y-47638029D01*
X148067481Y-47638029D01*
X148082474Y-47635653D01*
X148177141Y-47620660D01*
X148276067Y-47570255D01*
X148354575Y-47491747D01*
X148404980Y-47392821D01*
X148422349Y-47283160D01*
X148404980Y-47173499D01*
X148354575Y-47074573D01*
X148276067Y-46996065D01*
X148276065Y-46996063D01*
X148177142Y-46945660D01*
X148067481Y-46928291D01*
X148067479Y-46928291D01*
X147957818Y-46945660D01*
X147957817Y-46945660D01*
X147858894Y-46996063D01*
X147780383Y-47074574D01*
X147729980Y-47173497D01*
X147729980Y-47173498D01*
X147712611Y-47283159D01*
X147712611Y-47283160D01*
X142712860Y-47283160D01*
X137396587Y-46101766D01*
X137392541Y-46100660D01*
X137215174Y-46042817D01*
X137207497Y-46039463D01*
X137046383Y-45949679D01*
X137039497Y-45944917D01*
X136898608Y-45825869D01*
X136892762Y-45819872D01*
X136858278Y-45776884D01*
X136777349Y-45675996D01*
X136772762Y-45668987D01*
X136716846Y-45562339D01*
X136687113Y-45505629D01*
X136683960Y-45497878D01*
X136631264Y-45321121D01*
X136629655Y-45312897D01*
X136621602Y-45229780D01*
X136611665Y-45127207D01*
X136611463Y-45123017D01*
X136611463Y-44217295D01*
X139166889Y-44217295D01*
X139187530Y-44413684D01*
X139248548Y-44601480D01*
X139248550Y-44601485D01*
X139248552Y-44601488D01*
X139347287Y-44772502D01*
X139479420Y-44919250D01*
X139639176Y-45035320D01*
X139819574Y-45115638D01*
X139819577Y-45115638D01*
X139819578Y-45115639D01*
X139819577Y-45115639D01*
X140012723Y-45156694D01*
X140012727Y-45156695D01*
X140012728Y-45156695D01*
X140210199Y-45156695D01*
X140210200Y-45156694D01*
X140306775Y-45136166D01*
X140403348Y-45115639D01*
X140403348Y-45115638D01*
X140403352Y-45115638D01*
X140583750Y-45035320D01*
X140743506Y-44919250D01*
X140875639Y-44772502D01*
X140974374Y-44601488D01*
X141035396Y-44413683D01*
X141056037Y-44217295D01*
X141666889Y-44217295D01*
X141687530Y-44413684D01*
X141748548Y-44601480D01*
X141748550Y-44601485D01*
X141748552Y-44601488D01*
X141847287Y-44772502D01*
X141979420Y-44919250D01*
X142139176Y-45035320D01*
X142319574Y-45115638D01*
X142319577Y-45115638D01*
X142319578Y-45115639D01*
X142319577Y-45115639D01*
X142512723Y-45156694D01*
X142512727Y-45156695D01*
X142512728Y-45156695D01*
X142710199Y-45156695D01*
X142710200Y-45156694D01*
X142806775Y-45136166D01*
X142903348Y-45115639D01*
X142903348Y-45115638D01*
X142903352Y-45115638D01*
X143083750Y-45035320D01*
X143243506Y-44919250D01*
X143375639Y-44772502D01*
X143474374Y-44601488D01*
X143535396Y-44413683D01*
X143556037Y-44217295D01*
X144166889Y-44217295D01*
X144187530Y-44413684D01*
X144248548Y-44601480D01*
X144248550Y-44601485D01*
X144248552Y-44601488D01*
X144347287Y-44772502D01*
X144479420Y-44919250D01*
X144639176Y-45035320D01*
X144819574Y-45115638D01*
X144819577Y-45115638D01*
X144819578Y-45115639D01*
X144819577Y-45115639D01*
X145012723Y-45156694D01*
X145012727Y-45156695D01*
X145012728Y-45156695D01*
X145210199Y-45156695D01*
X145210200Y-45156694D01*
X145306775Y-45136166D01*
X145403348Y-45115639D01*
X145403348Y-45115638D01*
X145403352Y-45115638D01*
X145583750Y-45035320D01*
X145743506Y-44919250D01*
X145875639Y-44772502D01*
X145974374Y-44601488D01*
X146035396Y-44413683D01*
X146056037Y-44217295D01*
X146666889Y-44217295D01*
X146687530Y-44413684D01*
X146748548Y-44601480D01*
X146748550Y-44601485D01*
X146748552Y-44601488D01*
X146847287Y-44772502D01*
X146979420Y-44919250D01*
X147139176Y-45035320D01*
X147319574Y-45115638D01*
X147319577Y-45115638D01*
X147319578Y-45115639D01*
X147319577Y-45115639D01*
X147512723Y-45156694D01*
X147512727Y-45156695D01*
X147512728Y-45156695D01*
X147710199Y-45156695D01*
X147710200Y-45156694D01*
X147806775Y-45136166D01*
X147903348Y-45115639D01*
X147903348Y-45115638D01*
X147903352Y-45115638D01*
X148083750Y-45035320D01*
X148243506Y-44919250D01*
X148375639Y-44772502D01*
X148474374Y-44601488D01*
X148535396Y-44413683D01*
X148556037Y-44217295D01*
X149166889Y-44217295D01*
X149187530Y-44413684D01*
X149248548Y-44601480D01*
X149248550Y-44601485D01*
X149248552Y-44601488D01*
X149347287Y-44772502D01*
X149479420Y-44919250D01*
X149639176Y-45035320D01*
X149819574Y-45115638D01*
X149819577Y-45115638D01*
X149819578Y-45115639D01*
X149819577Y-45115639D01*
X150012723Y-45156694D01*
X150012727Y-45156695D01*
X150012728Y-45156695D01*
X150210199Y-45156695D01*
X150210200Y-45156694D01*
X150306775Y-45136166D01*
X150403348Y-45115639D01*
X150403348Y-45115638D01*
X150403352Y-45115638D01*
X150583750Y-45035320D01*
X150743506Y-44919250D01*
X150875639Y-44772502D01*
X150974374Y-44601488D01*
X151035396Y-44413683D01*
X151056037Y-44217295D01*
X151666889Y-44217295D01*
X151687530Y-44413684D01*
X151748548Y-44601480D01*
X151748550Y-44601485D01*
X151748552Y-44601488D01*
X151847287Y-44772502D01*
X151979420Y-44919250D01*
X152139176Y-45035320D01*
X152319574Y-45115638D01*
X152319577Y-45115638D01*
X152319578Y-45115639D01*
X152319577Y-45115639D01*
X152512723Y-45156694D01*
X152512727Y-45156695D01*
X152512728Y-45156695D01*
X152710199Y-45156695D01*
X152710200Y-45156694D01*
X152806775Y-45136166D01*
X152903348Y-45115639D01*
X152903348Y-45115638D01*
X152903352Y-45115638D01*
X153083750Y-45035320D01*
X153243506Y-44919250D01*
X153375639Y-44772502D01*
X153474374Y-44601488D01*
X153535396Y-44413683D01*
X153556037Y-44217295D01*
X154166889Y-44217295D01*
X154187530Y-44413684D01*
X154248548Y-44601480D01*
X154248550Y-44601485D01*
X154248552Y-44601488D01*
X154347287Y-44772502D01*
X154479420Y-44919250D01*
X154639176Y-45035320D01*
X154819574Y-45115638D01*
X154819577Y-45115638D01*
X154819578Y-45115639D01*
X154819577Y-45115639D01*
X155012723Y-45156694D01*
X155012727Y-45156695D01*
X155012728Y-45156695D01*
X155210199Y-45156695D01*
X155210200Y-45156694D01*
X155306775Y-45136166D01*
X155403348Y-45115639D01*
X155403348Y-45115638D01*
X155403352Y-45115638D01*
X155583750Y-45035320D01*
X155743506Y-44919250D01*
X155875639Y-44772502D01*
X155974374Y-44601488D01*
X156035396Y-44413683D01*
X156056037Y-44217295D01*
X156035396Y-44020907D01*
X156015532Y-43959774D01*
X155974377Y-43833109D01*
X155974375Y-43833104D01*
X155974374Y-43833102D01*
X155875639Y-43662088D01*
X155743506Y-43515340D01*
X155743505Y-43515339D01*
X155743504Y-43515338D01*
X155583752Y-43399271D01*
X155583750Y-43399270D01*
X155403352Y-43318952D01*
X155403351Y-43318951D01*
X155403347Y-43318950D01*
X155403348Y-43318950D01*
X155210202Y-43277895D01*
X155210198Y-43277895D01*
X155012728Y-43277895D01*
X155012723Y-43277895D01*
X154819577Y-43318950D01*
X154639173Y-43399271D01*
X154479421Y-43515338D01*
X154347287Y-43662088D01*
X154248550Y-43833104D01*
X154248548Y-43833109D01*
X154187530Y-44020905D01*
X154166889Y-44217295D01*
X153556037Y-44217295D01*
X153535396Y-44020907D01*
X153515532Y-43959774D01*
X153474377Y-43833109D01*
X153474375Y-43833104D01*
X153474374Y-43833102D01*
X153375639Y-43662088D01*
X153243506Y-43515340D01*
X153243505Y-43515339D01*
X153243504Y-43515338D01*
X153083752Y-43399271D01*
X153083750Y-43399270D01*
X152903352Y-43318952D01*
X152903351Y-43318951D01*
X152903347Y-43318950D01*
X152903348Y-43318950D01*
X152710202Y-43277895D01*
X152710198Y-43277895D01*
X152512728Y-43277895D01*
X152512723Y-43277895D01*
X152319577Y-43318950D01*
X152139173Y-43399271D01*
X151979421Y-43515338D01*
X151847287Y-43662088D01*
X151748550Y-43833104D01*
X151748548Y-43833109D01*
X151687530Y-44020905D01*
X151666889Y-44217295D01*
X151056037Y-44217295D01*
X151035396Y-44020907D01*
X151015532Y-43959774D01*
X150974377Y-43833109D01*
X150974375Y-43833104D01*
X150974374Y-43833102D01*
X150875639Y-43662088D01*
X150743506Y-43515340D01*
X150743505Y-43515339D01*
X150743504Y-43515338D01*
X150583752Y-43399271D01*
X150583750Y-43399270D01*
X150403352Y-43318952D01*
X150403351Y-43318951D01*
X150403347Y-43318950D01*
X150403348Y-43318950D01*
X150210202Y-43277895D01*
X150210198Y-43277895D01*
X150012728Y-43277895D01*
X150012723Y-43277895D01*
X149819577Y-43318950D01*
X149639173Y-43399271D01*
X149479421Y-43515338D01*
X149347287Y-43662088D01*
X149248550Y-43833104D01*
X149248548Y-43833109D01*
X149187530Y-44020905D01*
X149166889Y-44217295D01*
X148556037Y-44217295D01*
X148535396Y-44020907D01*
X148515532Y-43959774D01*
X148474377Y-43833109D01*
X148474375Y-43833104D01*
X148474374Y-43833102D01*
X148375639Y-43662088D01*
X148243506Y-43515340D01*
X148243505Y-43515339D01*
X148243504Y-43515338D01*
X148083752Y-43399271D01*
X148083750Y-43399270D01*
X147903352Y-43318952D01*
X147903351Y-43318951D01*
X147903347Y-43318950D01*
X147903348Y-43318950D01*
X147710202Y-43277895D01*
X147710198Y-43277895D01*
X147512728Y-43277895D01*
X147512723Y-43277895D01*
X147319577Y-43318950D01*
X147139173Y-43399271D01*
X146979421Y-43515338D01*
X146847287Y-43662088D01*
X146748550Y-43833104D01*
X146748548Y-43833109D01*
X146687530Y-44020905D01*
X146666889Y-44217295D01*
X146056037Y-44217295D01*
X146035396Y-44020907D01*
X146015532Y-43959774D01*
X145974377Y-43833109D01*
X145974375Y-43833104D01*
X145974374Y-43833102D01*
X145875639Y-43662088D01*
X145743506Y-43515340D01*
X145743505Y-43515339D01*
X145743504Y-43515338D01*
X145583752Y-43399271D01*
X145583750Y-43399270D01*
X145403352Y-43318952D01*
X145403351Y-43318951D01*
X145403347Y-43318950D01*
X145403348Y-43318950D01*
X145210202Y-43277895D01*
X145210198Y-43277895D01*
X145012728Y-43277895D01*
X145012723Y-43277895D01*
X144819577Y-43318950D01*
X144639173Y-43399271D01*
X144479421Y-43515338D01*
X144347287Y-43662088D01*
X144248550Y-43833104D01*
X144248548Y-43833109D01*
X144187530Y-44020905D01*
X144166889Y-44217295D01*
X143556037Y-44217295D01*
X143535396Y-44020907D01*
X143515532Y-43959774D01*
X143474377Y-43833109D01*
X143474375Y-43833104D01*
X143474374Y-43833102D01*
X143375639Y-43662088D01*
X143243506Y-43515340D01*
X143243505Y-43515339D01*
X143243504Y-43515338D01*
X143083752Y-43399271D01*
X143083750Y-43399270D01*
X142903352Y-43318952D01*
X142903351Y-43318951D01*
X142903347Y-43318950D01*
X142903348Y-43318950D01*
X142710202Y-43277895D01*
X142710198Y-43277895D01*
X142512728Y-43277895D01*
X142512723Y-43277895D01*
X142319577Y-43318950D01*
X142139173Y-43399271D01*
X141979421Y-43515338D01*
X141847287Y-43662088D01*
X141748550Y-43833104D01*
X141748548Y-43833109D01*
X141687530Y-44020905D01*
X141666889Y-44217295D01*
X141056037Y-44217295D01*
X141035396Y-44020907D01*
X141015532Y-43959774D01*
X140974377Y-43833109D01*
X140974375Y-43833104D01*
X140974374Y-43833102D01*
X140875639Y-43662088D01*
X140743506Y-43515340D01*
X140743505Y-43515339D01*
X140743504Y-43515338D01*
X140583752Y-43399271D01*
X140583750Y-43399270D01*
X140403352Y-43318952D01*
X140403351Y-43318951D01*
X140403347Y-43318950D01*
X140403348Y-43318950D01*
X140210202Y-43277895D01*
X140210198Y-43277895D01*
X140012728Y-43277895D01*
X140012723Y-43277895D01*
X139819577Y-43318950D01*
X139639173Y-43399271D01*
X139479421Y-43515338D01*
X139347287Y-43662088D01*
X139248550Y-43833104D01*
X139248548Y-43833109D01*
X139187530Y-44020905D01*
X139166889Y-44217295D01*
X136611463Y-44217295D01*
X136611463Y-41677295D01*
X139166889Y-41677295D01*
X139187530Y-41873684D01*
X139248548Y-42061480D01*
X139248550Y-42061485D01*
X139248552Y-42061488D01*
X139347287Y-42232502D01*
X139479420Y-42379250D01*
X139639176Y-42495320D01*
X139819574Y-42575638D01*
X139819577Y-42575638D01*
X139819578Y-42575639D01*
X139819577Y-42575639D01*
X140012723Y-42616694D01*
X140012727Y-42616695D01*
X140012728Y-42616695D01*
X140210199Y-42616695D01*
X140210200Y-42616694D01*
X140306775Y-42596166D01*
X140403348Y-42575639D01*
X140403348Y-42575638D01*
X140403352Y-42575638D01*
X140583750Y-42495320D01*
X140743506Y-42379250D01*
X140875639Y-42232502D01*
X140974374Y-42061488D01*
X141035396Y-41873683D01*
X141056037Y-41677295D01*
X141666889Y-41677295D01*
X141687530Y-41873684D01*
X141748548Y-42061480D01*
X141748550Y-42061485D01*
X141748552Y-42061488D01*
X141847287Y-42232502D01*
X141979420Y-42379250D01*
X142139176Y-42495320D01*
X142319574Y-42575638D01*
X142319577Y-42575638D01*
X142319578Y-42575639D01*
X142319577Y-42575639D01*
X142512723Y-42616694D01*
X142512727Y-42616695D01*
X142512728Y-42616695D01*
X142710199Y-42616695D01*
X142710200Y-42616694D01*
X142806775Y-42596166D01*
X142903348Y-42575639D01*
X142903348Y-42575638D01*
X142903352Y-42575638D01*
X143083750Y-42495320D01*
X143243506Y-42379250D01*
X143375639Y-42232502D01*
X143474374Y-42061488D01*
X143535396Y-41873683D01*
X143556037Y-41677295D01*
X144166889Y-41677295D01*
X144187530Y-41873684D01*
X144248548Y-42061480D01*
X144248550Y-42061485D01*
X144248552Y-42061488D01*
X144347287Y-42232502D01*
X144479420Y-42379250D01*
X144639176Y-42495320D01*
X144819574Y-42575638D01*
X144819577Y-42575638D01*
X144819578Y-42575639D01*
X144819577Y-42575639D01*
X145012723Y-42616694D01*
X145012727Y-42616695D01*
X145012728Y-42616695D01*
X145210199Y-42616695D01*
X145210200Y-42616694D01*
X145306775Y-42596166D01*
X145403348Y-42575639D01*
X145403348Y-42575638D01*
X145403352Y-42575638D01*
X145583750Y-42495320D01*
X145743506Y-42379250D01*
X145875639Y-42232502D01*
X145974374Y-42061488D01*
X146035396Y-41873683D01*
X146056037Y-41677295D01*
X146666889Y-41677295D01*
X146687530Y-41873684D01*
X146748548Y-42061480D01*
X146748550Y-42061485D01*
X146748552Y-42061488D01*
X146847287Y-42232502D01*
X146979420Y-42379250D01*
X147139176Y-42495320D01*
X147319574Y-42575638D01*
X147319577Y-42575638D01*
X147319578Y-42575639D01*
X147319577Y-42575639D01*
X147512723Y-42616694D01*
X147512727Y-42616695D01*
X147512728Y-42616695D01*
X147710199Y-42616695D01*
X147710200Y-42616694D01*
X147806775Y-42596166D01*
X147903348Y-42575639D01*
X147903348Y-42575638D01*
X147903352Y-42575638D01*
X148083750Y-42495320D01*
X148243506Y-42379250D01*
X148375639Y-42232502D01*
X148474374Y-42061488D01*
X148535396Y-41873683D01*
X148556037Y-41677295D01*
X149166889Y-41677295D01*
X149187530Y-41873684D01*
X149248548Y-42061480D01*
X149248550Y-42061485D01*
X149248552Y-42061488D01*
X149347287Y-42232502D01*
X149479420Y-42379250D01*
X149639176Y-42495320D01*
X149819574Y-42575638D01*
X149819577Y-42575638D01*
X149819578Y-42575639D01*
X149819577Y-42575639D01*
X150012723Y-42616694D01*
X150012727Y-42616695D01*
X150012728Y-42616695D01*
X150210199Y-42616695D01*
X150210200Y-42616694D01*
X150306775Y-42596166D01*
X150403348Y-42575639D01*
X150403348Y-42575638D01*
X150403352Y-42575638D01*
X150583750Y-42495320D01*
X150743506Y-42379250D01*
X150875639Y-42232502D01*
X150974374Y-42061488D01*
X151035396Y-41873683D01*
X151056037Y-41677295D01*
X151666889Y-41677295D01*
X151687530Y-41873684D01*
X151748548Y-42061480D01*
X151748550Y-42061485D01*
X151748552Y-42061488D01*
X151847287Y-42232502D01*
X151979420Y-42379250D01*
X152139176Y-42495320D01*
X152319574Y-42575638D01*
X152319577Y-42575638D01*
X152319578Y-42575639D01*
X152319577Y-42575639D01*
X152512723Y-42616694D01*
X152512727Y-42616695D01*
X152512728Y-42616695D01*
X152710199Y-42616695D01*
X152710200Y-42616694D01*
X152806775Y-42596166D01*
X152903348Y-42575639D01*
X152903348Y-42575638D01*
X152903352Y-42575638D01*
X153083750Y-42495320D01*
X153243506Y-42379250D01*
X153375639Y-42232502D01*
X153474374Y-42061488D01*
X153535396Y-41873683D01*
X153556037Y-41677295D01*
X154166889Y-41677295D01*
X154187530Y-41873684D01*
X154248548Y-42061480D01*
X154248550Y-42061485D01*
X154248552Y-42061488D01*
X154347287Y-42232502D01*
X154479420Y-42379250D01*
X154639176Y-42495320D01*
X154819574Y-42575638D01*
X154819577Y-42575638D01*
X154819578Y-42575639D01*
X154819577Y-42575639D01*
X155012723Y-42616694D01*
X155012727Y-42616695D01*
X155012728Y-42616695D01*
X155210199Y-42616695D01*
X155210200Y-42616694D01*
X155306775Y-42596166D01*
X155403348Y-42575639D01*
X155403348Y-42575638D01*
X155403352Y-42575638D01*
X155583750Y-42495320D01*
X155743506Y-42379250D01*
X155875639Y-42232502D01*
X155974374Y-42061488D01*
X156035396Y-41873683D01*
X156056037Y-41677295D01*
X156035396Y-41480907D01*
X156015532Y-41419774D01*
X155974377Y-41293109D01*
X155974375Y-41293104D01*
X155974374Y-41293102D01*
X155875639Y-41122088D01*
X155743506Y-40975340D01*
X155743505Y-40975339D01*
X155743504Y-40975338D01*
X155583752Y-40859271D01*
X155583750Y-40859270D01*
X155403352Y-40778952D01*
X155403351Y-40778951D01*
X155403347Y-40778950D01*
X155403348Y-40778950D01*
X155210202Y-40737895D01*
X155210198Y-40737895D01*
X155012728Y-40737895D01*
X155012723Y-40737895D01*
X154819577Y-40778950D01*
X154639173Y-40859271D01*
X154479421Y-40975338D01*
X154347287Y-41122088D01*
X154248550Y-41293104D01*
X154248548Y-41293109D01*
X154187530Y-41480905D01*
X154166889Y-41677295D01*
X153556037Y-41677295D01*
X153535396Y-41480907D01*
X153515532Y-41419774D01*
X153474377Y-41293109D01*
X153474375Y-41293104D01*
X153474374Y-41293102D01*
X153375639Y-41122088D01*
X153243506Y-40975340D01*
X153243505Y-40975339D01*
X153243504Y-40975338D01*
X153083752Y-40859271D01*
X153083750Y-40859270D01*
X152903352Y-40778952D01*
X152903351Y-40778951D01*
X152903347Y-40778950D01*
X152903348Y-40778950D01*
X152710202Y-40737895D01*
X152710198Y-40737895D01*
X152512728Y-40737895D01*
X152512723Y-40737895D01*
X152319577Y-40778950D01*
X152139173Y-40859271D01*
X151979421Y-40975338D01*
X151847287Y-41122088D01*
X151748550Y-41293104D01*
X151748548Y-41293109D01*
X151687530Y-41480905D01*
X151666889Y-41677295D01*
X151056037Y-41677295D01*
X151035396Y-41480907D01*
X151015532Y-41419774D01*
X150974377Y-41293109D01*
X150974375Y-41293104D01*
X150974374Y-41293102D01*
X150875639Y-41122088D01*
X150743506Y-40975340D01*
X150743505Y-40975339D01*
X150743504Y-40975338D01*
X150583752Y-40859271D01*
X150583750Y-40859270D01*
X150403352Y-40778952D01*
X150403351Y-40778951D01*
X150403347Y-40778950D01*
X150403348Y-40778950D01*
X150210202Y-40737895D01*
X150210198Y-40737895D01*
X150012728Y-40737895D01*
X150012723Y-40737895D01*
X149819577Y-40778950D01*
X149639173Y-40859271D01*
X149479421Y-40975338D01*
X149347287Y-41122088D01*
X149248550Y-41293104D01*
X149248548Y-41293109D01*
X149187530Y-41480905D01*
X149166889Y-41677295D01*
X148556037Y-41677295D01*
X148535396Y-41480907D01*
X148515532Y-41419774D01*
X148474377Y-41293109D01*
X148474375Y-41293104D01*
X148474374Y-41293102D01*
X148375639Y-41122088D01*
X148243506Y-40975340D01*
X148243505Y-40975339D01*
X148243504Y-40975338D01*
X148083752Y-40859271D01*
X148083750Y-40859270D01*
X147903352Y-40778952D01*
X147903351Y-40778951D01*
X147903347Y-40778950D01*
X147903348Y-40778950D01*
X147710202Y-40737895D01*
X147710198Y-40737895D01*
X147512728Y-40737895D01*
X147512723Y-40737895D01*
X147319577Y-40778950D01*
X147139173Y-40859271D01*
X146979421Y-40975338D01*
X146847287Y-41122088D01*
X146748550Y-41293104D01*
X146748548Y-41293109D01*
X146687530Y-41480905D01*
X146666889Y-41677295D01*
X146056037Y-41677295D01*
X146035396Y-41480907D01*
X146015532Y-41419774D01*
X145974377Y-41293109D01*
X145974375Y-41293104D01*
X145974374Y-41293102D01*
X145875639Y-41122088D01*
X145743506Y-40975340D01*
X145743505Y-40975339D01*
X145743504Y-40975338D01*
X145583752Y-40859271D01*
X145583750Y-40859270D01*
X145403352Y-40778952D01*
X145403351Y-40778951D01*
X145403347Y-40778950D01*
X145403348Y-40778950D01*
X145210202Y-40737895D01*
X145210198Y-40737895D01*
X145012728Y-40737895D01*
X145012723Y-40737895D01*
X144819577Y-40778950D01*
X144639173Y-40859271D01*
X144479421Y-40975338D01*
X144347287Y-41122088D01*
X144248550Y-41293104D01*
X144248548Y-41293109D01*
X144187530Y-41480905D01*
X144166889Y-41677295D01*
X143556037Y-41677295D01*
X143535396Y-41480907D01*
X143515532Y-41419774D01*
X143474377Y-41293109D01*
X143474375Y-41293104D01*
X143474374Y-41293102D01*
X143375639Y-41122088D01*
X143243506Y-40975340D01*
X143243505Y-40975339D01*
X143243504Y-40975338D01*
X143083752Y-40859271D01*
X143083750Y-40859270D01*
X142903352Y-40778952D01*
X142903351Y-40778951D01*
X142903347Y-40778950D01*
X142903348Y-40778950D01*
X142710202Y-40737895D01*
X142710198Y-40737895D01*
X142512728Y-40737895D01*
X142512723Y-40737895D01*
X142319577Y-40778950D01*
X142139173Y-40859271D01*
X141979421Y-40975338D01*
X141847287Y-41122088D01*
X141748550Y-41293104D01*
X141748548Y-41293109D01*
X141687530Y-41480905D01*
X141666889Y-41677295D01*
X141056037Y-41677295D01*
X141035396Y-41480907D01*
X141015532Y-41419774D01*
X140974377Y-41293109D01*
X140974375Y-41293104D01*
X140974374Y-41293102D01*
X140875639Y-41122088D01*
X140743506Y-40975340D01*
X140743505Y-40975339D01*
X140743504Y-40975338D01*
X140583752Y-40859271D01*
X140583750Y-40859270D01*
X140403352Y-40778952D01*
X140403351Y-40778951D01*
X140403347Y-40778950D01*
X140403348Y-40778950D01*
X140210202Y-40737895D01*
X140210198Y-40737895D01*
X140012728Y-40737895D01*
X140012723Y-40737895D01*
X139819577Y-40778950D01*
X139639173Y-40859271D01*
X139479421Y-40975338D01*
X139347287Y-41122088D01*
X139248550Y-41293104D01*
X139248548Y-41293109D01*
X139187530Y-41480905D01*
X139166889Y-41677295D01*
X136611463Y-41677295D01*
X136611463Y-41179432D01*
X136611672Y-41175173D01*
X136630259Y-40986454D01*
X136631918Y-40978115D01*
X136686343Y-40798697D01*
X136689598Y-40790842D01*
X136777978Y-40625493D01*
X136782703Y-40618422D01*
X136901642Y-40473494D01*
X136907664Y-40467473D01*
X137052590Y-40348535D01*
X137059653Y-40343814D01*
X137169081Y-40285324D01*
X137189561Y-40280195D01*
X158033365Y-40280195D01*
X158053844Y-40285324D01*
G37*
%TD.AperFunction*%
%TD*%
%TA.AperFunction,Conductor*%
%TO.N,RCP-26*%
G36*
X157462829Y-139707818D02*
G01*
X157463563Y-139708157D01*
X157530683Y-139741949D01*
X157531948Y-139742689D01*
X157568059Y-139767037D01*
X157585696Y-139778928D01*
X157632897Y-139809163D01*
X157690447Y-139829715D01*
X157765163Y-139836348D01*
X157773100Y-139840493D01*
X157775828Y-139848002D01*
X157775828Y-139926587D01*
X157772401Y-139934860D01*
X157765163Y-139938241D01*
X157690449Y-139944873D01*
X157632894Y-139965426D01*
X157585696Y-139995660D01*
X157531955Y-140031894D01*
X157530675Y-140032643D01*
X157463563Y-140066432D01*
X157454633Y-140067092D01*
X157447852Y-140061243D01*
X157447513Y-140060509D01*
X157435679Y-140032307D01*
X157376726Y-139891820D01*
X157376686Y-139882868D01*
X157376699Y-139882835D01*
X157447514Y-139714078D01*
X157453874Y-139707777D01*
X157462829Y-139707818D01*
G37*
%TD.AperFunction*%
%TD*%
%TA.AperFunction,Conductor*%
%TO.N,RCP-26*%
G36*
X157420877Y-139695126D02*
G01*
X157486273Y-139738369D01*
X157486277Y-139738371D01*
X157486280Y-139738373D01*
X157557690Y-139776595D01*
X157557697Y-139776597D01*
X157557701Y-139776600D01*
X157629129Y-139805832D01*
X157629130Y-139805832D01*
X157629132Y-139805833D01*
X157629134Y-139805834D01*
X157700540Y-139826059D01*
X157700547Y-139826060D01*
X157700557Y-139826063D01*
X157762103Y-139835741D01*
X157769743Y-139840410D01*
X157771985Y-139847298D01*
X157771985Y-139927291D01*
X157768558Y-139935564D01*
X157762102Y-139938849D01*
X157700553Y-139948526D01*
X157700548Y-139948528D01*
X157629134Y-139968754D01*
X157629132Y-139968755D01*
X157557690Y-139997993D01*
X157486280Y-140036215D01*
X157486264Y-140036225D01*
X157420879Y-140079462D01*
X157412088Y-140081167D01*
X157408581Y-140079837D01*
X157234532Y-139979428D01*
X157229080Y-139972327D01*
X157228680Y-139969301D01*
X157228657Y-139805304D01*
X157232082Y-139797034D01*
X157234496Y-139795181D01*
X157408582Y-139694751D01*
X157417458Y-139693586D01*
X157420877Y-139695126D01*
G37*
%TD.AperFunction*%
%TD*%
%TA.AperFunction,Conductor*%
%TO.N,RCP-26*%
G36*
X163139438Y-139713346D02*
G01*
X163139777Y-139714080D01*
X163210563Y-139882768D01*
X163210604Y-139891723D01*
X163210563Y-139891822D01*
X163139777Y-140060509D01*
X163133415Y-140066812D01*
X163124461Y-140066771D01*
X163123727Y-140066432D01*
X163056613Y-140032643D01*
X163055333Y-140031894D01*
X163001592Y-139995660D01*
X162954394Y-139965426D01*
X162954393Y-139965425D01*
X162954392Y-139965425D01*
X162896843Y-139944874D01*
X162896842Y-139944873D01*
X162896840Y-139944873D01*
X162822128Y-139938241D01*
X162814191Y-139934096D01*
X162811463Y-139926587D01*
X162811463Y-139848002D01*
X162814890Y-139839729D01*
X162822127Y-139836348D01*
X162896843Y-139829715D01*
X162954392Y-139809163D01*
X163001598Y-139778925D01*
X163055347Y-139742685D01*
X163056598Y-139741953D01*
X163123727Y-139708156D01*
X163132657Y-139707497D01*
X163139438Y-139713346D01*
G37*
%TD.AperFunction*%
%TD*%
M02*
