%TF.GenerationSoftware,KiCad,Pcbnew,8.99.0-409-g72d83cd5de*%
%TF.CreationDate,2024-05-03T23:53:59-05:00*%
%TF.ProjectId,RCP-FLEX,5243502d-464c-4455-982e-6b696361645f,rev?*%
%TF.SameCoordinates,Original*%
%TF.FileFunction,Profile,NP*%
%FSLAX46Y46*%
G04 Gerber Fmt 4.6, Leading zero omitted, Abs format (unit mm)*
G04 Created by KiCad (PCBNEW 8.99.0-409-g72d83cd5de) date 2024-05-03 23:53:59*
%MOMM*%
%LPD*%
G01*
G04 APERTURE LIST*
%TA.AperFunction,Profile*%
%ADD10C,0.100000*%
%TD*%
G04 APERTURE END LIST*
D10*
X113211463Y-41126817D02*
X113210000Y-46993867D01*
X157075828Y-140297295D02*
X157074428Y-130387295D01*
X166060828Y-146735295D02*
X159317428Y-146735295D01*
X182011463Y-41127295D02*
X182011463Y-47420270D01*
X156294828Y-126694695D02*
X154466028Y-126694695D01*
X157545828Y-127947295D02*
X156294828Y-126694695D01*
X166060828Y-146735295D02*
X166060828Y-124672295D01*
X153983428Y-127177295D02*
X142035828Y-127171195D01*
X144328097Y-123511903D02*
X144326711Y-50369592D01*
X157545828Y-129917295D02*
X157545828Y-127947295D01*
X157074428Y-130387295D02*
X157545828Y-129917295D01*
X159398795Y-118010262D02*
X159398795Y-50777295D01*
X142035828Y-127171195D02*
X142035828Y-125809988D01*
X182011463Y-47420270D02*
G75*
G02*
X180991449Y-48407844I-1054963J69070D01*
G01*
X114733444Y-48410000D02*
G75*
G02*
X113209981Y-46993868I-22244J1503600D01*
G01*
X113211463Y-41127295D02*
G75*
G02*
X114211463Y-40127263I1000037J-5D01*
G01*
X166060828Y-124672295D02*
X159398795Y-118010262D01*
X157564828Y-144982695D02*
X157565828Y-140787295D01*
X157075828Y-140297295D02*
X157565828Y-140787295D01*
X161760000Y-48408752D02*
X180991447Y-48407798D01*
X159398795Y-50777295D02*
G75*
G02*
X161760000Y-48408784I2361205J7295D01*
G01*
X159317428Y-146735295D02*
X157564828Y-144982695D01*
X142007056Y-48410146D02*
G75*
G02*
X144326666Y-50369599I19644J-2329454D01*
G01*
X181011463Y-40127295D02*
G75*
G02*
X182011505Y-41127295I37J-1000005D01*
G01*
X142007056Y-48410146D02*
X114733444Y-48410000D01*
X181011463Y-40127295D02*
X114211463Y-40127295D01*
X154466028Y-126694695D02*
X153983428Y-127177295D01*
X144328097Y-123511903D02*
X142032918Y-125807082D01*
M02*
