%TF.GenerationSoftware,KiCad,Pcbnew,8.99.0-409-g72d83cd5de*%
%TF.CreationDate,2024-05-03T23:53:59-05:00*%
%TF.ProjectId,RCP-FLEX,5243502d-464c-4455-982e-6b696361645f,rev?*%
%TF.SameCoordinates,Original*%
%TF.FileFunction,OtherDrawing,Comment*%
%FSLAX46Y46*%
G04 Gerber Fmt 4.6, Leading zero omitted, Abs format (unit mm)*
G04 Created by KiCad (PCBNEW 8.99.0-409-g72d83cd5de) date 2024-05-03 23:53:59*
%MOMM*%
%LPD*%
G01*
G04 APERTURE LIST*
%ADD10C,0.150000*%
G04 APERTURE END LIST*
D10*
X148205622Y-44217295D02*
G75*
G02*
X147001462Y-44217295I-602080J0D01*
G01*
X147001462Y-44217295D02*
G75*
G02*
X148205622Y-44217295I602080J0D01*
G01*
X150705622Y-41677295D02*
G75*
G02*
X149501462Y-41677295I-602080J0D01*
G01*
X149501462Y-41677295D02*
G75*
G02*
X150705622Y-41677295I602080J0D01*
G01*
X128215622Y-44217295D02*
G75*
G02*
X127011462Y-44217295I-602080J0D01*
G01*
X127011462Y-44217295D02*
G75*
G02*
X128215622Y-44217295I602080J0D01*
G01*
X173211464Y-41677295D02*
G75*
G02*
X172007304Y-41677295I-602080J0D01*
G01*
X172007304Y-41677295D02*
G75*
G02*
X173211464Y-41677295I602080J0D01*
G01*
X130715622Y-41677295D02*
G75*
G02*
X129511462Y-41677295I-602080J0D01*
G01*
X129511462Y-41677295D02*
G75*
G02*
X130715622Y-41677295I602080J0D01*
G01*
X113211463Y-41127295D02*
X113210000Y-46993867D01*
X138205622Y-41677295D02*
G75*
G02*
X137001462Y-41677295I-602080J0D01*
G01*
X137001462Y-41677295D02*
G75*
G02*
X138205622Y-41677295I602080J0D01*
G01*
X160715622Y-41677295D02*
G75*
G02*
X159511462Y-41677295I-602080J0D01*
G01*
X159511462Y-41677295D02*
G75*
G02*
X160715622Y-41677295I602080J0D01*
G01*
X133215622Y-44217295D02*
G75*
G02*
X132011462Y-44217295I-602080J0D01*
G01*
X132011462Y-44217295D02*
G75*
G02*
X133215622Y-44217295I602080J0D01*
G01*
X148215622Y-41677295D02*
G75*
G02*
X147011462Y-41677295I-602080J0D01*
G01*
X147011462Y-41677295D02*
G75*
G02*
X148215622Y-41677295I602080J0D01*
G01*
X125711464Y-44217295D02*
G75*
G02*
X124507304Y-44217295I-602080J0D01*
G01*
X124507304Y-44217295D02*
G75*
G02*
X125711464Y-44217295I602080J0D01*
G01*
X125711464Y-41677295D02*
G75*
G02*
X124507304Y-41677295I-602080J0D01*
G01*
X124507304Y-41677295D02*
G75*
G02*
X125711464Y-41677295I602080J0D01*
G01*
X181052702Y-40127296D02*
G75*
G02*
X182052719Y-41100374I-79902J-1082504D01*
G01*
X178211464Y-44217295D02*
G75*
G02*
X177007304Y-44217295I-602080J0D01*
G01*
X177007304Y-44217295D02*
G75*
G02*
X178211464Y-44217295I602080J0D01*
G01*
X140705622Y-44217295D02*
G75*
G02*
X139501462Y-44217295I-602080J0D01*
G01*
X139501462Y-44217295D02*
G75*
G02*
X140705622Y-44217295I602080J0D01*
G01*
X155705622Y-41677295D02*
G75*
G02*
X154501462Y-41677295I-602080J0D01*
G01*
X154501462Y-41677295D02*
G75*
G02*
X155705622Y-41677295I602080J0D01*
G01*
X160715622Y-44217295D02*
G75*
G02*
X159511462Y-44217295I-602080J0D01*
G01*
X159511462Y-44217295D02*
G75*
G02*
X160715622Y-44217295I602080J0D01*
G01*
X165705622Y-41677295D02*
G75*
G02*
X164501462Y-41677295I-602080J0D01*
G01*
X164501462Y-41677295D02*
G75*
G02*
X165705622Y-41677295I602080J0D01*
G01*
X133215622Y-41677295D02*
G75*
G02*
X132011462Y-41677295I-602080J0D01*
G01*
X132011462Y-41677295D02*
G75*
G02*
X133215622Y-41677295I602080J0D01*
G01*
X182052702Y-47414372D02*
G75*
G02*
X181074777Y-48414383I-1084902J82772D01*
G01*
X118211464Y-44217295D02*
G75*
G02*
X117007304Y-44217295I-602080J0D01*
G01*
X117007304Y-44217295D02*
G75*
G02*
X118211464Y-44217295I602080J0D01*
G01*
X168215622Y-41686337D02*
G75*
G02*
X167011462Y-41686337I-602080J0D01*
G01*
X167011462Y-41686337D02*
G75*
G02*
X168215622Y-41686337I602080J0D01*
G01*
X175711464Y-41677295D02*
G75*
G02*
X174507304Y-41677295I-602080J0D01*
G01*
X174507304Y-41677295D02*
G75*
G02*
X175711464Y-41677295I602080J0D01*
G01*
X155705622Y-44217295D02*
G75*
G02*
X154501462Y-44217295I-602080J0D01*
G01*
X154501462Y-44217295D02*
G75*
G02*
X155705622Y-44217295I602080J0D01*
G01*
X153205622Y-44217295D02*
G75*
G02*
X152001462Y-44217295I-602080J0D01*
G01*
X152001462Y-44217295D02*
G75*
G02*
X153205622Y-44217295I602080J0D01*
G01*
X138205622Y-44217295D02*
G75*
G02*
X137001462Y-44217295I-602080J0D01*
G01*
X137001462Y-44217295D02*
G75*
G02*
X138205622Y-44217295I602080J0D01*
G01*
X128215622Y-41677295D02*
G75*
G02*
X127011462Y-41677295I-602080J0D01*
G01*
X127011462Y-41677295D02*
G75*
G02*
X128215622Y-41677295I602080J0D01*
G01*
X135715622Y-44217295D02*
G75*
G02*
X134511462Y-44217295I-602080J0D01*
G01*
X134511462Y-44217295D02*
G75*
G02*
X135715622Y-44217295I602080J0D01*
G01*
X135715622Y-41677295D02*
G75*
G02*
X134511462Y-41677295I-602080J0D01*
G01*
X134511462Y-41677295D02*
G75*
G02*
X135715622Y-41677295I602080J0D01*
G01*
X123211464Y-44217295D02*
G75*
G02*
X122007304Y-44217295I-602080J0D01*
G01*
X122007304Y-44217295D02*
G75*
G02*
X123211464Y-44217295I602080J0D01*
G01*
X163215622Y-44217295D02*
G75*
G02*
X162011462Y-44217295I-602080J0D01*
G01*
X162011462Y-44217295D02*
G75*
G02*
X163215622Y-44217295I602080J0D01*
G01*
X170715622Y-41677295D02*
G75*
G02*
X169511462Y-41677295I-602080J0D01*
G01*
X169511462Y-41677295D02*
G75*
G02*
X170715622Y-41677295I602080J0D01*
G01*
X153205622Y-41677295D02*
G75*
G02*
X152001462Y-41677295I-602080J0D01*
G01*
X152001462Y-41677295D02*
G75*
G02*
X153205622Y-41677295I602080J0D01*
G01*
X173211464Y-44217295D02*
G75*
G02*
X172007304Y-44217295I-602080J0D01*
G01*
X172007304Y-44217295D02*
G75*
G02*
X173211464Y-44217295I602080J0D01*
G01*
X181052702Y-40127295D02*
X114211463Y-40127295D01*
X120711464Y-44217295D02*
G75*
G02*
X119507304Y-44217295I-602080J0D01*
G01*
X119507304Y-44217295D02*
G75*
G02*
X120711464Y-44217295I602080J0D01*
G01*
X165705622Y-44217295D02*
G75*
G02*
X164501462Y-44217295I-602080J0D01*
G01*
X164501462Y-44217295D02*
G75*
G02*
X165705622Y-44217295I602080J0D01*
G01*
X114733444Y-48410000D02*
X181074776Y-48414372D01*
X150705622Y-44217295D02*
G75*
G02*
X149501462Y-44217295I-602080J0D01*
G01*
X149501462Y-44217295D02*
G75*
G02*
X150705622Y-44217295I602080J0D01*
G01*
X178211464Y-41686337D02*
G75*
G02*
X177007304Y-41686337I-602080J0D01*
G01*
X177007304Y-41686337D02*
G75*
G02*
X178211464Y-41686337I602080J0D01*
G01*
X143205622Y-41677295D02*
G75*
G02*
X142001462Y-41677295I-602080J0D01*
G01*
X142001462Y-41677295D02*
G75*
G02*
X143205622Y-41677295I602080J0D01*
G01*
X130711464Y-44217295D02*
G75*
G02*
X129507304Y-44217295I-602080J0D01*
G01*
X129507304Y-44217295D02*
G75*
G02*
X130711464Y-44217295I602080J0D01*
G01*
X118211464Y-41677295D02*
G75*
G02*
X117007304Y-41677295I-602080J0D01*
G01*
X117007304Y-41677295D02*
G75*
G02*
X118211464Y-41677295I602080J0D01*
G01*
X163215622Y-41677295D02*
G75*
G02*
X162011462Y-41677295I-602080J0D01*
G01*
X162011462Y-41677295D02*
G75*
G02*
X163215622Y-41677295I602080J0D01*
G01*
X140715622Y-41677295D02*
G75*
G02*
X139511462Y-41677295I-602080J0D01*
G01*
X139511462Y-41677295D02*
G75*
G02*
X140715622Y-41677295I602080J0D01*
G01*
X114733444Y-48410000D02*
G75*
G02*
X113209981Y-46993868I-22244J1503600D01*
G01*
X123211464Y-41677295D02*
G75*
G02*
X122007304Y-41677295I-602080J0D01*
G01*
X122007304Y-41677295D02*
G75*
G02*
X123211464Y-41677295I602080J0D01*
G01*
X168211464Y-44217295D02*
G75*
G02*
X167007304Y-44217295I-602080J0D01*
G01*
X167007304Y-44217295D02*
G75*
G02*
X168211464Y-44217295I602080J0D01*
G01*
X145705622Y-44217295D02*
G75*
G02*
X144501462Y-44217295I-602080J0D01*
G01*
X144501462Y-44217295D02*
G75*
G02*
X145705622Y-44217295I602080J0D01*
G01*
X182052702Y-41100376D02*
X182052702Y-47414372D01*
X113211463Y-41127295D02*
G75*
G02*
X114211468Y-40127357I1095937J-96005D01*
G01*
X175711464Y-44217295D02*
G75*
G02*
X174507304Y-44217295I-602080J0D01*
G01*
X174507304Y-44217295D02*
G75*
G02*
X175711464Y-44217295I602080J0D01*
G01*
X143205622Y-44217295D02*
G75*
G02*
X142001462Y-44217295I-602080J0D01*
G01*
X142001462Y-44217295D02*
G75*
G02*
X143205622Y-44217295I602080J0D01*
G01*
X145715622Y-41677295D02*
G75*
G02*
X144511462Y-41677295I-602080J0D01*
G01*
X144511462Y-41677295D02*
G75*
G02*
X145715622Y-41677295I602080J0D01*
G01*
X170715622Y-44217295D02*
G75*
G02*
X169511462Y-44217295I-602080J0D01*
G01*
X169511462Y-44217295D02*
G75*
G02*
X170715622Y-44217295I602080J0D01*
G01*
X120711464Y-41677295D02*
G75*
G02*
X119507304Y-41677295I-602080J0D01*
G01*
X119507304Y-41677295D02*
G75*
G02*
X120711464Y-41677295I602080J0D01*
G01*
X158215622Y-44217295D02*
G75*
G02*
X157011462Y-44217295I-602080J0D01*
G01*
X157011462Y-44217295D02*
G75*
G02*
X158215622Y-44217295I602080J0D01*
G01*
X158205622Y-41677295D02*
G75*
G02*
X157001462Y-41677295I-602080J0D01*
G01*
X157001462Y-41677295D02*
G75*
G02*
X158205622Y-41677295I602080J0D01*
G01*
M02*
